{
.appVersion = "3260";
copyright = "Copyright 2024 Flux Variable Font Authors (https://github.com/ralphbruens/flux)";
customParameters = (
{
name = "Use Typo Metrics";
value = 1;
},
{
name = license;
value = "OFL-1.1 License";
},
{
name = licenseURL;
value = "https://scripts.sil.org/OFL";
},
{
name = Axes;
value = (
{
Name = Width;
Tag = wdth;
}
);
}
);
date = "2024-09-03 16:57:06 +0000";
designer = "Ralph Bruens";
designerURL = fonts.ralphbruens.nl;
familyName = Flux;
featurePrefixes = (
{
automatic = 1;
code = "languagesystem DFLT dflt;\012";
name = Languagesystems;
}
);
features = (
{
automatic = 1;
code = "lookupflag IgnoreMarks;\012sub f f by f_f;\012sub f h by f_h.liga;\012sub f i by f_i;\012sub f l by f_l;\012sub f t by f_t.liga;\012sub i j by i_j.liga;\012sub r r by r_r.liga;\012sub t t by t_t.liga;\012";
name = liga;
}
);
fontMaster = (
{
ascender = 805;
capHeight = 690;
customParameters = (
{
name = winAscent;
value = 805;
},
{
name = winDescent;
value = 230;
},
{
name = typoAscender;
value = 805;
},
{
name = typoDescender;
value = -230;
},
{
name = typoLineGap;
value = 115;
},
{
name = hheaAscender;
value = 805;
},
{
name = hheaDescender;
value = -230;
},
{
name = hheaLineGap;
value = 115;
},
{
name = underlinePosition;
value = 115;
},
{
name = underlineThickness;
value = 15;
},
{
name = "Master Icon Glyph Name";
value = a;
}
);
descender = -230;
horizontalStems = (
115,
115
);
iconName = Light_Condensed;
id = "B9294602-EB87-4DCD-A39F-D52598F560AD";
userData = {
GSCornerRadius = 50;
};
verticalStems = (
115,
115
);
visible = 1;
weightValue = 300;
width = Condensed;
xHeight = 575;
},
{
ascender = 805;
capHeight = 690;
custom = "Ultra Expanded";
customParameters = (
{
name = winAscent;
value = 805;
},
{
name = winDescent;
value = 230;
},
{
name = typoAscender;
value = 805;
},
{
name = typoDescender;
value = -230;
},
{
name = typoLineGap;
value = 115;
},
{
name = hheaAscender;
value = 805;
},
{
name = hheaDescender;
value = -230;
},
{
name = hheaLineGap;

glyphs = (
{
glyphname = A;
lastChange = "2024-09-03 14:21:37 +0000";
layers = (
{
hints = (
{
horizontal = 1;
origin = "{1, 3}";
target = "{0, 66}";
type = Stem;
},
{
horizontal = 1;
origin = "{0, 43}";
target = "{1, 12}";
type = Stem;
},
{
origin = "{0, 14}";
target = "{0, 23}";
type = Stem;
},
{
origin = "{0, 30}";
target = "{0, 39}";
type = Stem;
}
);
layerId = "B9294602-EB87-4DCD-A39F-D52598F560AD";
paths = (
{
closed = 1;
nodes = (
"30 367 OFFCURVE",
"51 345 OFFCURVE",
"80 345 CURVE SMOOTH",
"93 345 LINE SMOOTH",
"122 345 OFFCURVE",
"144 323 OFFCURVE",
"144 294 CURVE SMOOTH",
"144 281 LINE SMOOTH",
"144 252 OFFCURVE",
"122 230 OFFCURVE",
"93 230 CURVE SMOOTH",
"81 230 LINE SMOOTH",
"52 230 OFFCURVE",
"30 208 OFFCURVE",
"30 179 CURVE SMOOTH",
"30 51 LINE SMOOTH",
"30 22 OFFCURVE",
"52 0 OFFCURVE",
"81 0 CURVE SMOOTH",
"94 0 LINE SMOOTH",
"123 0 OFFCURVE",
"145 22 OFFCURVE",
"145 51 CURVE SMOOTH",
"145 179 LINE SMOOTH",
"145 208 OFFCURVE",
"167 230 OFFCURVE",
"196 230 CURVE SMOOTH",
"324 230 LINE SMOOTH",
"353 230 OFFCURVE",
"375 208 OFFCURVE",
"375 179 CURVE SMOOTH",
"375 51 LINE SMOOTH",
"375 22 OFFCURVE",
"397 0 OFFCURVE",
"426 0 CURVE SMOOTH",
"439 0 LINE SMOOTH",
"468 0 OFFCURVE",
"489 22 OFFCURVE",
"489 51 CURVE",
"490 179 LINE",
"490 208 OFFCURVE",
"468 230 OFFCURVE",
"439 230 CURVE SMOOTH",
"426 230 LINE SMOOTH",
"397 230 OFFCURVE",
"375 252 OFFCURVE",
"375 281 CURVE SMOOTH",
"375 294 LINE",
"375 329 OFFCURVE",
"397 345 OFFCURVE",
"425 345 CURVE SMOOTH",
"438 345 LINE SMOOTH",
"467 345 OFFCURVE",
"489 367 OFFCURVE",
"489 396 CURVE SMOOTH",
"489 524 LINE SMOOTH",
"489 553 OFFCURVE",
"467 575 OFFCURVE",
"438 575 CURVE SMOOTH",
"425 575 LINE SMOOTH",
"396 575 OFFCURVE",
"374 597 OFFCURVE",
"374 626 CURVE SMOOTH",
"374 639 LINE SMOOTH",
"374 668 OFFCURVE",
"352 690 OFFCURVE",
"323 690 CURVE SMOOTH",
"195 690 LINE SMOOTH",
"166 690 OFFCURVE",
"144 668 OFFCURVE",
"144 639 CURVE SMOOTH",
"144 626 LINE SMOOTH",
"144 597 OFFCURVE",
"122 575 OFFCURVE",
"93 575 CURVE SMOOTH",
"80 575 LINE SMOOTH",
"51 575 OFFCURVE",
"30 553 OFFCURVE",
"30 524 CURVE SMOOTH",
"30 396 LINE SMOOTH"
);
},
{
closed = 1;
nodes = (
"144 524 LINE SMOOTH",
"144 553 OFFCURVE",
"166 575 OFFCURVE",
"195 575 CURVE SMOOTH",
"323 575 LINE SMOOTH",
"352 575 OFFCURVE",
"374 553 OFFCURVE",
"374 524 CURVE SMOOTH",
"374 396 LINE SMOOTH",
"374 367 OFFCURVE",
"352 345 OFFCURVE",
"323 345 CURVE SMOOTH",
"195 345 LINE SMOOTH",
"166 345 OFFCURVE",
"144 367 OFFCURVE",
"144 396 CURVE SMOOTH"
);
}
);
width = 520;
},
{
hints = (
{
horizontal = 1;
origin = "{0, 43}";
target = "{1, 12}";
type = Stem;
},
{
horizontal = 1;
origin = "{0, 67}";
target = "{1, 4}";
type = Stem;
},
{
origin = "{0, 79}";
target = "{0, 23}";
type = Stem;
},
{
origin = "{0, 47}";
target = "{0, 39}";
type = Stem;
}
);
layerId = "52F3452F-C0C6-4900-9BFE-1786415B207F";
paths = (
{
closed = 1;
nodes = (
"30 367 OFFCURVE",
"51 345 OFFCURVE",
"80 345 CURVE SMOOTH",
"93 345 LINE SMOOTH",
"122 345 OFFCURVE",
"144 323 OFFCURVE",
"144 294 CURVE SMOOTH",
"144 281 LINE SMOOTH",
"144 252 OFFCURVE",
"122 230 OFFCURVE",
"93 230 CURVE SMOOTH",
"81 230 LINE SMOOTH",
"52 230 OFFCURVE",
"30 208 OFFCURVE",
"30 179 CURVE SMOOTH",
"30 51 LINE SMOOTH",
"30 22 OFFCURVE",
"52 0 OFFCURVE",
"81 0 CURVE SMOOTH",
"94 0 LINE SMOOTH",
"123 0 OFFCURVE",
"145 22 OFFCURVE",
"145 51 CURVE SMOOTH",
"145 179 LINE SMOOTH",
"145 208 OFFCURVE",
"167 230 OFFCURVE",
"196 230 CURVE SMOOTH",
"1333 230 LINE SMOOTH",
"1362 230 OFFCURVE",
"1384 207 OFFCURVE",
"1384 178 CURVE SMOOTH",
"1384 50 LINE SMOOTH",
"1384 21 OFFCURVE",
"1406 -1 OFFCURVE",
"1435 -1 CURVE SMOOTH",
"1448 -1 LINE SMOOTH",
"1477 -1 OFFCURVE",
"1498 21 OFFCURVE",
"1498 50 CURVE",
"1499 178 LINE",
"1499 207 OFFCURVE",
"1477 229 OFFCURVE",
"1448 229 CURVE SMOOTH",
"1435 229 LINE SMOOTH",
"1406 229 OFFCURVE",
"1384 251 OFFCURVE",
"1384 280 CURVE SMOOTH",
"1384 293 LINE",
"1384 328 OFFCURVE",
"1406 344 OFFCURVE",
"1434 344 CURVE SMOOTH",
"1447 344 LINE SMOOTH",
"1476 344 OFFCURVE",
"1498 366 OFFCURVE",
"1498 395 CURVE SMOOTH",
"1498 523 LINE SMOOTH",
"1498 552 OFFCURVE",
"1476 574 OFFCURVE",
"1447 574 CURVE SMOOTH",
"1434 574 LINE SMOOTH",
"1405 574 OFFCURVE",
"1383 596 OFFCURVE",
"1383 625 CURVE SMOOTH",
"1383 638 LINE SMOOTH",
"1383 667 OFFCURVE",
"1361 690 OFFCURVE",
"1332 690 CURVE SMOOTH",
"195 690 LINE SMOOTH",
"166 690 OFFCURVE",
"144 668 OFFCURVE",
"144 639 CURVE SMOOTH",
"144 626 LINE SMOOTH",
"144 597 OFFCURVE",
"122 575 OFFCURVE",
"93 575 CURVE SMOOTH",
"80 575 LINE SMOOTH",
"51 575 OFFCURVE",
"30 553 OFFCURVE",
"30 524 CURVE SMOOTH",
"30 396 LINE SMOOTH"
);
},
{
closed = 1;
nodes = (
"144 524 LINE SMOOTH",
"144 553 OFFCURVE",
"166 575 OFFCURVE",
"195 575 CURVE SMOOTH",
"1332 575 LINE SMOOTH",
"1361 575 OFFCURVE",
"1383 552 OFFCURVE",
"1383 523 CURVE SMOOTH",
"1383 395 LINE SMOOTH",
"1383 366 OFFCURVE",
"1361 345 OFFCURVE",
"1332 345 CURVE SMOOTH",
"195 345 LINE SMOOTH",
"166 345 OFFCURVE",
"144 367 OFFCURVE",
"144 396 CURVE SMOOTH"
);
}
);
width = 1529;
}
);
unicode = 0041;
},
{
glyphname = B;
lastChange = "2024-09-03 14:22:08 +0000";
layers = (
{
hints = (
{
horizontal = 1;
origin = "{0, 63}";
target = "{1, 12}";
type = Stem;
},
{
horizontal = 1;
origin = "{1, 4}";
target = "{2, 12}";
type = Stem;
},
{
horizontal = 1;
origin = "{2, 3}";
target = "{0, 39}";
type = Stem;
},
{
origin = "{0, 60}";
target = "{2, 15}";
type = Stem;
},
{
origin = "{2, 8}";
target = "{0, 28}";
type = Stem;
}
);
layerId = "B9294602-EB87-4DCD-A39F-D52598F560AD";
paths = (
{
closed = 1;
nodes = (
"324 0 LINE SMOOTH",
"353 0 OFFCURVE",
"375 22 OFFCURVE",
"375 51 CURVE SMOOTH",
"375 64 LINE SMOOTH",
"375 93 OFFCURVE",
"397 115 OFFCURVE",
"426 115 CURVE SMOOTH",
"439 115 LINE SMOOTH",
"468 115 OFFCURVE",
"490 137 OFFCURVE",
"490 166 CURVE SMOOTH",
"490 294 LINE SMOOTH",
"490 323 OFFCURVE",
"468 345 OFFCURVE",
"439 345 CURVE SMOOTH",
"426 345 LINE SMOOTH",
"397 345 OFFCURVE",
"375 367 OFFCURVE",
"375 396 CURVE SMOOTH",
"375 409 LINE SMOOTH",
"375 438 OFFCURVE",
"397 460 OFFCURVE",
"426 460 CURVE SMOOTH",
"439 460 LINE SMOOTH",
"468 460 OFFCURVE",
"490 482 OFFCURVE",
"490 511 CURVE SMOOTH",
"490 524 LINE SMOOTH",
"490 553 OFFCURVE",
"468 575 OFFCURVE",
"439 575 CURVE SMOOTH",
"426 575 LINE SMOOTH",
"397 575 OFFCURVE",
"375 597 OFFCURVE",
"375 626 CURVE SMOOTH",
"375 639 LINE SMOOTH",
"375 668 OFFCURVE",
"353 690 OFFCURVE",
"324 690 CURVE SMOOTH",
"81 690 LINE SMOOTH",
"52 690 OFFCURVE",
"30 668 OFFCURVE",
"30 639 CURVE SMOOTH",
"30 511 LINE SMOOTH",
"30 482 OFFCURVE",
"52 460 OFFCURVE",
"81 460 CURVE SMOOTH",
"94 460 LINE SMOOTH",
"123 460 OFFCURVE",
"145 438 OFFCURVE",
"145 409 CURVE SMOOTH",
"145 396 LINE SMOOTH",
"145 367 OFFCURVE",
"123 345 OFFCURVE",
"94 345 CURVE SMOOTH",
"81 345 LINE SMOOTH",
"52 345 OFFCURVE",
"30 323 OFFCURVE",
"30 294 CURVE SMOOTH",
"30 51 LINE SMOOTH",
"30 22 OFFCURVE",
"52 0 OFFCURVE",
"81 0 CURVE SMOOTH"
);
},
{
closed = 1;
nodes = (
"145 294 LINE SMOOTH",
"145 323 OFFCURVE",
"167 345 OFFCURVE",
"196 345 CURVE SMOOTH",
"324 345 LINE SMOOTH",
"353 345 OFFCURVE",
"375 323 OFFCURVE",
"375 294 CURVE SMOOTH",
"375 166 LINE SMOOTH",
"375 137 OFFCURVE",
"353 115 OFFCURVE",
"324 115 CURVE SMOOTH",
"196 115 LINE SMOOTH",
"167 115 OFFCURVE",
"145 137 OFFCURVE",
"145 166 CURVE SMOOTH"
);
},
{
closed = 1;
nodes = (
"145 524 LINE SMOOTH",
"145 553 OFFCURVE",
"167 575 OFFCURVE",
"196 575 CURVE SMOOTH",
"324 575 LINE SMOOTH",
"353 575 OFFCURVE",
"375 553 OFFCURVE",
"375 524 CURVE SMOOTH",
"375 511 LINE SMOOTH",
"375 482 OFFCURVE",
"353 460 OFFCURVE",
"324 460 CURVE SMOOTH",
"196 460 LINE SMOOTH",
"167 460 OFFCURVE",
"145 482 OFFCURVE",
"145 511 CURVE SMOOTH"
);
}
);
width = 520;
},
{
hints = (
{
horizontal = 1;
origin = "{0, 63}";
target = "{1, 12}";
type = Stem;
},
{
horizontal = 1;
origin = "{1, 4}";
target = "{2, 12}";
type = Stem;
},
{
horizontal = 1;
origin = "{2, 3}";
target = "{0, 39}";
type = Stem;
},
{
horizontal = 1;
origin = "{2, 12}";
target = "{2, 4}";
type = Stem;
},
{
origin = "{0, 60}";
target = "{2, 15}";
type = Stem;
},
{
origin = "{2, 8}";
target = "{0, 28}";
type = Stem;
}
);
layerId = "52F3452F-C0C6-4900-9BFE-1786415B207F";
paths = (
{
closed = 1;
nodes = (
"1333 0 LINE SMOOTH",
"1362 0 OFFCURVE",
"1384 22 OFFCURVE",
"1384 51 CURVE SMOOTH",
"1384 64 LINE SMOOTH",
"1384 93 OFFCURVE",
"1406 115 OFFCURVE",
"1435 115 CURVE SMOOTH",
"1448 115 LINE SMOOTH",
"1477 115 OFFCURVE",
"1499 137 OFFCURVE",
"1499 166 CURVE SMOOTH",
"1499 294 LINE SMOOTH",
"1499 323 OFFCURVE",
"1477 345 OFFCURVE",
"1448 345 CURVE SMOOTH",
"1435 345 LINE SMOOTH",
"1406 345 OFFCURVE",
"1384 367 OFFCURVE",
"1384 396 CURVE SMOOTH",
"1384 409 LINE SMOOTH",
"1384 438 OFFCURVE",
"1406 460 OFFCURVE",
"1435 460 CURVE SMOOTH",
"1448 460 LINE SMOOTH",
"1477 460 OFFCURVE",
"1499 482 OFFCURVE",
"1499 511 CURVE SMOOTH",
"1499 524 LINE SMOOTH",
"1499 553 OFFCURVE",
"1477 575 OFFCURVE",
"1448 575 CURVE SMOOTH",
"1435 575 LINE SMOOTH",
"1406 575 OFFCURVE",
"1384 597 OFFCURVE",
"1384 626 CURVE SMOOTH",
"1384 639 LINE SMOOTH",
"1384 668 OFFCURVE",
"1362 690 OFFCURVE",
"1333 690 CURVE SMOOTH",
"81 690 LINE SMOOTH",
"52 690 OFFCURVE",
"30 668 OFFCURVE",
"30 639 CURVE SMOOTH",
"30 511 LINE SMOOTH",
"30 482 OFFCURVE",
"52 460 OFFCURVE",
"81 460 CURVE SMOOTH",
"94 460 LINE SMOOTH",
"123 460 OFFCURVE",
"145 438 OFFCURVE",
"145 409 CURVE SMOOTH",
"145 396 LINE SMOOTH",
"145 367 OFFCURVE",
"123 345 OFFCURVE",
"94 345 CURVE SMOOTH",
"81 345 LINE SMOOTH",
"52 345 OFFCURVE",
"30 323 OFFCURVE",
"30 294 CURVE SMOOTH",
"30 51 LINE SMOOTH",
"30 22 OFFCURVE",
"52 0 OFFCURVE",
"81 0 CURVE SMOOTH"
);
},
{
closed = 1;
nodes = (
"145 294 LINE SMOOTH",
"145 323 OFFCURVE",
"167 345 OFFCURVE",
"196 345 CURVE SMOOTH",
"1333 345 LINE SMOOTH",
"1362 345 OFFCURVE",
"1384 323 OFFCURVE",
"1384 294 CURVE SMOOTH",
"1384 166 LINE SMOOTH",
"1384 137 OFFCURVE",
"1362 115 OFFCURVE",
"1333 115 CURVE SMOOTH",
"196 115 LINE SMOOTH",
"167 115 OFFCURVE",
"145 137 OFFCURVE",
"145 166 CURVE SMOOTH"
);
},
{
closed = 1;
nodes = (
"145 524 LINE SMOOTH",
"145 553 OFFCURVE",
"167 575 OFFCURVE",
"196 575 CURVE SMOOTH",
"1333 575 LINE SMOOTH",
"1362 575 OFFCURVE",
"1384 553 OFFCURVE",
"1384 524 CURVE SMOOTH",
"1384 511 LINE SMOOTH",
"1384 482 OFFCURVE",
"1362 460 OFFCURVE",
"1333 460 CURVE SMOOTH",
"196 460 LINE SMOOTH",
"167 460 OFFCURVE",
"145 482 OFFCURVE",
"145 511 CURVE SMOOTH"
);
}
);
width = 1529;
}
);
unicode = 0042;
},
{
glyphname = C;
lastChange = "2024-09-03 14:22:25 +0000";
layers = (
{
hints = (
{
horizontal = 1;
origin = "{0, 4}";
target = "{0, 28}";
type = Stem;
},
{
horizontal = 1;
origin = "{0, 35}";
target = "{0, 59}";
type = Stem;
},
{
origin = "{0, 71}";
target = "{0, 64}";
type = Stem;
},
{
origin = "{0, 56}";
target = "{0, 48}";
type = Stem;
}
);
layerId = "B9294602-EB87-4DCD-A39F-D52598F560AD";
paths = (
{
closed = 1;
nodes = (
"30 51 LINE SMOOTH",
"30 22 OFFCURVE",
"52 0 OFFCURVE",
"81 0 CURVE SMOOTH",
"323 0 LINE SMOOTH",
"352 0 OFFCURVE",
"375 22 OFFCURVE",
"375 51 CURVE SMOOTH",
"375 64 LINE SMOOTH",
"375 93 OFFCURVE",
"397 115 OFFCURVE",
"426 115 CURVE SMOOTH",
"439 115 LINE SMOOTH",
"468 115 OFFCURVE",
"490 137 OFFCURVE",
"490 166 CURVE SMOOTH",
"490 181 LINE SMOOTH",
"490 210 OFFCURVE",
"468 230 OFFCURVE",
"439 230 CURVE SMOOTH",
"426 230 LINE SMOOTH",
"397 230 OFFCURVE",
"375 210 OFFCURVE",
"375 181 CURVE SMOOTH",
"375 166 LINE SMOOTH",
"375 137 OFFCURVE",
"353 115 OFFCURVE",
"324 115 CURVE SMOOTH",
"196 115 LINE SMOOTH",
"167 115 OFFCURVE",
"145 137 OFFCURVE",
"145 166 CURVE SMOOTH",
"145 524 LINE SMOOTH",
"145 553 OFFCURVE",
"167 575 OFFCURVE",
"196 575 CURVE SMOOTH",
"324 575 LINE SMOOTH",
"353 575 OFFCURVE",
"375 553 OFFCURVE",
"375 524 CURVE SMOOTH",
"375 509 LINE SMOOTH",
"375 480 OFFCURVE",
"397 460 OFFCURVE",
"426 460 CURVE SMOOTH",
"439 460 LINE SMOOTH",
"468 460 OFFCURVE",
"490 480 OFFCURVE",
"490 509 CURVE SMOOTH",
"490 524 LINE SMOOTH",
"490 553 OFFCURVE",
"468 575 OFFCURVE",
"439 575 CURVE SMOOTH",
"426 575 LINE SMOOTH",
"397 575 OFFCURVE",
"375 597 OFFCURVE",
"375 626 CURVE SMOOTH",
"375 639 LINE SMOOTH",
"375 668 OFFCURVE",
"352 690 OFFCURVE",
"323 690 CURVE SMOOTH",
"196 690 LINE SMOOTH",
"167 690 OFFCURVE",
"145 668 OFFCURVE",
"145 639 CURVE SMOOTH",
"145 626 LINE SMOOTH",
"145 597 OFFCURVE",
"123 575 OFFCURVE",
"94 575 CURVE SMOOTH",
"81 575 LINE SMOOTH",
"52 575 OFFCURVE",
"30 553 OFFCURVE",
"30 524 CURVE SMOOTH"
);
}
);
width = 520;
},
{
hints = (
{
horizontal = 1;
origin = "{0, 4}";
target = "{0, 28}";
type = Stem;
},
{
horizontal = 1;
origin = "{0, 44}";
target = "{0, 68}";
type = Stem;
},
{
horizontal = 1;
origin = "{0, 28}";
target = "{0, 20}";
type = Stem;
},
{
horizontal = 1;
origin = "{0, 35}";
target = "{0, 59}";
type = Stem;
},
{
origin = "{0, 71}";
target = "{0, 64}";
type = Stem;
},
{
origin = "{0, 56}";
target = "{0, 48}";
type = Stem;
}
);
layerId = "52F3452F-C0C6-4900-9BFE-1786415B207F";
paths = (
{
closed = 1;
nodes = (
"30 51 LINE SMOOTH",
"30 22 OFFCURVE",
"52 0 OFFCURVE",
"81 0 CURVE SMOOTH",
"1330 0 LINE SMOOTH",
"1359 0 OFFCURVE",
"1382 22 OFFCURVE",
"1382 51 CURVE SMOOTH",
"1382 64 LINE SMOOTH",
"1382 93 OFFCURVE",
"1404 115 OFFCURVE",
"1433 115 CURVE SMOOTH",
"1446 115 LINE SMOOTH",
"1475 115 OFFCURVE",
"1497 137 OFFCURVE",
"1497 166 CURVE SMOOTH",
"1497 181 LINE SMOOTH",
"1497 210 OFFCURVE",
"1475 230 OFFCURVE",
"1446 230 CURVE SMOOTH",
"1433 230 LINE SMOOTH",
"1404 230 OFFCURVE",
"1382 210 OFFCURVE",
"1382 181 CURVE SMOOTH",
"1382 166 LINE SMOOTH",
"1382 137 OFFCURVE",
"1360 115 OFFCURVE",
"1331 115 CURVE SMOOTH",
"196 115 LINE SMOOTH",
"167 115 OFFCURVE",
"145 137 OFFCURVE",
"145 166 CURVE SMOOTH",
"145 524 LINE SMOOTH",
"145 553 OFFCURVE",
"167 575 OFFCURVE",
"196 575 CURVE SMOOTH",
"1331 575 LINE SMOOTH",
"1360 575 OFFCURVE",
"1382 553 OFFCURVE",
"1382 524 CURVE SMOOTH",
"1382 509 LINE SMOOTH",
"1382 480 OFFCURVE",
"1404 460 OFFCURVE",
"1433 460 CURVE SMOOTH",
"1446 460 LINE SMOOTH",
"1475 460 OFFCURVE",
"1497 480 OFFCURVE",
"1497 509 CURVE SMOOTH",
"1497 524 LINE SMOOTH",
"1497 553 OFFCURVE",
"1475 575 OFFCURVE",
"1446 575 CURVE SMOOTH",
"1433 575 LINE SMOOTH",
"1404 575 OFFCURVE",
"1382 597 OFFCURVE",
"1382 626 CURVE SMOOTH",
"1382 639 LINE SMOOTH",
"1382 668 OFFCURVE",
"1359 690 OFFCURVE",
"1330 690 CURVE SMOOTH",
"196 690 LINE SMOOTH",
"167 690 OFFCURVE",
"145 668 OFFCURVE",
"145 639 CURVE SMOOTH",
"145 626 LINE SMOOTH",
"145 597 OFFCURVE",
"123 575 OFFCURVE",
"94 575 CURVE SMOOTH",
"81 575 LINE SMOOTH",
"52 575 OFFCURVE",
"30 553 OFFCURVE",
"30 524 CURVE SMOOTH"
);
}
);
width = 1527;
}
);
unicode = 0043;
},
{
glyphname = D;
lastChange = "2024-09-03 14:23:17 +0000";
layers = (
{
hints = (
{
origin = "{0, 15}";
target = "{1, 8}";
type = Stem;
},
{
origin = "{1, 15}";
place = "{375, 115}";
type = Stem;
},
{
horizontal = 1;
origin = "{1, 4}";
target = "{0, 19}";
type = Stem;
},
{
horizontal = 1;
origin = "{0, 12}";
target = "{1, 11}";
type = Stem;
}
);
layerId = "B9294602-EB87-4DCD-A39F-D52598F560AD";
paths = (
{
closed = 1;
nodes = (
"490 166 LINE SMOOTH",
"490 137 OFFCURVE",
"468 115 OFFCURVE",
"439 115 CURVE SMOOTH",
"426 115 LINE SMOOTH",
"397 115 OFFCURVE",
"375 93 OFFCURVE",
"375 64 CURVE SMOOTH",
"375 51 LINE SMOOTH",
"375 22 OFFCURVE",
"353 0 OFFCURVE",
"324 0 CURVE SMOOTH",
"81 0 LINE SMOOTH",
"52 0 OFFCURVE",
"30 22 OFFCURVE",
"30 51 CURVE SMOOTH",
"30 639 LINE SMOOTH",
"30 668 OFFCURVE",
"52 690 OFFCURVE",
"81 690 CURVE SMOOTH",
"324 690 LINE SMOOTH",
"353 690 OFFCURVE",
"375 668 OFFCURVE",
"375 639 CURVE SMOOTH",
"375 626 LINE SMOOTH",
"375 597 OFFCURVE",
"397 575 OFFCURVE",
"426 575 CURVE SMOOTH",
"439 575 LINE SMOOTH",
"468 575 OFFCURVE",
"490 553 OFFCURVE",
"490 524 CURVE SMOOTH"
);
},
{
closed = 1;
nodes = (
"375 524 LINE SMOOTH",
"375 553 OFFCURVE",
"353 575 OFFCURVE",
"324 575 CURVE SMOOTH",
"196 575 LINE SMOOTH",
"167 575 OFFCURVE",
"145 553 OFFCURVE",
"145 524 CURVE SMOOTH",
"145 166 LINE SMOOTH",
"145 137 OFFCURVE",
"167 115 OFFCURVE",
"196 115 CURVE SMOOTH",
"324 115 LINE SMOOTH",
"353 115 OFFCURVE",
"375 137 OFFCURVE",
"375 166 CURVE SMOOTH"
);
}
);
width = 520;
},
{
hints = (
{
horizontal = 1;
origin = "{0, 12}";
target = "{1, 11}";
type = Stem;
},
{
horizontal = 1;
origin = "{1, 4}";
target = "{0, 19}";
type = Stem;
},
{
origin = "{0, 15}";
target = "{1, 8}";
type = Stem;
},
{
origin = "{1, 0}";
target = "{0, 0}";
type = Stem;
}
);
layerId = "52F3452F-C0C6-4900-9BFE-1786415B207F";
paths = (
{
closed = 1;
nodes = (
"1552 166 LINE SMOOTH",
"1552 137 OFFCURVE",
"1530 115 OFFCURVE",
"1501 115 CURVE SMOOTH",
"1488 115 LINE SMOOTH",
"1459 115 OFFCURVE",
"1437 93 OFFCURVE",
"1437 64 CURVE SMOOTH",
"1437 51 LINE SMOOTH",
"1437 22 OFFCURVE",
"1415 0 OFFCURVE",
"1386 0 CURVE SMOOTH",
"81 0 LINE SMOOTH",
"52 0 OFFCURVE",
"30 22 OFFCURVE",
"30 51 CURVE SMOOTH",
"30 639 LINE SMOOTH",
"30 668 OFFCURVE",
"52 690 OFFCURVE",
"81 690 CURVE SMOOTH",
"1386 690 LINE SMOOTH",
"1415 690 OFFCURVE",
"1437 668 OFFCURVE",
"1437 639 CURVE SMOOTH",
"1437 626 LINE SMOOTH",
"1437 597 OFFCURVE",
"1459 575 OFFCURVE",
"1488 575 CURVE SMOOTH",
"1501 575 LINE SMOOTH",
"1530 575 OFFCURVE",
"1552 553 OFFCURVE",
"1552 524 CURVE SMOOTH"
);
},
{
closed = 1;
nodes = (
"1437 524 LINE SMOOTH",
"1437 553 OFFCURVE",
"1415 575 OFFCURVE",
"1386 575 CURVE SMOOTH",
"196 575 LINE SMOOTH",
"167 575 OFFCURVE",
"145 553 OFFCURVE",
"145 524 CURVE SMOOTH",
"145 166 LINE SMOOTH",
"145 137 OFFCURVE",
"167 115 OFFCURVE",
"196 115 CURVE SMOOTH",
"1386 115 LINE SMOOTH",
"1415 115 OFFCURVE",
"1437 137 OFFCURVE",
"1437 166 CURVE SMOOTH"
);
}
);
width = 1582;
}
);
unicode = 0044;
},
{
glyphname = E;
lastChange = "2024-09-03 14:23:34 +0000";
layers = (
{
hints = (
{
horizontal = 1;
origin = "{0, 8}";
target = "{0, 71}";
type = Stem;
},
{
horizontal = 1;
origin = "{0, 64}";
target = "{0, 56}";
type = Stem;
},
{
horizontal = 1;
origin = "{0, 39}";
target = "{0, 47}";
type = Stem;
},
{
origin = "{0, 68}";
target = "{0, 60}";
type = Stem;
}
);
layerId = "B9294602-EB87-4DCD-A39F-D52598F560AD";
paths = (
{
closed = 1;
nodes = (
"94 115 LINE SMOOTH",
"123 115 OFFCURVE",
"145 93 OFFCURVE",
"145 64 CURVE SMOOTH",
"145 51 LINE SMOOTH",
"145 22 OFFCURVE",
"167 0 OFFCURVE",
"196 0 CURVE SMOOTH",
"439 0 LINE SMOOTH",
"468 0 OFFCURVE",
"490 22 OFFCURVE",
"490 51 CURVE SMOOTH",
"490 64 LINE SMOOTH",
"490 93 OFFCURVE",
"468 115 OFFCURVE",
"439 115 CURVE SMOOTH",
"196 115 LINE SMOOTH",
"167 115 OFFCURVE",
"145 137 OFFCURVE",
"145 166 CURVE SMOOTH",
"145 294 LINE SMOOTH",
"145 323 OFFCURVE",
"167 345 OFFCURVE",
"196 345 CURVE SMOOTH",
"439 345 LINE SMOOTH",
"468 345 OFFCURVE",
"490 367 OFFCURVE",
"490 396 CURVE SMOOTH",
"490 409 LINE SMOOTH",
"490 438 OFFCURVE",
"468 460 OFFCURVE",
"439 460 CURVE SMOOTH",
"196 460 LINE SMOOTH",
"167 460 OFFCURVE",
"145 482 OFFCURVE",
"145 511 CURVE SMOOTH",
"145 524 LINE SMOOTH",
"145 553 OFFCURVE",
"167 575 OFFCURVE",
"196 575 CURVE SMOOTH",
"439 575 LINE SMOOTH",
"468 575 OFFCURVE",
"490 597 OFFCURVE",
"490 626 CURVE SMOOTH",
"490 639 LINE SMOOTH",
"490 668 OFFCURVE",
"468 690 OFFCURVE",
"439 690 CURVE SMOOTH",
"81 690 LINE SMOOTH",
"52 690 OFFCURVE",
"30 668 OFFCURVE",
"30 639 CURVE SMOOTH",
"30 511 LINE SMOOTH",
"30 482 OFFCURVE",
"52 460 OFFCURVE",
"81 460 CURVE SMOOTH",
"94 460 LINE SMOOTH",
"123 460 OFFCURVE",
"145 438 OFFCURVE",
"145 409 CURVE SMOOTH",
"145 396 LINE SMOOTH",
"145 367 OFFCURVE",
"123 345 OFFCURVE",
"94 345 CURVE SMOOTH",
"81 345 LINE SMOOTH",
"52 345 OFFCURVE",
"30 323 OFFCURVE",
"30 294 CURVE SMOOTH",
"30 166 LINE SMOOTH",
"30 137 OFFCURVE",
"52 115 OFFCURVE",
"81 115 CURVE SMOOTH"
);
}
);
width = 520;
},
{
hints = (
{
horizontal = 1;
origin = "{0, 8}";
target = "{0, 71}";
type = Stem;
},
{
horizontal = 1;
origin = "{0, 64}";
target = "{0, 56}";
type = Stem;
},
{
horizontal = 1;
origin = "{0, 39}";
target = "{0, 47}";
type = Stem;
},
{
origin = "{0, 68}";
target = "{0, 60}";
type = Stem;
}
);
layerId = "52F3452F-C0C6-4900-9BFE-1786415B207F";
paths = (
{
closed = 1;
nodes = (
"94 115 LINE SMOOTH",
"123 115 OFFCURVE",
"145 93 OFFCURVE",
"145 64 CURVE SMOOTH",
"145 51 LINE SMOOTH",
"145 22 OFFCURVE",
"167 0 OFFCURVE",
"196 0 CURVE SMOOTH",
"1448 0 LINE SMOOTH",
"1477 0 OFFCURVE",
"1499 22 OFFCURVE",
"1499 51 CURVE SMOOTH",
"1499 64 LINE SMOOTH",
"1499 93 OFFCURVE",
"1477 115 OFFCURVE",
"1448 115 CURVE SMOOTH",
"196 115 LINE SMOOTH",
"167 115 OFFCURVE",
"145 137 OFFCURVE",
"145 166 CURVE SMOOTH",
"145 294 LINE SMOOTH",
"145 323 OFFCURVE",
"167 345 OFFCURVE",
"196 345 CURVE SMOOTH",
"1448 345 LINE SMOOTH",
"1477 345 OFFCURVE",
"1499 367 OFFCURVE",
"1499 396 CURVE SMOOTH",
"1499 409 LINE SMOOTH",
"1499 438 OFFCURVE",
"1477 460 OFFCURVE",
"1448 460 CURVE SMOOTH",
"196 460 LINE SMOOTH",
"167 460 OFFCURVE",
"145 482 OFFCURVE",
"145 511 CURVE SMOOTH",
"145 524 LINE SMOOTH",
"145 553 OFFCURVE",
"167 575 OFFCURVE",
"196 575 CURVE SMOOTH",
"1448 575 LINE SMOOTH",
"1477 575 OFFCURVE",
"1499 597 OFFCURVE",
"1499 626 CURVE SMOOTH",
"1499 639 LINE SMOOTH",
"1499 668 OFFCURVE",
"1477 690 OFFCURVE",
"1448 690 CURVE SMOOTH",
"81 690 LINE SMOOTH",
"52 690 OFFCURVE",
"30 668 OFFCURVE",
"30 639 CURVE SMOOTH",
"30 511 LINE SMOOTH",
"30 482 OFFCURVE",
"52 460 OFFCURVE",
"81 460 CURVE SMOOTH",
"94 460 LINE SMOOTH",
"123 460 OFFCURVE",
"145 438 OFFCURVE",
"145 409 CURVE SMOOTH",
"145 396 LINE SMOOTH",
"145 367 OFFCURVE",
"123 345 OFFCURVE",
"94 345 CURVE SMOOTH",
"81 345 LINE SMOOTH",
"52 345 OFFCURVE",
"30 323 OFFCURVE",
"30 294 CURVE SMOOTH",
"30 166 LINE SMOOTH",
"30 137 OFFCURVE",
"52 115 OFFCURVE",
"81 115 CURVE SMOOTH"
);
}
);
width = 1529;
}
);
unicode = 0045;
},
{
glyphname = F;
lastChange = "2024-09-03 14:23:56 +0000";
layers = (
{
hints = (
{
horizontal = 1;
origin = "{0, 52}";
target = "{0, 44}";
type = Stem;
},
{
horizontal = 1;
origin = "{0, 28}";
target = "{0, 36}";
type = Stem;
},
{
origin = "{0, 55}";
target = "{0, 48}";
type = Stem;
}
);
layerId = "B9294602-EB87-4DCD-A39F-D52598F560AD";
paths = (
{
closed = 1;
nodes = (
"30 51 LINE SMOOTH",
"30 22 OFFCURVE",
"53 0 OFFCURVE",
"83 0 CURVE SMOOTH",
"93 0 LINE SMOOTH",
"123 0 OFFCURVE",
"145 22 OFFCURVE",
"145 51 CURVE SMOOTH",
"145 294 LINE SMOOTH",
"145 323 OFFCURVE",
"168 345 OFFCURVE",
"198 345 CURVE SMOOTH",
"323 345 LINE SMOOTH",
"353 345 OFFCURVE",
"375 367 OFFCURVE",
"375 396 CURVE SMOOTH",
"375 409 LINE SMOOTH",
"375 438 OFFCURVE",
"353 460 OFFCURVE",
"323 460 CURVE SMOOTH",
"198 460 LINE SMOOTH",
"168 460 OFFCURVE",
"145 482 OFFCURVE",
"145 511 CURVE SMOOTH",
"145 524 LINE SMOOTH",
"145 553 OFFCURVE",
"168 575 OFFCURVE",
"198 575 CURVE SMOOTH",
"437 575 LINE SMOOTH",
"467 575 OFFCURVE",
"490 597 OFFCURVE",
"490 626 CURVE SMOOTH",
"490 639 LINE SMOOTH",
"490 668 OFFCURVE",
"467 690 OFFCURVE",
"437 690 CURVE SMOOTH",
"83 690 LINE SMOOTH",
"53 690 OFFCURVE",
"30 668 OFFCURVE",
"30 639 CURVE SMOOTH",
"30 511 LINE SMOOTH",
"30 482 OFFCURVE",
"53 460 OFFCURVE",
"83 460 CURVE SMOOTH",
"93 460 LINE SMOOTH",
"123 460 OFFCURVE",
"145 438 OFFCURVE",
"145 409 CURVE SMOOTH",
"145 396 LINE SMOOTH",
"145 367 OFFCURVE",
"123 345 OFFCURVE",
"93 345 CURVE SMOOTH",
"83 345 LINE SMOOTH",
"53 345 OFFCURVE",
"30 323 OFFCURVE",
"30 294 CURVE SMOOTH"
);
}
);
width = 520;
},
{
hints = (
{
horizontal = 1;
origin = "{0, 52}";
target = "{0, 44}";
type = Stem;
},
{
horizontal = 1;
origin = "{0, 28}";
target = "{0, 36}";
type = Stem;
},
{
origin = "{0, 55}";
target = "{0, 48}";
type = Stem;
}
);
layerId = "52F3452F-C0C6-4900-9BFE-1786415B207F";
paths = (
{
closed = 1;
nodes = (
"30 51 LINE SMOOTH",
"30 22 OFFCURVE",
"53 0 OFFCURVE",
"83 0 CURVE SMOOTH",
"93 0 LINE SMOOTH",
"123 0 OFFCURVE",
"145 22 OFFCURVE",
"145 51 CURVE SMOOTH",
"145 294 LINE SMOOTH",
"145 323 OFFCURVE",
"168 345 OFFCURVE",
"198 345 CURVE SMOOTH",
"1332 345 LINE SMOOTH",
"1362 345 OFFCURVE",
"1384 367 OFFCURVE",
"1384 396 CURVE SMOOTH",
"1384 409 LINE SMOOTH",
"1384 438 OFFCURVE",
"1362 460 OFFCURVE",
"1332 460 CURVE SMOOTH",
"198 460 LINE SMOOTH",
"168 460 OFFCURVE",
"145 482 OFFCURVE",
"145 511 CURVE SMOOTH",
"145 524 LINE SMOOTH",
"145 553 OFFCURVE",
"168 575 OFFCURVE",
"198 575 CURVE SMOOTH",
"1446 575 LINE SMOOTH",
"1476 575 OFFCURVE",
"1499 597 OFFCURVE",
"1499 626 CURVE SMOOTH",
"1499 639 LINE SMOOTH",
"1499 668 OFFCURVE",
"1476 690 OFFCURVE",
"1446 690 CURVE SMOOTH",
"83 690 LINE SMOOTH",
"53 690 OFFCURVE",
"30 668 OFFCURVE",
"30 639 CURVE SMOOTH",
"30 511 LINE SMOOTH",
"30 482 OFFCURVE",
"53 460 OFFCURVE",
"83 460 CURVE SMOOTH",
"93 460 LINE SMOOTH",
"123 460 OFFCURVE",
"145 438 OFFCURVE",
"145 409 CURVE SMOOTH",
"145 396 LINE SMOOTH",
"145 367 OFFCURVE",
"123 345 OFFCURVE",
"93 345 CURVE SMOOTH",
"83 345 LINE SMOOTH",
"53 345 OFFCURVE",
"30 323 OFFCURVE",
"30 294 CURVE SMOOTH"
);
}
);
width = 1529;
}
);
unicode = 0046;
},
{
glyphname = G;
lastChange = "2024-09-03 14:24:06 +0000";
layers = (
{
hints = (
{
horizontal = 1;
origin = "{0, 12}";
target = "{0, 52}";
type = Stem;
},
{
horizontal = 1;
origin = "{0, 60}";
target = "{0, 68}";
type = Stem;
},
{
origin = "{0, 79}";
target = "{0, 72}";
type = Stem;
},
{
origin = "{0, 48}";
target = "{0, 64}";
type = Stem;
},
{
horizontal = 1;
origin = "{0, 43}";
target = "{0, 35}";
type = Stem;
}
);
layerId = "B9294602-EB87-4DCD-A39F-D52598F560AD";
paths = (
{
closed = 1;
nodes = (
"30 166 LINE SMOOTH",
"30 137 OFFCURVE",
"52 115 OFFCURVE",
"81 115 CURVE SMOOTH",
"94 115 LINE SMOOTH",
"123 115 OFFCURVE",
"145 93 OFFCURVE",
"145 64 CURVE SMOOTH",
"145 51 LINE SMOOTH",
"145 22 OFFCURVE",
"167 0 OFFCURVE",
"196 0 CURVE SMOOTH",
"323 0 LINE SMOOTH",
"352 0 OFFCURVE",
"375 22 OFFCURVE",
"375 51 CURVE SMOOTH",
"375 64 LINE SMOOTH",
"375 93 OFFCURVE",
"397 115 OFFCURVE",
"426 115 CURVE SMOOTH",
"439 115 LINE SMOOTH",
"468 115 OFFCURVE",
"490 137 OFFCURVE",
"490 166 CURVE SMOOTH",
"490 294 LINE SMOOTH",
"490 323 OFFCURVE",
"468 345 OFFCURVE",
"439 345 CURVE SMOOTH",
"426 345 LINE SMOOTH",
"397 345 OFFCURVE",
"375 367 OFFCURVE",
"375 396 CURVE SMOOTH",
"375 409 LINE SMOOTH",
"375 438 OFFCURVE",
"353 460 OFFCURVE",
"324 460 CURVE SMOOTH",
"311 460 LINE SMOOTH",
"282 460 OFFCURVE",
"260 438 OFFCURVE",
"260 409 CURVE SMOOTH",
"260 396 LINE SMOOTH",
"260 367 OFFCURVE",
"282 345 OFFCURVE",
"311 345 CURVE SMOOTH",
"324 345 LINE SMOOTH",
"353 345 OFFCURVE",
"375 323 OFFCURVE",
"375 294 CURVE SMOOTH",
"375 166 LINE SMOOTH",
"375 137 OFFCURVE",
"353 115 OFFCURVE",
"324 115 CURVE SMOOTH",
"196 115 LINE SMOOTH",
"167 115 OFFCURVE",
"145 137 OFFCURVE",
"145 166 CURVE SMOOTH",
"145 524 LINE SMOOTH",
"145 553 OFFCURVE",
"167 575 OFFCURVE",
"196 575 CURVE SMOOTH",
"439 575 LINE SMOOTH",
"468 575 OFFCURVE",
"490 597 OFFCURVE",
"490 626 CURVE SMOOTH",
"490 639 LINE SMOOTH",
"490 668 OFFCURVE",
"467 690 OFFCURVE",
"438 690 CURVE SMOOTH",
"196 690 LINE SMOOTH",
"167 690 OFFCURVE",
"145 668 OFFCURVE",
"145 639 CURVE SMOOTH",
"145 626 LINE SMOOTH",
"145 597 OFFCURVE",
"123 575 OFFCURVE",
"94 575 CURVE SMOOTH",
"81 575 LINE SMOOTH",
"52 575 OFFCURVE",
"30 553 OFFCURVE",
"30 524 CURVE SMOOTH"
);
}
);
width = 520;
},
{
hints = (
{
horizontal = 1;
origin = "{0, 12}";
target = "{0, 52}";
type = Stem;
},
{
horizontal = 1;
origin = "{0, 44}";
target = "{0, 36}";
type = Stem;
},
{
horizontal = 1;
origin = "{0, 60}";
target = "{0, 68}";
type = Stem;
},
{
origin = "{0, 79}";
target = "{0, 72}";
type = Stem;
},
{
origin = "{0, 48}";
target = "{0, 64}";
type = Stem;
}
);
layerId = "52F3452F-C0C6-4900-9BFE-1786415B207F";
paths = (
{
closed = 1;
nodes = (
"30 166 LINE SMOOTH",
"30 137 OFFCURVE",
"52 115 OFFCURVE",
"81 115 CURVE SMOOTH",
"94 115 LINE SMOOTH",
"123 115 OFFCURVE",
"145 93 OFFCURVE",
"145 64 CURVE SMOOTH",
"145 51 LINE SMOOTH",
"145 22 OFFCURVE",
"167 0 OFFCURVE",
"196 0 CURVE SMOOTH",
"1332 0 LINE SMOOTH",
"1361 0 OFFCURVE",
"1384 22 OFFCURVE",
"1384 51 CURVE SMOOTH",
"1384 64 LINE SMOOTH",
"1384 93 OFFCURVE",
"1406 115 OFFCURVE",
"1435 115 CURVE SMOOTH",
"1448 115 LINE SMOOTH",
"1477 115 OFFCURVE",
"1499 137 OFFCURVE",
"1499 166 CURVE SMOOTH",
"1499 294 LINE SMOOTH",
"1499 323 OFFCURVE",
"1477 345 OFFCURVE",
"1448 345 CURVE SMOOTH",
"1435 345 LINE SMOOTH",
"1406 345 OFFCURVE",
"1384 367 OFFCURVE",
"1384 396 CURVE SMOOTH",
"1384 409 LINE SMOOTH",
"1384 438 OFFCURVE",
"1362 460 OFFCURVE",
"1333 460 CURVE SMOOTH",
"861 460 LINE SMOOTH",
"832 460 OFFCURVE",
"810 438 OFFCURVE",
"810 409 CURVE SMOOTH",
"810 396 LINE SMOOTH",
"810 367 OFFCURVE",
"832 345 OFFCURVE",
"861 345 CURVE SMOOTH",
"1333 345 LINE SMOOTH",
"1362 345 OFFCURVE",
"1384 323 OFFCURVE",
"1384 294 CURVE SMOOTH",
"1384 166 LINE SMOOTH",
"1384 137 OFFCURVE",
"1362 115 OFFCURVE",
"1333 115 CURVE SMOOTH",
"196 115 LINE SMOOTH",
"167 115 OFFCURVE",
"145 137 OFFCURVE",
"145 166 CURVE SMOOTH",
"145 524 LINE SMOOTH",
"145 553 OFFCURVE",
"167 575 OFFCURVE",
"196 575 CURVE SMOOTH",
"1448 575 LINE SMOOTH",
"1477 575 OFFCURVE",
"1499 597 OFFCURVE",
"1499 626 CURVE SMOOTH",
"1499 639 LINE SMOOTH",
"1499 668 OFFCURVE",
"1476 690 OFFCURVE",
"1447 690 CURVE SMOOTH",
"196 690 LINE SMOOTH",
"167 690 OFFCURVE",
"145 668 OFFCURVE",
"145 639 CURVE SMOOTH",
"145 626 LINE SMOOTH",
"145 597 OFFCURVE",
"123 575 OFFCURVE",
"94 575 CURVE SMOOTH",
"81 575 LINE SMOOTH",
"52 575 OFFCURVE",
"30 553 OFFCURVE",
"30 524 CURVE SMOOTH"
);
}
);
width = 1529;
}
);
unicode = 0047;
},
{
glyphname = H;
lastChange = "2024-09-03 14:20:35 +0000";
layers = (
{
hints = (
{
horizontal = 1;
origin = "{0, 48}";
target = "{0, 24}";
type = Stem;
},
{
origin = "{0, 36}";
target = "{0, 44}";
type = Stem;
},
{
origin = "{0, 52}";
target = "{0, 60}";
type = Stem;
}
);
layerId = "B9294602-EB87-4DCD-A39F-D52598F560AD";
paths = (
{
closed = 1;
nodes = (
"426 690 LINE SMOOTH",
"397 690 OFFCURVE",
"375 668 OFFCURVE",
"375 639 CURVE SMOOTH",
"375 511 LINE SMOOTH",
"375 482 OFFCURVE",
"353 460 OFFCURVE",
"324 460 CURVE SMOOTH",
"196 460 LINE SMOOTH",
"167 460 OFFCURVE",
"145 482 OFFCURVE",
"145 511 CURVE SMOOTH",
"145 639 LINE SMOOTH",
"145 668 OFFCURVE",
"123 690 OFFCURVE",
"94 690 CURVE SMOOTH",
"81 690 LINE SMOOTH",
"52 690 OFFCURVE",
"30 668 OFFCURVE",
"30 639 CURVE SMOOTH",
"30 511 LINE SMOOTH",
"30 482 OFFCURVE",
"52 460 OFFCURVE",
"81 460 CURVE SMOOTH",
"94 460 LINE SMOOTH",
"123 460 OFFCURVE",
"145 438 OFFCURVE",
"145 409 CURVE SMOOTH",
"145 396 LINE SMOOTH",
"145 367 OFFCURVE",
"123 345 OFFCURVE",
"94 345 CURVE SMOOTH",
"81 345 LINE SMOOTH",
"52 345 OFFCURVE",
"30 323 OFFCURVE",
"30 294 CURVE SMOOTH",
"30 51 LINE SMOOTH",
"30 22 OFFCURVE",
"52 0 OFFCURVE",
"81 0 CURVE SMOOTH",
"94 0 LINE SMOOTH",
"123 0 OFFCURVE",
"145 22 OFFCURVE",
"145 51 CURVE SMOOTH",
"145 294 LINE SMOOTH",
"145 323 OFFCURVE",
"167 345 OFFCURVE",
"196 345 CURVE SMOOTH",
"324 345 LINE SMOOTH",
"353 345 OFFCURVE",
"375 323 OFFCURVE",
"375 294 CURVE SMOOTH",
"375 51 LINE SMOOTH",
"375 22 OFFCURVE",
"397 0 OFFCURVE",
"426 0 CURVE SMOOTH",
"439 0 LINE SMOOTH",
"468 0 OFFCURVE",
"490 22 OFFCURVE",
"490 51 CURVE SMOOTH",
"490 639 LINE SMOOTH",
"490 668 OFFCURVE",
"468 690 OFFCURVE",
"439 690 CURVE SMOOTH"
);
}
);
width = 520;
},
{
hints = (
{
horizontal = 1;
origin = "{0, 48}";
target = "{0, 24}";
type = Stem;
},
{
origin = "{0, 36}";
target = "{0, 44}";
type = Stem;
},
{
origin = "{0, 52}";
target = "{0, 60}";
type = Stem;
}
);
layerId = "52F3452F-C0C6-4900-9BFE-1786415B207F";
paths = (
{
closed = 1;
nodes = (
"1498 690 LINE SMOOTH",
"1469 690 OFFCURVE",
"1447 668 OFFCURVE",
"1447 639 CURVE SMOOTH",
"1447 511 LINE SMOOTH",
"1447 482 OFFCURVE",
"1425 460 OFFCURVE",
"1396 460 CURVE SMOOTH",
"196 460 LINE SMOOTH",
"167 460 OFFCURVE",
"145 482 OFFCURVE",
"145 511 CURVE SMOOTH",
"145 639 LINE SMOOTH",
"145 668 OFFCURVE",
"123 690 OFFCURVE",
"94 690 CURVE SMOOTH",
"81 690 LINE SMOOTH",
"52 690 OFFCURVE",
"30 668 OFFCURVE",
"30 639 CURVE SMOOTH",
"30 511 LINE SMOOTH",
"30 482 OFFCURVE",
"52 460 OFFCURVE",
"81 460 CURVE SMOOTH",
"94 460 LINE SMOOTH",
"123 460 OFFCURVE",
"145 438 OFFCURVE",
"145 409 CURVE SMOOTH",
"145 396 LINE SMOOTH",
"145 367 OFFCURVE",
"123 345 OFFCURVE",
"94 345 CURVE SMOOTH",
"81 345 LINE SMOOTH",
"52 345 OFFCURVE",
"30 323 OFFCURVE",
"30 294 CURVE SMOOTH",
"30 51 LINE SMOOTH",
"30 22 OFFCURVE",
"52 0 OFFCURVE",
"81 0 CURVE SMOOTH",
"94 0 LINE SMOOTH",
"123 0 OFFCURVE",
"145 22 OFFCURVE",
"145 51 CURVE SMOOTH",
"145 294 LINE SMOOTH",
"145 323 OFFCURVE",
"167 345 OFFCURVE",
"196 345 CURVE SMOOTH",
"1396 345 LINE SMOOTH",
"1425 345 OFFCURVE",
"1447 323 OFFCURVE",
"1447 294 CURVE SMOOTH",
"1447 51 LINE SMOOTH",
"1447 22 OFFCURVE",
"1469 0 OFFCURVE",
"1498 0 CURVE SMOOTH",
"1511 0 LINE SMOOTH",
"1540 0 OFFCURVE",
"1562 22 OFFCURVE",
"1562 51 CURVE SMOOTH",
"1562 639 LINE SMOOTH",
"1562 668 OFFCURVE",
"1540 690 OFFCURVE",
"1511 690 CURVE SMOOTH"
);
}
);
width = 1592;
}
);
unicode = 0048;
},
{
glyphname = I;
lastChange = "2024-09-03 14:24:23 +0000";
layers = (
{
hints = (
{
horizontal = 1;
origin = "{0, 47}";
target = "{0, 40}";
type = Stem;
},
{
horizontal = 1;
origin = "{0, 31}";
target = "{0, 23}";
type = Stem;
},
{
origin = "{0, 36}";
target = "{0, 12}";
type = Stem;
}
);
layerId = "B9294602-EB87-4DCD-A39F-D52598F560AD";
paths = (
{
closed = 1;
nodes = (
"439 0 LINE",
"469 0 OFFCURVE",
"490 22 OFFCURVE",
"490 51 CURVE SMOOTH",
"490 64 LINE SMOOTH",
"490 93 OFFCURVE",
"468 115 OFFCURVE",
"440 115 CURVE SMOOTH",
"369 115 LINE SMOOTH",
"340 115 OFFCURVE",
"318 137 OFFCURVE",
"318 166 CURVE SMOOTH",
"318 524 LINE SMOOTH",
"318 553 OFFCURVE",
"340 575 OFFCURVE",
"369 575 CURVE SMOOTH",
"440 575 LINE SMOOTH",
"468 575 OFFCURVE",
"490 597 OFFCURVE",
"490 626 CURVE SMOOTH",
"490 639 LINE SMOOTH",
"490 668 OFFCURVE",
"468 690 OFFCURVE",
"440 690 CURVE SMOOTH",
"80 690 LINE SMOOTH",
"52 690 OFFCURVE",
"30 668 OFFCURVE",
"30 639 CURVE SMOOTH",
"30 626 LINE SMOOTH",
"30 597 OFFCURVE",
"52 575 OFFCURVE",
"79 575 CURVE SMOOTH",
"152 575 LINE SMOOTH",
"181 575 OFFCURVE",
"203 553 OFFCURVE",
"203 524 CURVE SMOOTH",
"203 166 LINE SMOOTH",
"203 137 OFFCURVE",
"181 115 OFFCURVE",
"152 115 CURVE SMOOTH",
"79 115 LINE SMOOTH",
"51 115 OFFCURVE",
"30 93 OFFCURVE",
"30 64 CURVE SMOOTH",
"30 51 LINE SMOOTH",
"30 22 OFFCURVE",
"50 0 OFFCURVE",
"80 0 CURVE"
);
}
);
width = 520;
},
{
hints = (
{
horizontal = 1;
origin = "{0, 47}";
target = "{0, 40}";
type = Stem;
},
{
horizontal = 1;
origin = "{0, 16}";
target = "{0, 24}";
type = Stem;
},
{
origin = "{0, 36}";
target = "{0, 12}";
type = Stem;
}
);
layerId = "52F3452F-C0C6-4900-9BFE-1786415B207F";
paths = (
{
closed = 1;
nodes = (
"1448 0 LINE",
"1478 0 OFFCURVE",
"1499 22 OFFCURVE",
"1499 51 CURVE SMOOTH",
"1499 64 LINE SMOOTH",
"1499 93 OFFCURVE",
"1477 115 OFFCURVE",
"1449 115 CURVE SMOOTH",
"859 115 LINE SMOOTH",
"830 115 OFFCURVE",
"808 137 OFFCURVE",
"808 166 CURVE SMOOTH",
"808 524 LINE SMOOTH",
"808 553 OFFCURVE",
"830 575 OFFCURVE",
"859 575 CURVE SMOOTH",
"1449 575 LINE SMOOTH",
"1477 575 OFFCURVE",
"1499 597 OFFCURVE",
"1499 626 CURVE SMOOTH",
"1499 639 LINE SMOOTH",
"1499 668 OFFCURVE",
"1477 690 OFFCURVE",
"1449 690 CURVE SMOOTH",
"80 690 LINE SMOOTH",
"52 690 OFFCURVE",
"30 668 OFFCURVE",
"30 639 CURVE SMOOTH",
"30 626 LINE SMOOTH",
"30 597 OFFCURVE",
"52 575 OFFCURVE",
"79 575 CURVE SMOOTH",
"642 575 LINE SMOOTH",
"671 575 OFFCURVE",
"693 553 OFFCURVE",
"693 524 CURVE SMOOTH",
"693 166 LINE SMOOTH",
"693 137 OFFCURVE",
"671 115 OFFCURVE",
"642 115 CURVE SMOOTH",
"79 115 LINE SMOOTH",
"51 115 OFFCURVE",
"30 93 OFFCURVE",
"30 64 CURVE SMOOTH",
"30 51 LINE SMOOTH",
"30 22 OFFCURVE",
"50 0 OFFCURVE",
"80 0 CURVE"
);
}
);
width = 1529;
}
);
unicode = 0049;
},
{
glyphname = J;
lastChange = "2024-09-03 14:20:35 +0000";
layers = (
{
hints = (
{
horizontal = 1;
origin = "{0, 32}";
target = "{0, 40}";
type = Stem;
},
{
origin = "{0, 20}";
target = "{0, 28}";
type = Stem;
},
{
origin = "{0, 36}";
target = "{0, 44}";
type = Stem;
}
);
layerId = "B9294602-EB87-4DCD-A39F-D52598F560AD";
paths = (
{
closed = 1;
nodes = (
"426 690 LINE SMOOTH",
"397 690 OFFCURVE",
"375 668 OFFCURVE",
"375 639 CURVE SMOOTH",
"375 166 LINE SMOOTH",
"375 137 OFFCURVE",
"353 115 OFFCURVE",
"324 115 CURVE SMOOTH",
"196 115 LINE SMOOTH",
"167 115 OFFCURVE",
"145 137 OFFCURVE",
"145 166 CURVE SMOOTH",
"145 294 LINE SMOOTH",
"145 323 OFFCURVE",
"123 345 OFFCURVE",
"94 345 CURVE SMOOTH",
"81 345 LINE SMOOTH",
"52 345 OFFCURVE",
"30 323 OFFCURVE",
"30 294 CURVE SMOOTH",
"30 166 LINE SMOOTH",
"30 137 OFFCURVE",
"52 115 OFFCURVE",
"81 115 CURVE SMOOTH",
"94 115 LINE SMOOTH",
"123 115 OFFCURVE",
"145 93 OFFCURVE",
"145 64 CURVE SMOOTH",
"145 51 LINE SMOOTH",
"145 22 OFFCURVE",
"167 0 OFFCURVE",
"196 0 CURVE SMOOTH",
"324 0 LINE SMOOTH",
"353 0 OFFCURVE",
"375 22 OFFCURVE",
"375 51 CURVE SMOOTH",
"375 64 LINE SMOOTH",
"375 93 OFFCURVE",
"397 115 OFFCURVE",
"426 115 CURVE SMOOTH",
"439 115 LINE SMOOTH",
"468 115 OFFCURVE",
"490 137 OFFCURVE",
"490 166 CURVE SMOOTH",
"490 639 LINE SMOOTH",
"490 668 OFFCURVE",
"468 690 OFFCURVE",
"439 690 CURVE SMOOTH"
);
}
);
width = 520;
},
{
hints = (
{
horizontal = 1;
origin = "{0, 32}";
target = "{0, 40}";
type = Stem;
},
{
origin = "{0, 20}";
target = "{0, 28}";
type = Stem;
},
{
origin = "{0, 36}";
target = "{0, 44}";
type = Stem;
}
);
layerId = "52F3452F-C0C6-4900-9BFE-1786415B207F";
paths = (
{
closed = 1;
nodes = (
"1435 690 LINE SMOOTH",
"1406 690 OFFCURVE",
"1384 668 OFFCURVE",
"1384 639 CURVE SMOOTH",
"1384 166 LINE SMOOTH",
"1384 137 OFFCURVE",
"1362 115 OFFCURVE",
"1333 115 CURVE SMOOTH",
"196 115 LINE SMOOTH",
"167 115 OFFCURVE",
"145 137 OFFCURVE",
"145 166 CURVE SMOOTH",
"145 294 LINE SMOOTH",
"145 323 OFFCURVE",
"123 345 OFFCURVE",
"94 345 CURVE SMOOTH",
"81 345 LINE SMOOTH",
"52 345 OFFCURVE",
"30 323 OFFCURVE",
"30 294 CURVE SMOOTH",
"30 166 LINE SMOOTH",
"30 137 OFFCURVE",
"52 115 OFFCURVE",
"81 115 CURVE SMOOTH",
"94 115 LINE SMOOTH",
"123 115 OFFCURVE",
"145 93 OFFCURVE",
"145 64 CURVE SMOOTH",
"145 51 LINE SMOOTH",
"145 22 OFFCURVE",
"167 0 OFFCURVE",
"196 0 CURVE SMOOTH",
"1333 0 LINE SMOOTH",
"1362 0 OFFCURVE",
"1384 22 OFFCURVE",
"1384 51 CURVE SMOOTH",
"1384 64 LINE SMOOTH",
"1384 93 OFFCURVE",
"1406 115 OFFCURVE",
"1435 115 CURVE SMOOTH",
"1448 115 LINE SMOOTH",
"1477 115 OFFCURVE",
"1499 137 OFFCURVE",
"1499 166 CURVE SMOOTH",
"1499 639 LINE SMOOTH",
"1499 668 OFFCURVE",
"1477 690 OFFCURVE",
"1448 690 CURVE SMOOTH"
);
}
);
width = 1529;
}
);
unicode = 004A;
},
{
glyphname = K;
lastChange = "2024-09-03 14:25:24 +0000";
layers = (
{
hints = (
{
horizontal = 1;
origin = "{0, 36}";
target = "{0, 28}";
type = Stem;
},
{
origin = "{0, 63}";
target = "{0, 56}";
type = Stem;
},
{
origin = "{0, 47}";
place = "{375, 115}";
type = Stem;
}
);
layerId = "B9294602-EB87-4DCD-A39F-D52598F560AD";
paths = (
{
closed = 1;
nodes = (
"30 639 LINE SMOOTH",
"30 668 OFFCURVE",
"52 690 OFFCURVE",
"81 690 CURVE SMOOTH",
"94 690 LINE SMOOTH",
"123 690 OFFCURVE",
"145 668 OFFCURVE",
"145 639 CURVE SMOOTH",
"145 510 LINE SMOOTH",
"145 481 OFFCURVE",
"167 459 OFFCURVE",
"196 459 CURVE SMOOTH",
"324 459 LINE SMOOTH",
"353 459 OFFCURVE",
"375 480 OFFCURVE",
"375 509 CURVE SMOOTH",
"375 639 LINE SMOOTH",
"375 668 OFFCURVE",
"397 690 OFFCURVE",
"426 690 CURVE SMOOTH",
"439 690 LINE SMOOTH",
"468 690 OFFCURVE",
"490 668 OFFCURVE",
"490 639 CURVE SMOOTH",
"490 509 LINE SMOOTH",
"490 480 OFFCURVE",
"468 460 OFFCURVE",
"439 460 CURVE SMOOTH",
"426 460 LINE SMOOTH",
"397 460 OFFCURVE",
"375 436 OFFCURVE",
"375 407 CURVE SMOOTH",
"375 395 LINE SMOOTH",
"375 366 OFFCURVE",
"397 345 OFFCURVE",
"426 345 CURVE SMOOTH",
"439 345 LINE SMOOTH",
"468 345 OFFCURVE",
"490 322 OFFCURVE",
"490 293 CURVE SMOOTH",
"490 51 LINE SMOOTH",
"490 22 OFFCURVE",
"468 0 OFFCURVE",
"439 0 CURVE SMOOTH",
"426 0 LINE SMOOTH",
"397 0 OFFCURVE",
"375 22 OFFCURVE",
"375 51 CURVE SMOOTH",
"375 293 LINE SMOOTH",
"375 322 OFFCURVE",
"353 344 OFFCURVE",
"324 344 CURVE SMOOTH",
"196 344 LINE SMOOTH",
"167 344 OFFCURVE",
"145 322 OFFCURVE",
"145 293 CURVE SMOOTH",
"145 51 LINE SMOOTH",
"145 22 OFFCURVE",
"123 0 OFFCURVE",
"94 0 CURVE SMOOTH",
"81 0 LINE SMOOTH",
"52 0 OFFCURVE",
"30 22 OFFCURVE",
"30 51 CURVE SMOOTH"
);
}
);
width = 520;
},
{
hints = (
{
horizontal = 1;
origin = "{0, 36}";
target = "{0, 28}";
type = Stem;
},
{
origin = "{0, 63}";
target = "{0, 8}";
type = Stem;
},
{
origin = "{0, 47}";
target = "{0, 24}";
type = Stem;
}
);
layerId = "52F3452F-C0C6-4900-9BFE-1786415B207F";
paths = (
{
closed = 1;
nodes = (
"30 639 LINE SMOOTH",
"30 668 OFFCURVE",
"52 690 OFFCURVE",
"81 690 CURVE SMOOTH",
"94 690 LINE SMOOTH",
"123 690 OFFCURVE",
"145 668 OFFCURVE",
"145 639 CURVE SMOOTH",
"145 510 LINE SMOOTH",
"145 481 OFFCURVE",
"167 459 OFFCURVE",
"196 459 CURVE SMOOTH",
"1333 459 LINE SMOOTH",
"1362 459 OFFCURVE",
"1384 480 OFFCURVE",
"1384 509 CURVE SMOOTH",
"1384 639 LINE SMOOTH",
"1384 668 OFFCURVE",
"1406 690 OFFCURVE",
"1435 690 CURVE SMOOTH",
"1448 690 LINE SMOOTH",
"1477 690 OFFCURVE",
"1499 668 OFFCURVE",
"1499 639 CURVE SMOOTH",
"1499 509 LINE SMOOTH",
"1499 480 OFFCURVE",
"1477 460 OFFCURVE",
"1448 460 CURVE SMOOTH",
"1435 460 LINE SMOOTH",
"1406 460 OFFCURVE",
"1384 436 OFFCURVE",
"1384 407 CURVE SMOOTH",
"1384 395 LINE SMOOTH",
"1384 366 OFFCURVE",
"1406 345 OFFCURVE",
"1435 345 CURVE SMOOTH",
"1448 345 LINE SMOOTH",
"1477 345 OFFCURVE",
"1499 322 OFFCURVE",
"1499 293 CURVE SMOOTH",
"1499 51 LINE SMOOTH",
"1499 22 OFFCURVE",
"1477 0 OFFCURVE",
"1448 0 CURVE SMOOTH",
"1435 0 LINE SMOOTH",
"1406 0 OFFCURVE",
"1384 22 OFFCURVE",
"1384 51 CURVE SMOOTH",
"1384 293 LINE SMOOTH",
"1384 322 OFFCURVE",
"1362 344 OFFCURVE",
"1333 344 CURVE SMOOTH",
"196 344 LINE SMOOTH",
"167 344 OFFCURVE",
"145 322 OFFCURVE",
"145 293 CURVE SMOOTH",
"145 51 LINE SMOOTH",
"145 22 OFFCURVE",
"123 0 OFFCURVE",
"94 0 CURVE SMOOTH",
"81 0 LINE SMOOTH",
"52 0 OFFCURVE",
"30 22 OFFCURVE",
"30 51 CURVE SMOOTH"
);
}
);
width = 1529;
}
);
unicode = 004B;
},
{
glyphname = L;
lastChange = "2024-09-03 14:25:42 +0000";
layers = (
{
hints = (
{
origin = "{0, 19}";
target = "{0, 28}";
type = Stem;
},
{
horizontal = 1;
origin = "{0, 8}";
target = "{0, 31}";
type = Stem;
}
);
layerId = "B9294602-EB87-4DCD-A39F-D52598F560AD";
paths = (
{
closed = 1;
nodes = (
"439 115 LINE SMOOTH",
"468 115 OFFCURVE",
"490 93 OFFCURVE",
"490 64 CURVE SMOOTH",
"490 51 LINE SMOOTH",
"490 22 OFFCURVE",
"468 0 OFFCURVE",
"439 0 CURVE SMOOTH",
"195 0 LINE SMOOTH",
"166 0 OFFCURVE",
"145 22 OFFCURVE",
"145 51 CURVE SMOOTH",
"145 64 LINE SMOOTH",
"145 93 OFFCURVE",
"124 115 OFFCURVE",
"95 115 CURVE SMOOTH",
"80 115 LINE SMOOTH",
"51 115 OFFCURVE",
"30 137 OFFCURVE",
"30 166 CURVE SMOOTH",
"30 639 LINE SMOOTH",
"30 668 OFFCURVE",
"51 690 OFFCURVE",
"80 690 CURVE SMOOTH",
"95 690 LINE SMOOTH",
"124 690 OFFCURVE",
"145 668 OFFCURVE",
"145 639 CURVE SMOOTH",
"145 166 LINE SMOOTH",
"145 137 OFFCURVE",
"166 115 OFFCURVE",
"195 115 CURVE SMOOTH"
);
}
);
width = 520;
},
{
hints = (
{
horizontal = 1;
origin = "{0, 8}";
target = "{0, 0}";
type = Stem;
},
{
origin = "{0, 20}";
target = "{0, 28}";
type = Stem;
}
);
layerId = "52F3452F-C0C6-4900-9BFE-1786415B207F";
paths = (
{
closed = 1;
nodes = (
"1448 115 LINE SMOOTH",
"1477 115 OFFCURVE",
"1499 93 OFFCURVE",
"1499 64 CURVE SMOOTH",
"1499 51 LINE SMOOTH",
"1499 22 OFFCURVE",
"1477 0 OFFCURVE",
"1448 0 CURVE SMOOTH",
"195 0 LINE SMOOTH",
"166 0 OFFCURVE",
"145 22 OFFCURVE",
"145 51 CURVE SMOOTH",
"145 64 LINE SMOOTH",
"145 93 OFFCURVE",
"124 115 OFFCURVE",
"95 115 CURVE SMOOTH",
"80 115 LINE SMOOTH",
"51 115 OFFCURVE",
"30 137 OFFCURVE",
"30 166 CURVE SMOOTH",
"30 639 LINE SMOOTH",
"30 668 OFFCURVE",
"51 690 OFFCURVE",
"80 690 CURVE SMOOTH",
"95 690 LINE SMOOTH",
"124 690 OFFCURVE",
"145 668 OFFCURVE",
"145 639 CURVE SMOOTH",
"145 166 LINE SMOOTH",
"145 137 OFFCURVE",
"166 115 OFFCURVE",
"195 115 CURVE SMOOTH"
);
}
);
width = 1529;
}
);
unicode = 004C;
},
{
glyphname = M;
lastChange = "2024-09-03 14:26:21 +0000";
layers = (
{
hints = (
{
origin = "{0, 79}";
target = "{0, 72}";
type = Stem;
},
{
origin = "{0, 63}";
target = "{0, 56}";
type = Stem;
},
{
origin = "{0, 47}";
target = "{0, 40}";
type = Stem;
},
{
horizontal = 1;
origin = "{0, 51}";
target = "{0, 28}";
type = Stem;
}
);
layerId = "B9294602-EB87-4DCD-A39F-D52598F560AD";
paths = (
{
closed = 1;
nodes = (
"30 524 LINE SMOOTH",
"30 553 OFFCURVE",
"51 575 OFFCURVE",
"80 575 CURVE SMOOTH",
"95 575 LINE SMOOTH",
"124 575 OFFCURVE",
"145 597 OFFCURVE",
"145 626 CURVE SMOOTH",
"145 639 LINE SMOOTH",
"145 668 OFFCURVE",
"166 690 OFFCURVE",
"195 690 CURVE SMOOTH",
"210 690 LINE SMOOTH",
"239 690 OFFCURVE",
"260 668 OFFCURVE",
"260 639 CURVE SMOOTH",
"260 626 LINE SMOOTH",
"260 597 OFFCURVE",
"281 575 OFFCURVE",
"310 575 CURVE SMOOTH",
"325 575 LINE SMOOTH",
"354 575 OFFCURVE",
"375 597 OFFCURVE",
"375 626 CURVE SMOOTH",
"375 639 LINE SMOOTH",
"375 668 OFFCURVE",
"396 690 OFFCURVE",
"425 690 CURVE SMOOTH",
"440 690 LINE SMOOTH",
"469 690 OFFCURVE",
"490 668 OFFCURVE",
"490 639 CURVE SMOOTH",
"490 626 LINE SMOOTH",
"490 597 OFFCURVE",
"511 575 OFFCURVE",
"540 575 CURVE SMOOTH",
"555 575 LINE SMOOTH",
"584 575 OFFCURVE",
"605 553 OFFCURVE",
"605 524 CURVE SMOOTH",
"605 51 LINE SMOOTH",
"605 22 OFFCURVE",
"584 0 OFFCURVE",
"555 0 CURVE SMOOTH",
"540 0 LINE SMOOTH",
"511 0 OFFCURVE",
"490 22 OFFCURVE",
"490 51 CURVE SMOOTH",
"490 524 LINE SMOOTH",
"490 553 OFFCURVE",
"469 575 OFFCURVE",
"440 575 CURVE SMOOTH",
"425 575 LINE SMOOTH",
"396 575 OFFCURVE",
"375 553 OFFCURVE",
"375 524 CURVE SMOOTH",
"375 51 LINE SMOOTH",
"375 22 OFFCURVE",
"354 0 OFFCURVE",
"325 0 CURVE SMOOTH",
"310 0 LINE SMOOTH",
"281 0 OFFCURVE",
"260 22 OFFCURVE",
"260 51 CURVE SMOOTH",
"260 524 LINE SMOOTH",
"260 553 OFFCURVE",
"239 575 OFFCURVE",
"210 575 CURVE SMOOTH",
"195 575 LINE SMOOTH",
"166 575 OFFCURVE",
"145 553 OFFCURVE",
"145 524 CURVE SMOOTH",
"145 51 LINE SMOOTH",
"145 22 OFFCURVE",
"124 0 OFFCURVE",
"95 0 CURVE SMOOTH",
"80 0 LINE SMOOTH",
"51 0 OFFCURVE",
"30 22 OFFCURVE",
"30 51 CURVE SMOOTH"
);
}
);
width = 635;
},
{
hints = (
{
origin = "{0, 64}";
target = "{0, 56}";
type = Stem;
},
{
origin = "{0, 48}";
target = "{0, 40}";
type = Stem;
},
{
origin = "{0, 0}";
target = "{0, 72}";
type = Stem;
},
{
horizontal = 1;
origin = "{0, 51}";
target = "{0, 11}";
type = Stem;
}
);
layerId = "52F3452F-C0C6-4900-9BFE-1786415B207F";
paths = (
{
closed = 1;
nodes = (
"30 524 LINE SMOOTH",
"30 553 OFFCURVE",
"51 575 OFFCURVE",
"80 575 CURVE SMOOTH",
"95 575 LINE SMOOTH",
"124 575 OFFCURVE",
"145 597 OFFCURVE",
"145 626 CURVE SMOOTH",
"145 639 LINE SMOOTH",
"145 668 OFFCURVE",
"166 690 OFFCURVE",
"195 690 CURVE SMOOTH",
"657 690 LINE SMOOTH",
"686 690 OFFCURVE",
"707 668 OFFCURVE",
"707 639 CURVE SMOOTH",
"707 626 LINE SMOOTH",
"707 597 OFFCURVE",
"728 575 OFFCURVE",
"757 575 CURVE SMOOTH",
"772 575 LINE SMOOTH",
"801 575 OFFCURVE",
"822 597 OFFCURVE",
"822 626 CURVE SMOOTH",
"822 639 LINE SMOOTH",
"822 668 OFFCURVE",
"843 690 OFFCURVE",
"872 690 CURVE SMOOTH",
"1334 690 LINE SMOOTH",
"1363 690 OFFCURVE",
"1384 668 OFFCURVE",
"1384 639 CURVE SMOOTH",
"1384 626 LINE SMOOTH",
"1384 597 OFFCURVE",
"1405 575 OFFCURVE",
"1434 575 CURVE SMOOTH",
"1449 575 LINE SMOOTH",
"1478 575 OFFCURVE",
"1499 553 OFFCURVE",
"1499 524 CURVE SMOOTH",
"1499 51 LINE SMOOTH",
"1499 22 OFFCURVE",
"1478 0 OFFCURVE",
"1449 0 CURVE SMOOTH",
"1434 0 LINE SMOOTH",
"1405 0 OFFCURVE",
"1384 22 OFFCURVE",
"1384 51 CURVE SMOOTH",
"1384 524 LINE SMOOTH",
"1384 553 OFFCURVE",
"1363 575 OFFCURVE",
"1334 575 CURVE SMOOTH",
"872 575 LINE SMOOTH",
"843 575 OFFCURVE",
"822 553 OFFCURVE",
"822 524 CURVE SMOOTH",
"822 51 LINE SMOOTH",
"822 22 OFFCURVE",
"801 0 OFFCURVE",
"772 0 CURVE SMOOTH",
"757 0 LINE SMOOTH",
"728 0 OFFCURVE",
"707 22 OFFCURVE",
"707 51 CURVE SMOOTH",
"707 524 LINE SMOOTH",
"707 553 OFFCURVE",
"686 575 OFFCURVE",
"657 575 CURVE SMOOTH",
"195 575 LINE SMOOTH",
"166 575 OFFCURVE",
"145 553 OFFCURVE",
"145 524 CURVE SMOOTH",
"145 51 LINE SMOOTH",
"145 22 OFFCURVE",
"124 0 OFFCURVE",
"95 0 CURVE SMOOTH",
"80 0 LINE SMOOTH",
"51 0 OFFCURVE",
"30 22 OFFCURVE",
"30 51 CURVE SMOOTH"
);
}
);
width = 1529;
}
);
unicode = 004D;
},
{
glyphname = N;
lastChange = "2024-09-03 14:27:13 +0000";
layers = (
{
hints = (
{
origin = "{0, 51}";
target = "{0, 44}";
type = Stem;
},
{
origin = "{0, 27}";
target = "{0, 20}";
type = Stem;
},
{
horizontal = 1;
origin = "{0, 40}";
target = "{0, 55}";
type = Stem;
},
{
horizontal = 1;
origin = "{0, 31}";
target = "{0, 8}";
type = Stem;
}
);
layerId = "B9294602-EB87-4DCD-A39F-D52598F560AD";
paths = (
{
closed = 1;
nodes = (
"209 690 LINE SMOOTH",
"238 690 OFFCURVE",
"260 668 OFFCURVE",
"260 639 CURVE SMOOTH",
"260 626 LINE SMOOTH",
"260 597 OFFCURVE",
"282 575 OFFCURVE",
"311 575 CURVE SMOOTH",
"324 575 LINE SMOOTH",
"353 575 OFFCURVE",
"375 597 OFFCURVE",
"375 626 CURVE SMOOTH",
"375 639 LINE SMOOTH",
"375 668 OFFCURVE",
"397 690 OFFCURVE",
"426 690 CURVE SMOOTH",
"439 690 LINE SMOOTH",
"468 690 OFFCURVE",
"490 668 OFFCURVE",
"490 639 CURVE",
"490 51 LINE",
"490 22 OFFCURVE",
"468 0 OFFCURVE",
"439 0 CURVE SMOOTH",
"426 0 LINE SMOOTH",
"397 0 OFFCURVE",
"375 22 OFFCURVE",
"375 51 CURVE SMOOTH",
"375 409 LINE SMOOTH",
"375 438 OFFCURVE",
"353 460 OFFCURVE",
"324 460 CURVE SMOOTH",
"311 460 LINE SMOOTH",
"282 460 OFFCURVE",
"260 482 OFFCURVE",
"260 511 CURVE SMOOTH",
"260 524 LINE SMOOTH",
"260 553 OFFCURVE",
"238 575 OFFCURVE",
"209 575 CURVE SMOOTH",
"196 575 LINE SMOOTH",
"167 575 OFFCURVE",
"145 553 OFFCURVE",
"145 524 CURVE SMOOTH",
"145 51 LINE SMOOTH",
"145 22 OFFCURVE",
"123 0 OFFCURVE",
"94 0 CURVE SMOOTH",
"81 0 LINE SMOOTH",
"52 0 OFFCURVE",
"30 22 OFFCURVE",
"30 51 CURVE SMOOTH",
"30 639 LINE SMOOTH",
"30 668 OFFCURVE",
"52 690 OFFCURVE",
"81 690 CURVE SMOOTH"
);
}
);
width = 520;
},
{
hints = (
{
origin = "{0, 51}";
target = "{0, 43}";
type = Stem;
},
{
origin = "{0, 27}";
target = "{0, 19}";
type = Stem;
},
{
horizontal = 1;
origin = "{0, 39}";
target = "{0, 55}";
type = Stem;
},
{
horizontal = 1;
origin = "{0, 32}";
target = "{0, 8}";
type = Stem;
}
);
layerId = "52F3452F-C0C6-4900-9BFE-1786415B207F";
paths = (
{
closed = 1;
nodes = (
"978 690 LINE SMOOTH",
"1007 690 OFFCURVE",
"1029 668 OFFCURVE",
"1029 639 CURVE SMOOTH",
"1029 626 LINE SMOOTH",
"1029 597 OFFCURVE",
"1051 575 OFFCURVE",
"1080 575 CURVE SMOOTH",
"1333 575 LINE SMOOTH",
"1362 575 OFFCURVE",
"1384 597 OFFCURVE",
"1384 626 CURVE SMOOTH",
"1384 639 LINE SMOOTH",
"1384 668 OFFCURVE",
"1406 690 OFFCURVE",
"1435 690 CURVE SMOOTH",
"1448 690 LINE SMOOTH",
"1477 690 OFFCURVE",
"1499 668 OFFCURVE",
"1499 639 CURVE",
"1499 51 LINE",
"1499 22 OFFCURVE",
"1477 0 OFFCURVE",
"1448 0 CURVE SMOOTH",
"1435 0 LINE SMOOTH",
"1406 0 OFFCURVE",
"1384 22 OFFCURVE",
"1384 51 CURVE SMOOTH",
"1384 409 LINE SMOOTH",
"1384 438 OFFCURVE",
"1362 460 OFFCURVE",
"1333 460 CURVE SMOOTH",
"1080 460 LINE SMOOTH",
"1051 460 OFFCURVE",
"1029 482 OFFCURVE",
"1029 511 CURVE SMOOTH",
"1029 524 LINE SMOOTH",
"1029 553 OFFCURVE",
"1007 575 OFFCURVE",
"978 575 CURVE SMOOTH",
"196 575 LINE SMOOTH",
"167 575 OFFCURVE",
"145 553 OFFCURVE",
"145 524 CURVE SMOOTH",
"145 51 LINE SMOOTH",
"145 22 OFFCURVE",
"123 0 OFFCURVE",
"94 0 CURVE SMOOTH",
"81 0 LINE SMOOTH",
"52 0 OFFCURVE",
"30 22 OFFCURVE",
"30 51 CURVE SMOOTH",
"30 639 LINE SMOOTH",
"30 668 OFFCURVE",
"52 690 OFFCURVE",
"81 690 CURVE SMOOTH"
);
}
);
width = 1529;
}
);
unicode = 004E;
},
{
glyphname = O;
lastChange = "2024-09-03 14:28:03 +0000";
layers = (
{
hints = (
{
horizontal = 1;
origin = "{0, 11}";
target = "{1, 12}";
type = Stem;
},
{
horizontal = 1;
origin = "{1, 3}";
target = "{0, 34}";
type = Stem;
},
{
origin = "{0, 47}";
target = "{1, 15}";
type = Stem;
},
{
origin = "{1, 8}";
target = "{0, 23}";
type = Stem;
}
);
layerId = "B9294602-EB87-4DCD-A39F-D52598F560AD";
paths = (
{
closed = 1;
nodes = (
"30 137 OFFCURVE",
"52 115 OFFCURVE",
"81 115 CURVE SMOOTH",
"94 115 LINE SMOOTH",
"123 115 OFFCURVE",
"145 93 OFFCURVE",
"145 64 CURVE SMOOTH",
"145 51 LINE SMOOTH",
"145 22 OFFCURVE",
"167 0 OFFCURVE",
"196 0 CURVE SMOOTH",
"323 0 LINE SMOOTH",
"352 0 OFFCURVE",
"375 22 OFFCURVE",
"375 51 CURVE SMOOTH",
"375 64 LINE SMOOTH",
"375 93 OFFCURVE",
"397 115 OFFCURVE",
"426 115 CURVE SMOOTH",
"439 115 LINE SMOOTH",
"468 115 OFFCURVE",
"490 137 OFFCURVE",
"490 166 CURVE SMOOTH",
"490 524 LINE SMOOTH",
"490 553 OFFCURVE",
"468 575 OFFCURVE",
"439 575 CURVE SMOOTH",
"426 575 LINE SMOOTH",
"397 575 OFFCURVE",
"375 597 OFFCURVE",
"375 626 CURVE SMOOTH",
"375 639 LINE SMOOTH",
"375 668 OFFCURVE",
"352 690 OFFCURVE",
"323 690 CURVE SMOOTH",
"196 690 LINE SMOOTH",
"167 690 OFFCURVE",
"145 668 OFFCURVE",
"145 639 CURVE SMOOTH",
"145 626 LINE SMOOTH",
"145 597 OFFCURVE",
"123 575 OFFCURVE",
"94 575 CURVE SMOOTH",
"81 575 LINE SMOOTH",
"52 575 OFFCURVE",
"30 553 OFFCURVE",
"30 524 CURVE SMOOTH",
"30 166 LINE SMOOTH"
);
},
{
closed = 1;
nodes = (
"145 524 LINE SMOOTH",
"145 553 OFFCURVE",
"167 575 OFFCURVE",
"196 575 CURVE SMOOTH",
"324 575 LINE SMOOTH",
"353 575 OFFCURVE",
"375 553 OFFCURVE",
"375 524 CURVE SMOOTH",
"375 166 LINE SMOOTH",
"375 137 OFFCURVE",
"353 115 OFFCURVE",
"324 115 CURVE SMOOTH",
"196 115 LINE SMOOTH",
"167 115 OFFCURVE",
"145 137 OFFCURVE",
"145 166 CURVE SMOOTH"
);
}
);
width = 520;
},
{
hints = (
{
horizontal = 1;
origin = "{0, 11}";
target = "{1, 12}";
type = Stem;
},
{
horizontal = 1;
origin = "{1, 4}";
target = "{0, 35}";
type = Stem;
},
{
origin = "{0, 47}";
target = "{1, 15}";
type = Stem;
},
{
origin = "{1, 8}";
target = "{0, 23}";
type = Stem;
}
);
layerId = "52F3452F-C0C6-4900-9BFE-1786415B207F";
paths = (
{
closed = 1;
nodes = (
"30 137 OFFCURVE",
"52 115 OFFCURVE",
"81 115 CURVE SMOOTH",
"94 115 LINE SMOOTH",
"123 115 OFFCURVE",
"145 93 OFFCURVE",
"145 64 CURVE SMOOTH",
"145 51 LINE SMOOTH",
"145 22 OFFCURVE",
"167 0 OFFCURVE",
"196 0 CURVE SMOOTH",
"1331 0 LINE SMOOTH",
"1360 0 OFFCURVE",
"1383 22 OFFCURVE",
"1383 51 CURVE SMOOTH",
"1383 64 LINE SMOOTH",
"1383 93 OFFCURVE",
"1405 115 OFFCURVE",
"1434 115 CURVE SMOOTH",
"1447 115 LINE SMOOTH",
"1476 115 OFFCURVE",
"1498 137 OFFCURVE",
"1498 166 CURVE SMOOTH",
"1498 524 LINE SMOOTH",
"1498 553 OFFCURVE",
"1476 575 OFFCURVE",
"1447 575 CURVE SMOOTH",
"1434 575 LINE SMOOTH",
"1405 575 OFFCURVE",
"1383 597 OFFCURVE",
"1383 626 CURVE SMOOTH",
"1383 639 LINE SMOOTH",
"1383 668 OFFCURVE",
"1360 690 OFFCURVE",
"1331 690 CURVE SMOOTH",
"196 690 LINE SMOOTH",
"167 690 OFFCURVE",
"145 668 OFFCURVE",
"145 639 CURVE SMOOTH",
"145 626 LINE SMOOTH",
"145 597 OFFCURVE",
"123 575 OFFCURVE",
"94 575 CURVE SMOOTH",
"81 575 LINE SMOOTH",
"52 575 OFFCURVE",
"30 553 OFFCURVE",
"30 524 CURVE SMOOTH",
"30 166 LINE SMOOTH"
);
},
{
closed = 1;
nodes = (
"145 524 LINE SMOOTH",
"145 553 OFFCURVE",
"167 575 OFFCURVE",
"196 575 CURVE SMOOTH",
"1332 575 LINE SMOOTH",
"1361 575 OFFCURVE",
"1383 553 OFFCURVE",
"1383 524 CURVE SMOOTH",
"1383 166 LINE SMOOTH",
"1383 137 OFFCURVE",
"1361 115 OFFCURVE",
"1332 115 CURVE SMOOTH",
"196 115 LINE SMOOTH",
"167 115 OFFCURVE",
"145 137 OFFCURVE",
"145 166 CURVE SMOOTH"
);
}
);
width = 1528;
}
);
unicode = 004F;
},
{
glyphname = P;
lastChange = "2024-09-03 14:30:57 +0000";
layers = (
{
hints = (
{
horizontal = 1;
origin = "{0, 28}";
target = "{1, 12}";
type = Stem;
},
{
horizontal = 1;
origin = "{1, 4}";
target = "{0, 43}";
type = Stem;
},
{
origin = "{0, 23}";
target = "{0, 16}";
type = Stem;
},
{
origin = "{1, 15}";
target = "{0, 0}";
type = Stem;
}
);
layerId = "B9294602-EB87-4DCD-A39F-D52598F560AD";
paths = (
{
closed = 1;
nodes = (
"490 396 LINE SMOOTH",
"490 367 OFFCURVE",
"468 345 OFFCURVE",
"439 345 CURVE SMOOTH",
"426 345 LINE SMOOTH",
"397 345 OFFCURVE",
"375 323 OFFCURVE",
"375 294 CURVE SMOOTH",
"375 281 LINE SMOOTH",
"375 252 OFFCURVE",
"353 230 OFFCURVE",
"324 230 CURVE SMOOTH",
"196 230 LINE SMOOTH",
"167 230 OFFCURVE",
"145 208 OFFCURVE",
"145 179 CURVE SMOOTH",
"145 51 LINE SMOOTH",
"145 22 OFFCURVE",
"123 0 OFFCURVE",
"94 0 CURVE SMOOTH",
"81 0 LINE SMOOTH",
"52 0 OFFCURVE",
"30 22 OFFCURVE",
"30 51 CURVE SMOOTH",
"30 179 LINE SMOOTH",
"30 208 OFFCURVE",
"52 230 OFFCURVE",
"81 230 CURVE SMOOTH",
"94 230 LINE SMOOTH",
"123 230 OFFCURVE",
"145 252 OFFCURVE",
"145 281 CURVE SMOOTH",
"145 294 LINE SMOOTH",
"145 323 OFFCURVE",
"123 345 OFFCURVE",
"94 345 CURVE SMOOTH",
"81 345 LINE SMOOTH",
"52 345 OFFCURVE",
"30 367 OFFCURVE",
"30 396 CURVE SMOOTH",
"30 639 LINE SMOOTH",
"30 668 OFFCURVE",
"52 690 OFFCURVE",
"81 690 CURVE SMOOTH",
"324 690 LINE SMOOTH",
"353 690 OFFCURVE",
"375 668 OFFCURVE",
"375 639 CURVE SMOOTH",
"375 626 LINE SMOOTH",
"375 597 OFFCURVE",
"397 575 OFFCURVE",
"426 575 CURVE SMOOTH",
"439 575 LINE SMOOTH",
"468 575 OFFCURVE",
"490 553 OFFCURVE",
"490 524 CURVE SMOOTH"
);
},
{
closed = 1;
nodes = (
"375 524 LINE SMOOTH",
"375 553 OFFCURVE",
"353 575 OFFCURVE",
"324 575 CURVE SMOOTH",
"196 575 LINE SMOOTH",
"167 575 OFFCURVE",
"145 553 OFFCURVE",
"145 524 CURVE SMOOTH",
"145 396 LINE SMOOTH",
"145 367 OFFCURVE",
"167 345 OFFCURVE",
"196 345 CURVE SMOOTH",
"324 345 LINE SMOOTH",
"353 345 OFFCURVE",
"375 367 OFFCURVE",
"375 396 CURVE SMOOTH"
);
}
);
width = 520;
},
{
hints = (
{
horizontal = 1;
origin = "{0, 28}";
target = "{1, 12}";
type = Stem;
},
{
origin = "{0, 23}";
target = "{1, 7}";
type = Stem;
},
{
origin = "{1, 15}";
target = "{0, 55}";
type = Stem;
},
{
horizontal = 1;
origin = "{1, 3}";
target = "{0, 43}";
type = Stem;
}
);
layerId = "52F3452F-C0C6-4900-9BFE-1786415B207F";
paths = (
{
closed = 1;
nodes = (
"1498 396 LINE SMOOTH",
"1498 367 OFFCURVE",
"1476 345 OFFCURVE",
"1447 345 CURVE SMOOTH",
"1434 345 LINE SMOOTH",
"1405 345 OFFCURVE",
"1383 323 OFFCURVE",
"1383 294 CURVE SMOOTH",
"1383 281 LINE SMOOTH",
"1383 252 OFFCURVE",
"1361 230 OFFCURVE",
"1332 230 CURVE SMOOTH",
"196 230 LINE SMOOTH",
"167 230 OFFCURVE",
"145 208 OFFCURVE",
"145 179 CURVE SMOOTH",
"145 51 LINE SMOOTH",
"145 22 OFFCURVE",
"123 0 OFFCURVE",
"94 0 CURVE SMOOTH",
"81 0 LINE SMOOTH",
"52 0 OFFCURVE",
"30 22 OFFCURVE",
"30 51 CURVE SMOOTH",
"30 179 LINE SMOOTH",
"30 208 OFFCURVE",
"52 230 OFFCURVE",
"81 230 CURVE SMOOTH",
"94 230 LINE SMOOTH",
"123 230 OFFCURVE",
"145 252 OFFCURVE",
"145 281 CURVE SMOOTH",
"145 294 LINE SMOOTH",
"145 323 OFFCURVE",
"123 345 OFFCURVE",
"94 345 CURVE SMOOTH",
"81 345 LINE SMOOTH",
"52 345 OFFCURVE",
"30 367 OFFCURVE",
"30 396 CURVE SMOOTH",
"30 639 LINE SMOOTH",
"30 668 OFFCURVE",
"52 690 OFFCURVE",
"81 690 CURVE SMOOTH",
"1332 690 LINE SMOOTH",
"1361 690 OFFCURVE",
"1383 668 OFFCURVE",
"1383 639 CURVE SMOOTH",
"1383 626 LINE SMOOTH",
"1383 597 OFFCURVE",
"1405 575 OFFCURVE",
"1434 575 CURVE SMOOTH",
"1447 575 LINE SMOOTH",
"1476 575 OFFCURVE",
"1498 553 OFFCURVE",
"1498 524 CURVE SMOOTH"
);
},
{
closed = 1;
nodes = (
"1383 524 LINE SMOOTH",
"1383 553 OFFCURVE",
"1361 575 OFFCURVE",
"1332 575 CURVE SMOOTH",
"196 575 LINE SMOOTH",
"167 575 OFFCURVE",
"145 553 OFFCURVE",
"145 524 CURVE SMOOTH",
"145 396 LINE SMOOTH",
"145 367 OFFCURVE",
"167 345 OFFCURVE",
"196 345 CURVE SMOOTH",
"1332 345 LINE SMOOTH",
"1361 345 OFFCURVE",
"1383 367 OFFCURVE",
"1383 396 CURVE SMOOTH"
);
}
);
width = 1528;
}
);
unicode = 0050;
},
{
glyphname = Q;
lastChange = "2024-09-03 14:31:15 +0000";
layers = (
{
hints = (
{
horizontal = 1;
origin = "{0, 20}";
target = "{1, 20}";
type = Stem;
},
{
horizontal = 1;
origin = "{1, 3}";
target = "{0, 51}";
type = Stem;
},
{
origin = "{1, 8}";
target = "{0, 40}";
type = Stem;
},
{
origin = "{0, 64}";
target = "{1, 0}";
type = Stem;
},
{
horizontal = 1;
origin = "{0, 68}";
target = "{1, 12}";
type = Stem;
}
);
layerId = "B9294602-EB87-4DCD-A39F-D52598F560AD";
paths = (
{
closed = 1;
nodes = (
"145 51 LINE SMOOTH",
"145 22 OFFCURVE",
"167 0 OFFCURVE",
"196 0 CURVE SMOOTH",
"209 0 LINE SMOOTH",
"238 0 OFFCURVE",
"260 22 OFFCURVE",
"260 51 CURVE SMOOTH",
"260 64 LINE SMOOTH",
"260 93 OFFCURVE",
"282 115 OFFCURVE",
"311 115 CURVE SMOOTH",
"324 115 LINE SMOOTH",
"353 115 OFFCURVE",
"375 93 OFFCURVE",
"375 64 CURVE SMOOTH",
"375 51 LINE SMOOTH",
"375 22 OFFCURVE",
"397 0 OFFCURVE",
"426 0 CURVE SMOOTH",
"439 0 LINE SMOOTH",
"468 0 OFFCURVE",
"490 22 OFFCURVE",
"490 51 CURVE SMOOTH",
"490 64 LINE SMOOTH",
"490 93 OFFCURVE",
"468 115 OFFCURVE",
"439 115 CURVE SMOOTH",
"426 115 LINE SMOOTH",
"397 115 OFFCURVE",
"375 137 OFFCURVE",
"375 166 CURVE SMOOTH",
"375 177 LINE SMOOTH",
"375 207 OFFCURVE",
"397 228 OFFCURVE",
"427 228 CURVE SMOOTH",
"438 228 LINE SMOOTH",
"467 228 OFFCURVE",
"490 251 OFFCURVE",
"490 280 CURVE SMOOTH",
"490 525 LINE SMOOTH",
"490 554 OFFCURVE",
"469 576 OFFCURVE",
"440 576 CURVE SMOOTH",
"425 576 LINE SMOOTH",
"396 576 OFFCURVE",
"375 597 OFFCURVE",
"375 626 CURVE SMOOTH",
"375 639 LINE SMOOTH",
"375 668 OFFCURVE",
"353 690 OFFCURVE",
"324 690 CURVE SMOOTH",
"196 690 LINE SMOOTH",
"167 690 OFFCURVE",
"145 668 OFFCURVE",
"145 639 CURVE SMOOTH",
"145 626 LINE SMOOTH",
"145 597 OFFCURVE",
"123 575 OFFCURVE",
"94 575 CURVE SMOOTH",
"81 575 LINE SMOOTH",
"52 575 OFFCURVE",
"30 553 OFFCURVE",
"30 524 CURVE SMOOTH",
"30 166 LINE SMOOTH",
"30 137 OFFCURVE",
"52 115 OFFCURVE",
"81 115 CURVE SMOOTH",
"94 115 LINE SMOOTH",
"123 115 OFFCURVE",
"145 93 OFFCURVE",
"145 64 CURVE SMOOTH"
);
},
{
closed = 1;
nodes = (
"145 524 LINE SMOOTH",
"145 553 OFFCURVE",
"167 575 OFFCURVE",
"196 575 CURVE SMOOTH",
"324 575 LINE SMOOTH",
"353 575 OFFCURVE",
"375 553 OFFCURVE",
"375 524 CURVE SMOOTH",
"375 281 LINE SMOOTH",
"375 252 OFFCURVE",
"353 230 OFFCURVE",
"324 230 CURVE SMOOTH",
"311 230 LINE SMOOTH",
"282 230 OFFCURVE",
"260 208 OFFCURVE",
"260 179 CURVE SMOOTH",
"260 166 LINE SMOOTH",
"260 137 OFFCURVE",
"238 115 OFFCURVE",
"209 115 CURVE SMOOTH",
"196 115 LINE SMOOTH",
"167 115 OFFCURVE",
"145 137 OFFCURVE",
"145 166 CURVE SMOOTH"
);
}
);
width = 520;
},
{
hints = (
{
horizontal = 1;
origin = "{0, 20}";
target = "{1, 20}";
type = Stem;
},
{
horizontal = 1;
origin = "{1, 4}";
target = "{0, 52}";
type = Stem;
},
{
horizontal = 1;
origin = "{1, 20}";
target = "{1, 12}";
type = Stem;
},
{
origin = "{0, 64}";
target = "{1, 23}";
type = Stem;
},
{
origin = "{1, 8}";
target = "{0, 40}";
type = Stem;
}
);
layerId = "52F3452F-C0C6-4900-9BFE-1786415B207F";
paths = (
{
closed = 1;
nodes = (
"145 51 LINE SMOOTH",
"145 22 OFFCURVE",
"167 0 OFFCURVE",
"196 0 CURVE SMOOTH",
"975 0 LINE SMOOTH",
"1004 0 OFFCURVE",
"1026 22 OFFCURVE",
"1026 51 CURVE SMOOTH",
"1026 64 LINE SMOOTH",
"1026 93 OFFCURVE",
"1048 115 OFFCURVE",
"1077 115 CURVE SMOOTH",
"1332 115 LINE SMOOTH",
"1361 115 OFFCURVE",
"1383 93 OFFCURVE",
"1383 64 CURVE SMOOTH",
"1383 51 LINE SMOOTH",
"1383 22 OFFCURVE",
"1405 0 OFFCURVE",
"1434 0 CURVE SMOOTH",
"1447 0 LINE SMOOTH",
"1476 0 OFFCURVE",
"1498 22 OFFCURVE",
"1498 51 CURVE SMOOTH",
"1498 64 LINE SMOOTH",
"1498 93 OFFCURVE",
"1476 115 OFFCURVE",
"1447 115 CURVE SMOOTH",
"1434 115 LINE SMOOTH",
"1405 115 OFFCURVE",
"1383 137 OFFCURVE",
"1383 166 CURVE SMOOTH",
"1383 177 LINE SMOOTH",
"1383 207 OFFCURVE",
"1405 228 OFFCURVE",
"1435 228 CURVE SMOOTH",
"1446 228 LINE SMOOTH",
"1475 228 OFFCURVE",
"1498 251 OFFCURVE",
"1498 280 CURVE SMOOTH",
"1498 525 LINE SMOOTH",
"1498 554 OFFCURVE",
"1477 576 OFFCURVE",
"1448 576 CURVE SMOOTH",
"1433 576 LINE SMOOTH",
"1404 576 OFFCURVE",
"1383 597 OFFCURVE",
"1383 626 CURVE SMOOTH",
"1383 639 LINE SMOOTH",
"1383 668 OFFCURVE",
"1361 690 OFFCURVE",
"1332 690 CURVE SMOOTH",
"196 690 LINE SMOOTH",
"167 690 OFFCURVE",
"145 668 OFFCURVE",
"145 639 CURVE SMOOTH",
"145 626 LINE SMOOTH",
"145 597 OFFCURVE",
"123 575 OFFCURVE",
"94 575 CURVE SMOOTH",
"81 575 LINE SMOOTH",
"52 575 OFFCURVE",
"30 553 OFFCURVE",
"30 524 CURVE SMOOTH",
"30 166 LINE SMOOTH",
"30 137 OFFCURVE",
"52 115 OFFCURVE",
"81 115 CURVE SMOOTH",
"94 115 LINE SMOOTH",
"123 115 OFFCURVE",
"145 93 OFFCURVE",
"145 64 CURVE SMOOTH"
);
},
{
closed = 1;
nodes = (
"145 524 LINE SMOOTH",
"145 553 OFFCURVE",
"167 575 OFFCURVE",
"196 575 CURVE SMOOTH",
"1332 575 LINE SMOOTH",
"1361 575 OFFCURVE",
"1383 553 OFFCURVE",
"1383 524 CURVE SMOOTH",
"1383 281 LINE SMOOTH",
"1383 252 OFFCURVE",
"1361 230 OFFCURVE",
"1332 230 CURVE SMOOTH",
"1077 230 LINE SMOOTH",
"1048 230 OFFCURVE",
"1026 208 OFFCURVE",
"1026 179 CURVE SMOOTH",
"1026 166 LINE SMOOTH",
"1026 137 OFFCURVE",
"1004 115 OFFCURVE",
"975 115 CURVE SMOOTH",
"196 115 LINE SMOOTH",
"167 115 OFFCURVE",
"145 137 OFFCURVE",
"145 166 CURVE SMOOTH"
);
}
);
width = 1528;
}
);
unicode = 0051;
},
{
glyphname = R;
lastChange = "2024-09-03 14:32:04 +0000";
layers = (
{
hints = (
{
horizontal = 1;
origin = "{0, 60}";
target = "{1, 3}";
type = Stem;
},
{
horizontal = 1;
origin = "{1, 11}";
target = "{0, 19}";
type = Stem;
},
{
origin = "{0, 71}";
target = "{0, 64}";
type = Stem;
},
{
origin = "{0, 55}";
target = "{0, 48}";
type = Stem;
}
);
layerId = "B9294602-EB87-4DCD-A39F-D52598F560AD";
paths = (
{
closed = 1;
nodes = (
"30 179 LINE SMOOTH",
"30 208 OFFCURVE",
"52 230 OFFCURVE",
"81 230 CURVE SMOOTH",
"94 230 LINE SMOOTH",
"123 230 OFFCURVE",
"145 252 OFFCURVE",
"145 281 CURVE SMOOTH",
"145 294 LINE SMOOTH",
"145 323 OFFCURVE",
"124 345 OFFCURVE",
"95 345 CURVE SMOOTH",
"80 345 LINE SMOOTH",
"51 345 OFFCURVE",
"30 367 OFFCURVE",
"30 396 CURVE SMOOTH",
"30 639 LINE SMOOTH",
"30 668 OFFCURVE",
"52 690 OFFCURVE",
"81 690 CURVE SMOOTH",
"324 690 LINE SMOOTH",
"353 690 OFFCURVE",
"375 668 OFFCURVE",
"375 639 CURVE SMOOTH",
"375 626 LINE SMOOTH",
"375 597 OFFCURVE",
"397 575 OFFCURVE",
"426 575 CURVE SMOOTH",
"439 575 LINE SMOOTH",
"468 575 OFFCURVE",
"490 553 OFFCURVE",
"490 524 CURVE SMOOTH",
"490 396 LINE SMOOTH",
"490 367 OFFCURVE",
"468 345 OFFCURVE",
"439 345 CURVE SMOOTH",
"426 345 LINE SMOOTH",
"397 345 OFFCURVE",
"375 323 OFFCURVE",
"375 294 CURVE SMOOTH",
"375 281 LINE SMOOTH",
"375 252 OFFCURVE",
"397 230 OFFCURVE",
"426 230 CURVE SMOOTH",
"439 230 LINE SMOOTH",
"468 230 OFFCURVE",
"490 208 OFFCURVE",
"490 179 CURVE SMOOTH",
"490 51 LINE SMOOTH",
"490 22 OFFCURVE",
"468 0 OFFCURVE",
"439 0 CURVE SMOOTH",
"426 0 LINE SMOOTH",
"397 0 OFFCURVE",
"375 22 OFFCURVE",
"375 51 CURVE SMOOTH",
"375 179 LINE SMOOTH",
"375 208 OFFCURVE",
"353 230 OFFCURVE",
"324 230 CURVE SMOOTH",
"196 230 LINE SMOOTH",
"167 230 OFFCURVE",
"145 208 OFFCURVE",
"145 179 CURVE SMOOTH",
"145 51 LINE SMOOTH",
"145 22 OFFCURVE",
"123 0 OFFCURVE",
"94 0 CURVE SMOOTH",
"81 0 LINE SMOOTH",
"52 0 OFFCURVE",
"30 22 OFFCURVE",
"30 51 CURVE SMOOTH"
);
},
{
closed = 1;
nodes = (
"145 367 OFFCURVE",
"167 345 OFFCURVE",
"196 345 CURVE SMOOTH",
"324 345 LINE SMOOTH",
"353 345 OFFCURVE",
"375 367 OFFCURVE",
"375 396 CURVE SMOOTH",
"375 524 LINE SMOOTH",
"375 553 OFFCURVE",
"353 575 OFFCURVE",
"324 575 CURVE SMOOTH",
"196 575 LINE SMOOTH",
"167 575 OFFCURVE",
"145 553 OFFCURVE",
"145 524 CURVE SMOOTH",
"145 396 LINE SMOOTH"
);
}
);
width = 520;
},
{
hints = (
{
horizontal = 1;
origin = "{0, 60}";
target = "{1, 3}";
type = Stem;
},
{
origin = "{0, 71}";
target = "{1, 14}";
type = Stem;
},
{
horizontal = 1;
origin = "{1, 10}";
target = "{0, 19}";
type = Stem;
},
{
origin = "{0, 55}";
target = "{0, 31}";
type = Stem;
}
);
layerId = "52F3452F-C0C6-4900-9BFE-1786415B207F";
paths = (
{
closed = 1;
nodes = (
"30 179 LINE SMOOTH",
"30 208 OFFCURVE",
"52 230 OFFCURVE",
"81 230 CURVE SMOOTH",
"94 230 LINE SMOOTH",
"123 230 OFFCURVE",
"145 252 OFFCURVE",
"145 281 CURVE SMOOTH",
"145 294 LINE SMOOTH",
"145 323 OFFCURVE",
"124 345 OFFCURVE",
"95 345 CURVE SMOOTH",
"80 345 LINE SMOOTH",
"51 345 OFFCURVE",
"30 367 OFFCURVE",
"30 396 CURVE SMOOTH",
"30 639 LINE SMOOTH",
"30 668 OFFCURVE",
"52 690 OFFCURVE",
"81 690 CURVE SMOOTH",
"1332 690 LINE SMOOTH",
"1361 690 OFFCURVE",
"1383 668 OFFCURVE",
"1383 639 CURVE SMOOTH",
"1383 626 LINE SMOOTH",
"1383 597 OFFCURVE",
"1405 575 OFFCURVE",
"1434 575 CURVE SMOOTH",
"1447 575 LINE SMOOTH",
"1476 575 OFFCURVE",
"1498 553 OFFCURVE",
"1498 524 CURVE SMOOTH",
"1498 396 LINE SMOOTH",
"1498 367 OFFCURVE",
"1476 345 OFFCURVE",
"1447 345 CURVE SMOOTH",
"1434 345 LINE SMOOTH",
"1405 345 OFFCURVE",
"1383 323 OFFCURVE",
"1383 294 CURVE SMOOTH",
"1383 281 LINE SMOOTH",
"1383 252 OFFCURVE",
"1405 230 OFFCURVE",
"1434 230 CURVE SMOOTH",
"1447 230 LINE SMOOTH",
"1476 230 OFFCURVE",
"1498 208 OFFCURVE",
"1498 179 CURVE SMOOTH",
"1498 51 LINE SMOOTH",
"1498 22 OFFCURVE",
"1476 0 OFFCURVE",
"1447 0 CURVE SMOOTH",
"1434 0 LINE SMOOTH",
"1405 0 OFFCURVE",
"1383 22 OFFCURVE",
"1383 51 CURVE SMOOTH",
"1383 179 LINE SMOOTH",
"1383 208 OFFCURVE",
"1361 230 OFFCURVE",
"1332 230 CURVE SMOOTH",
"196 230 LINE SMOOTH",
"167 230 OFFCURVE",
"145 208 OFFCURVE",
"145 179 CURVE SMOOTH",
"145 51 LINE SMOOTH",
"145 22 OFFCURVE",
"123 0 OFFCURVE",
"94 0 CURVE SMOOTH",
"81 0 LINE SMOOTH",
"52 0 OFFCURVE",
"30 22 OFFCURVE",
"30 51 CURVE SMOOTH"
);
},
{
closed = 1;
nodes = (
"145 367 OFFCURVE",
"167 345 OFFCURVE",
"196 345 CURVE SMOOTH",
"1332 345 LINE SMOOTH",
"1361 345 OFFCURVE",
"1383 367 OFFCURVE",
"1383 396 CURVE SMOOTH",
"1383 524 LINE SMOOTH",
"1383 553 OFFCURVE",
"1361 575 OFFCURVE",
"1332 575 CURVE SMOOTH",
"196 575 LINE SMOOTH",
"167 575 OFFCURVE",
"145 553 OFFCURVE",
"145 524 CURVE SMOOTH",
"145 396 LINE SMOOTH"
);
}
);
width = 1528;
}
);
unicode = 0052;
},
{
glyphname = S;
lastChange = "2024-09-03 14:32:56 +0000";
layers = (
{
hints = (
{
horizontal = 1;
origin = "{0, 83}";
target = "{0, 26}";
type = Stem;
},
{
horizontal = 1;
origin = "{0, 58}";
target = "{0, 50}";
type = Stem;
},
{
horizontal = 1;
origin = "{0, 11}";
target = "{0, 91}";
type = Stem;
},
{
horizontal = 1;
origin = "{0, 74}";
target = "{0, 35}";
type = Stem;
},
{
origin = "{0, 103}";
target = "{0, 95}";
type = Stem;
},
{
origin = "{0, 87}";
target = "{0, 47}";
type = Stem;
}
);
layerId = "B9294602-EB87-4DCD-A39F-D52598F560AD";
paths = (
{
closed = 1;
nodes = (
"30 137 OFFCURVE",
"52 115 OFFCURVE",
"81 115 CURVE SMOOTH",
"94 115 LINE SMOOTH",
"123 115 OFFCURVE",
"145 93 OFFCURVE",
"145 64 CURVE SMOOTH",
"145 51 LINE SMOOTH",
"145 22 OFFCURVE",
"167 0 OFFCURVE",
"196 0 CURVE SMOOTH",
"439 0 LINE SMOOTH",
"468 0 OFFCURVE",
"490 22 OFFCURVE",
"490 51 CURVE SMOOTH",
"490 294 LINE SMOOTH",
"490 323 OFFCURVE",
"468 345 OFFCURVE",
"439 345 CURVE SMOOTH",
"426 345 LINE SMOOTH",
"397 345 OFFCURVE",
"375 367 OFFCURVE",
"375 396 CURVE SMOOTH",
"375 409 LINE SMOOTH",
"375 438 OFFCURVE",
"353 460 OFFCURVE",
"324 460 CURVE SMOOTH",
"311 460 LINE SMOOTH",
"282 460 OFFCURVE",
"260 438 OFFCURVE",
"260 409 CURVE SMOOTH",
"260 396 LINE SMOOTH",
"260 367 OFFCURVE",
"238 345 OFFCURVE",
"209 345 CURVE SMOOTH",
"196 345 LINE SMOOTH",
"167 345 OFFCURVE",
"145 367 OFFCURVE",
"145 396 CURVE SMOOTH",
"145 524 LINE SMOOTH",
"145 553 OFFCURVE",
"167 575 OFFCURVE",
"196 575 CURVE SMOOTH",
"439 575 LINE SMOOTH",
"468 575 OFFCURVE",
"490 597 OFFCURVE",
"490 626 CURVE SMOOTH",
"490 639 LINE SMOOTH",
"490 668 OFFCURVE",
"468 690 OFFCURVE",
"439 690 CURVE SMOOTH",
"196 690 LINE SMOOTH",
"167 690 OFFCURVE",
"145 668 OFFCURVE",
"145 639 CURVE SMOOTH",
"145 626 LINE SMOOTH",
"145 597 OFFCURVE",
"123 575 OFFCURVE",
"94 575 CURVE SMOOTH",
"81 575 LINE SMOOTH",
"52 575 OFFCURVE",
"30 553 OFFCURVE",
"30 524 CURVE SMOOTH",
"30 396 LINE SMOOTH",
"30 367 OFFCURVE",
"52 345 OFFCURVE",
"81 345 CURVE SMOOTH",
"94 345 LINE SMOOTH",
"123 345 OFFCURVE",
"145 323 OFFCURVE",
"145 294 CURVE SMOOTH",
"145 281 LINE SMOOTH",
"145 252 OFFCURVE",
"167 230 OFFCURVE",
"196 230 CURVE SMOOTH",
"209 230 LINE SMOOTH",
"238 230 OFFCURVE",
"260 252 OFFCURVE",
"260 281 CURVE SMOOTH",
"260 294 LINE SMOOTH",
"260 323 OFFCURVE",
"282 345 OFFCURVE",
"311 345 CURVE SMOOTH",
"324 345 LINE SMOOTH",
"353 345 OFFCURVE",
"375 323 OFFCURVE",
"375 294 CURVE SMOOTH",
"375 166 LINE SMOOTH",
"375 137 OFFCURVE",
"353 115 OFFCURVE",
"324 115 CURVE SMOOTH",
"196 115 LINE SMOOTH",
"167 115 OFFCURVE",
"145 137 OFFCURVE",
"145 166 CURVE SMOOTH",
"145 179 LINE SMOOTH",
"145 208 OFFCURVE",
"123 230 OFFCURVE",
"94 230 CURVE SMOOTH",
"81 230 LINE SMOOTH",
"52 230 OFFCURVE",
"30 208 OFFCURVE",
"30 179 CURVE SMOOTH",
"30 166 LINE SMOOTH"
);
}
);
width = 520;
},
{
hints = (
{
horizontal = 1;
origin = "{0, 43}";
target = "{0, 51}";
type = Stem;
},
{
horizontal = 1;
origin = "{0, 11}";
target = "{0, 91}";
type = Stem;
},
{
horizontal = 1;
origin = "{0, 99}";
target = "{0, 83}";
type = Stem;
},
{
horizontal = 1;
origin = "{0, 83}";
target = "{0, 27}";
type = Stem;
},
{
origin = "{0, 103}";
target = "{0, 95}";
type = Stem;
},
{
origin = "{0, 87}";
target = "{0, 15}";
type = Stem;
}
);
layerId = "52F3452F-C0C6-4900-9BFE-1786415B207F";
paths = (
{
closed = 1;
nodes = (
"30 137 OFFCURVE",
"52 115 OFFCURVE",
"81 115 CURVE SMOOTH",
"94 115 LINE SMOOTH",
"123 115 OFFCURVE",
"145 93 OFFCURVE",
"145 64 CURVE SMOOTH",
"145 51 LINE SMOOTH",
"145 22 OFFCURVE",
"167 0 OFFCURVE",
"196 0 CURVE SMOOTH",
"1447 0 LINE SMOOTH",
"1476 0 OFFCURVE",
"1498 22 OFFCURVE",
"1498 51 CURVE SMOOTH",
"1498 294 LINE SMOOTH",
"1498 323 OFFCURVE",
"1476 345 OFFCURVE",
"1447 345 CURVE SMOOTH",
"1434 345 LINE SMOOTH",
"1405 345 OFFCURVE",
"1383 367 OFFCURVE",
"1383 396 CURVE SMOOTH",
"1383 409 LINE SMOOTH",
"1383 438 OFFCURVE",
"1361 460 OFFCURVE",
"1332 460 CURVE SMOOTH",
"862 460 LINE SMOOTH",
"833 460 OFFCURVE",
"811 438 OFFCURVE",
"811 409 CURVE SMOOTH",
"811 396 LINE SMOOTH",
"811 367 OFFCURVE",
"789 345 OFFCURVE",
"760 345 CURVE SMOOTH",
"196 345 LINE SMOOTH",
"166 345 OFFCURVE",
"145 367 OFFCURVE",
"145 396 CURVE SMOOTH",
"145 524 LINE SMOOTH",
"145 553 OFFCURVE",
"167 575 OFFCURVE",
"196 575 CURVE SMOOTH",
"1447 575 LINE SMOOTH",
"1476 575 OFFCURVE",
"1498 597 OFFCURVE",
"1498 626 CURVE SMOOTH",
"1498 639 LINE SMOOTH",
"1498 668 OFFCURVE",
"1476 690 OFFCURVE",
"1447 690 CURVE SMOOTH",
"196 690 LINE SMOOTH",
"167 690 OFFCURVE",
"145 668 OFFCURVE",
"145 639 CURVE SMOOTH",
"145 626 LINE SMOOTH",
"145 597 OFFCURVE",
"123 575 OFFCURVE",
"94 575 CURVE SMOOTH",
"81 575 LINE SMOOTH",
"52 575 OFFCURVE",
"30 553 OFFCURVE",
"30 524 CURVE SMOOTH",
"30 396 LINE SMOOTH",
"30 367 OFFCURVE",
"52 345 OFFCURVE",
"81 345 CURVE SMOOTH",
"94 345 LINE SMOOTH",
"123 345 OFFCURVE",
"145 323 OFFCURVE",
"145 294 CURVE SMOOTH",
"145 281 LINE SMOOTH",
"145 252 OFFCURVE",
"166 230 OFFCURVE",
"196 230 CURVE SMOOTH",
"760 230 LINE SMOOTH",
"789 230 OFFCURVE",
"811 252 OFFCURVE",
"811 281 CURVE SMOOTH",
"811 294 LINE SMOOTH",
"811 323 OFFCURVE",
"833 345 OFFCURVE",
"862 345 CURVE SMOOTH",
"1332 345 LINE SMOOTH",
"1361 345 OFFCURVE",
"1383 323 OFFCURVE",
"1383 294 CURVE SMOOTH",
"1383 166 LINE SMOOTH",
"1383 137 OFFCURVE",
"1361 115 OFFCURVE",
"1332 115 CURVE SMOOTH",
"196 115 LINE SMOOTH",
"167 115 OFFCURVE",
"145 137 OFFCURVE",
"145 166 CURVE SMOOTH",
"145 179 LINE SMOOTH",
"145 208 OFFCURVE",
"123 230 OFFCURVE",
"94 230 CURVE SMOOTH",
"81 230 LINE SMOOTH",
"52 230 OFFCURVE",
"30 208 OFFCURVE",
"30 179 CURVE SMOOTH",
"30 166 LINE SMOOTH"
);
}
);
width = 1528;
}
);
unicode = 0053;
},
{
glyphname = T;
lastChange = "2024-09-03 14:33:34 +0000";
layers = (
{
hints = (
{
horizontal = 1;
origin = "{0, 23}";
target = "{0, 15}";
type = Stem;
},
{
origin = "{0, 28}";
target = "{0, 4}";
type = Stem;
}
);
layerId = "B9294602-EB87-4DCD-A39F-D52598F560AD";
paths = (
{
closed = 1;
nodes = (
"267 0 LINE SMOOTH",
"296 0 OFFCURVE",
"318 22 OFFCURVE",
"318 51 CURVE SMOOTH",
"318 524 LINE SMOOTH",
"318 553 OFFCURVE",
"340 575 OFFCURVE",
"369 575 CURVE SMOOTH",
"440 575 LINE SMOOTH",
"468 575 OFFCURVE",
"490 597 OFFCURVE",
"490 626 CURVE SMOOTH",
"490 639 LINE SMOOTH",
"490 668 OFFCURVE",
"468 690 OFFCURVE",
"440 690 CURVE SMOOTH",
"80 690 LINE SMOOTH",
"52 690 OFFCURVE",
"30 668 OFFCURVE",
"30 639 CURVE SMOOTH",
"30 626 LINE SMOOTH",
"30 597 OFFCURVE",
"52 575 OFFCURVE",
"79 575 CURVE SMOOTH",
"152 575 LINE SMOOTH",
"181 575 OFFCURVE",
"203 553 OFFCURVE",
"203 524 CURVE SMOOTH",
"203 51 LINE SMOOTH",
"203 22 OFFCURVE",
"225 0 OFFCURVE",
"254 0 CURVE SMOOTH"
);
}
);
width = 520;
},
{
hints = (
{
horizontal = 1;
origin = "{0, 8}";
target = "{0, 16}";
type = Stem;
},
{
origin = "{0, 28}";
target = "{0, 4}";
type = Stem;
}
);
layerId = "52F3452F-C0C6-4900-9BFE-1786415B207F";
paths = (
{
closed = 1;
nodes = (
"771 0 LINE SMOOTH",
"800 0 OFFCURVE",
"822 22 OFFCURVE",
"822 51 CURVE SMOOTH",
"822 524 LINE SMOOTH",
"822 553 OFFCURVE",
"844 575 OFFCURVE",
"873 575 CURVE SMOOTH",
"1448 575 LINE SMOOTH",
"1476 575 OFFCURVE",
"1498 597 OFFCURVE",
"1498 626 CURVE SMOOTH",
"1498 639 LINE SMOOTH",
"1498 668 OFFCURVE",
"1476 690 OFFCURVE",
"1448 690 CURVE SMOOTH",
"80 690 LINE SMOOTH",
"52 690 OFFCURVE",
"30 668 OFFCURVE",
"30 639 CURVE SMOOTH",
"30 626 LINE SMOOTH",
"30 597 OFFCURVE",
"52 575 OFFCURVE",
"79 575 CURVE SMOOTH",
"656 575 LINE SMOOTH",
"685 575 OFFCURVE",
"707 553 OFFCURVE",
"707 524 CURVE SMOOTH",
"707 51 LINE SMOOTH",
"707 22 OFFCURVE",
"729 0 OFFCURVE",
"758 0 CURVE SMOOTH"
);
}
);
width = 1528;
}
);
unicode = 0054;
},
{
glyphname = U;
lastChange = "2024-09-03 14:33:47 +0000";
layers = (
{
hints = (
{
horizontal = 1;
origin = "{0, 28}";
target = "{0, 20}";
type = Stem;
},
{
origin = "{0, 16}";
target = "{0, 24}";
type = Stem;
},
{
origin = "{0, 39}";
target = "{0, 32}";
type = Stem;
}
);
layerId = "B9294602-EB87-4DCD-A39F-D52598F560AD";
paths = (
{
closed = 1;
nodes = (
"375 166 LINE SMOOTH",
"375 137 OFFCURVE",
"353 115 OFFCURVE",
"324 115 CURVE SMOOTH",
"196 115 LINE SMOOTH",
"167 115 OFFCURVE",
"145 137 OFFCURVE",
"145 166 CURVE SMOOTH",
"145 639 LINE SMOOTH",
"145 668 OFFCURVE",
"123 690 OFFCURVE",
"94 690 CURVE SMOOTH",
"81 690 LINE SMOOTH",
"52 690 OFFCURVE",
"30 668 OFFCURVE",
"30 639 CURVE SMOOTH",
"30 166 LINE SMOOTH",
"30 137 OFFCURVE",
"52 115 OFFCURVE",
"81 115 CURVE SMOOTH",
"94 115 LINE SMOOTH",
"123 115 OFFCURVE",
"145 93 OFFCURVE",
"145 64 CURVE SMOOTH",
"145 51 LINE SMOOTH",
"145 22 OFFCURVE",
"167 0 OFFCURVE",
"196 0 CURVE SMOOTH",
"439 0 LINE SMOOTH",
"468 0 OFFCURVE",
"490 22 OFFCURVE",
"490 51 CURVE SMOOTH",
"490 639 LINE SMOOTH",
"490 668 OFFCURVE",
"468 690 OFFCURVE",
"439 690 CURVE SMOOTH",
"426 690 LINE SMOOTH",
"397 690 OFFCURVE",
"375 668 OFFCURVE",
"375 639 CURVE SMOOTH"
);
}
);
width = 520;
},
{
hints = (
{
horizontal = 1;
origin = "{0, 28}";
target = "{0, 20}";
type = Stem;
},
{
origin = "{0, 16}";
target = "{0, 8}";
type = Stem;
},
{
origin = "{0, 0}";
target = "{0, 32}";
type = Stem;
}
);
layerId = "52F3452F-C0C6-4900-9BFE-1786415B207F";
paths = (
{
closed = 1;
nodes = (
"1383 166 LINE SMOOTH",
"1383 137 OFFCURVE",
"1361 115 OFFCURVE",
"1332 115 CURVE SMOOTH",
"196 115 LINE SMOOTH",
"167 115 OFFCURVE",
"145 137 OFFCURVE",
"145 166 CURVE SMOOTH",
"145 639 LINE SMOOTH",
"145 668 OFFCURVE",
"123 690 OFFCURVE",
"94 690 CURVE SMOOTH",
"81 690 LINE SMOOTH",
"52 690 OFFCURVE",
"30 668 OFFCURVE",
"30 639 CURVE SMOOTH",
"30 166 LINE SMOOTH",
"30 137 OFFCURVE",
"52 115 OFFCURVE",
"81 115 CURVE SMOOTH",
"94 115 LINE SMOOTH",
"123 115 OFFCURVE",
"145 93 OFFCURVE",
"145 64 CURVE SMOOTH",
"145 51 LINE SMOOTH",
"145 22 OFFCURVE",
"167 0 OFFCURVE",
"196 0 CURVE SMOOTH",
"1447 0 LINE SMOOTH",
"1476 0 OFFCURVE",
"1498 22 OFFCURVE",
"1498 51 CURVE SMOOTH",
"1498 639 LINE SMOOTH",
"1498 668 OFFCURVE",
"1476 690 OFFCURVE",
"1447 690 CURVE SMOOTH",
"1434 690 LINE SMOOTH",
"1405 690 OFFCURVE",
"1383 668 OFFCURVE",
"1383 639 CURVE SMOOTH"
);
}
);
width = 1528;
}
);
unicode = 0055;
},
{
glyphname = V;
lastChange = "2024-09-03 14:34:53 +0000";
layers = (
{
hints = (
{
horizontal = 1;
origin = "{0, 43}";
target = "{0, 19}";
type = Stem;
},
{
horizontal = 1;
origin = "{0, 34}";
target = "{0, 11}";
type = Stem;
},
{
origin = "{0, 63}";
target = "{0, 7}";
type = Stem;
},
{
origin = "{0, 22}";
target = "{0, 31}";
type = Stem;
}
);
layerId = "B9294602-EB87-4DCD-A39F-D52598F560AD";
paths = (
{
closed = 1;
nodes = (
"30 668 OFFCURVE",
"52 690 OFFCURVE",
"81 690 CURVE SMOOTH",
"94 690 LINE SMOOTH",
"123 690 OFFCURVE",
"145 668 OFFCURVE",
"145 639 CURVE SMOOTH",
"145 281 LINE SMOOTH",
"145 252 OFFCURVE",
"167 230 OFFCURVE",
"196 230 CURVE SMOOTH",
"209 230 LINE SMOOTH",
"238 230 OFFCURVE",
"260 208 OFFCURVE",
"260 179 CURVE SMOOTH",
"260 166 LINE SMOOTH",
"260 137 OFFCURVE",
"282 115 OFFCURVE",
"311 115 CURVE SMOOTH",
"324 115 LINE SMOOTH",
"353 115 OFFCURVE",
"375 137 OFFCURVE",
"375 166 CURVE SMOOTH",
"375 639 LINE SMOOTH",
"375 668 OFFCURVE",
"397 690 OFFCURVE",
"426 690 CURVE SMOOTH",
"439 690 LINE SMOOTH",
"468 690 OFFCURVE",
"490 668 OFFCURVE",
"490 639 CURVE SMOOTH",
"490 166 LINE SMOOTH",
"490 137 OFFCURVE",
"468 115 OFFCURVE",
"439 115 CURVE SMOOTH",
"426 115 LINE SMOOTH",
"397 115 OFFCURVE",
"375 93 OFFCURVE",
"375 64 CURVE SMOOTH",
"375 51 LINE SMOOTH",
"375 22 OFFCURVE",
"353 0 OFFCURVE",
"324 0 CURVE SMOOTH",
"311 0 LINE SMOOTH",
"282 0 OFFCURVE",
"260 22 OFFCURVE",
"260 51 CURVE SMOOTH",
"260 64 LINE SMOOTH",
"260 93 OFFCURVE",
"238 115 OFFCURVE",
"209 115 CURVE SMOOTH",
"196 115 LINE SMOOTH",
"167 115 OFFCURVE",
"145 137 OFFCURVE",
"145 166 CURVE SMOOTH",
"145 177 LINE SMOOTH",
"145 207 OFFCURVE",
"123 228 OFFCURVE",
"93 228 CURVE SMOOTH",
"82 228 LINE SMOOTH",
"53 228 OFFCURVE",
"30 251 OFFCURVE",
"30 280 CURVE SMOOTH",
"30 639 LINE SMOOTH"
);
}
);
width = 520;
},
{
hints = (
{
origin = "{0, 62}";
target = "{0, 6}";
type = Stem;
},
{
origin = "{0, 22}";
target = "{0, 30}";
type = Stem;
},
{
horizontal = 1;
origin = "{0, 50}";
target = "{0, 10}";
type = Stem;
},
{
horizontal = 1;
origin = "{0, 42}";
target = "{0, 18}";
type = Stem;
}
);
layerId = "52F3452F-C0C6-4900-9BFE-1786415B207F";
paths = (
{
closed = 1;
nodes = (
"30 668 OFFCURVE",
"52 690 OFFCURVE",
"81 690 CURVE SMOOTH",
"94 690 LINE SMOOTH",
"123 690 OFFCURVE",
"145 668 OFFCURVE",
"145 639 CURVE SMOOTH",
"145 281 LINE SMOOTH",
"145 252 OFFCURVE",
"167 230 OFFCURVE",
"196 230 CURVE SMOOTH",
"471 230 LINE SMOOTH",
"500 230 OFFCURVE",
"522 208 OFFCURVE",
"522 179 CURVE SMOOTH",
"522 166 LINE SMOOTH",
"522 137 OFFCURVE",
"544 115 OFFCURVE",
"573 115 CURVE SMOOTH",
"1332 115 LINE SMOOTH",
"1361 115 OFFCURVE",
"1383 137 OFFCURVE",
"1383 166 CURVE SMOOTH",
"1383 639 LINE SMOOTH",
"1383 668 OFFCURVE",
"1405 690 OFFCURVE",
"1434 690 CURVE SMOOTH",
"1447 690 LINE SMOOTH",
"1476 690 OFFCURVE",
"1498 668 OFFCURVE",
"1498 639 CURVE SMOOTH",
"1498 166 LINE SMOOTH",
"1498 137 OFFCURVE",
"1476 115 OFFCURVE",
"1447 115 CURVE SMOOTH",
"1434 115 LINE SMOOTH",
"1405 115 OFFCURVE",
"1383 93 OFFCURVE",
"1383 64 CURVE SMOOTH",
"1383 51 LINE SMOOTH",
"1383 22 OFFCURVE",
"1361 0 OFFCURVE",
"1332 0 CURVE SMOOTH",
"573 0 LINE SMOOTH",
"544 0 OFFCURVE",
"522 22 OFFCURVE",
"522 51 CURVE SMOOTH",
"522 64 LINE SMOOTH",
"522 93 OFFCURVE",
"500 115 OFFCURVE",
"471 115 CURVE SMOOTH",
"196 115 LINE SMOOTH",
"167 115 OFFCURVE",
"145 137 OFFCURVE",
"145 166 CURVE SMOOTH",
"145 177 LINE SMOOTH",
"145 207 OFFCURVE",
"123 228 OFFCURVE",
"93 228 CURVE SMOOTH",
"82 228 LINE SMOOTH",
"53 228 OFFCURVE",
"30 251 OFFCURVE",
"30 280 CURVE SMOOTH",
"30 639 LINE SMOOTH"
);
}
);
width = 1528;
}
);
unicode = 0056;
},
{
glyphname = W;
lastChange = "2024-09-03 14:35:52 +0000";
layers = (
{
hints = (
{
origin = "{0, 40}";
target = "{0, 47}";
type = Stem;
},
{
origin = "{0, 56}";
target = "{0, 63}";
type = Stem;
},
{
origin = "{0, 72}";
target = "{0, 79}";
type = Stem;
},
{
horizontal = 1;
origin = "{0, 28}";
target = "{0, 68}";
type = Stem;
}
);
layerId = "B9294602-EB87-4DCD-A39F-D52598F560AD";
paths = (
{
closed = 1;
nodes = (
"605 166 LINE SMOOTH",
"605 137 OFFCURVE",
"584 115 OFFCURVE",
"555 115 CURVE SMOOTH",
"540 115 LINE SMOOTH",
"511 115 OFFCURVE",
"490 93 OFFCURVE",
"490 64 CURVE SMOOTH",
"490 51 LINE SMOOTH",
"490 22 OFFCURVE",
"469 0 OFFCURVE",
"440 0 CURVE SMOOTH",
"425 0 LINE SMOOTH",
"396 0 OFFCURVE",
"375 22 OFFCURVE",
"375 51 CURVE SMOOTH",
"375 64 LINE SMOOTH",
"375 93 OFFCURVE",
"354 115 OFFCURVE",
"325 115 CURVE SMOOTH",
"310 115 LINE SMOOTH",
"281 115 OFFCURVE",
"260 93 OFFCURVE",
"260 64 CURVE SMOOTH",
"260 51 LINE SMOOTH",
"260 22 OFFCURVE",
"239 0 OFFCURVE",
"210 0 CURVE SMOOTH",
"195 0 LINE SMOOTH",
"166 0 OFFCURVE",
"145 22 OFFCURVE",
"145 51 CURVE SMOOTH",
"145 64 LINE SMOOTH",
"145 93 OFFCURVE",
"124 115 OFFCURVE",
"95 115 CURVE SMOOTH",
"80 115 LINE SMOOTH",
"51 115 OFFCURVE",
"30 137 OFFCURVE",
"30 166 CURVE SMOOTH",
"30 639 LINE SMOOTH",
"30 668 OFFCURVE",
"51 690 OFFCURVE",
"80 690 CURVE SMOOTH",
"95 690 LINE SMOOTH",
"124 690 OFFCURVE",
"145 668 OFFCURVE",
"145 639 CURVE SMOOTH",
"145 166 LINE SMOOTH",
"145 137 OFFCURVE",
"166 115 OFFCURVE",
"195 115 CURVE SMOOTH",
"210 115 LINE SMOOTH",
"239 115 OFFCURVE",
"260 137 OFFCURVE",
"260 166 CURVE SMOOTH",
"260 639 LINE SMOOTH",
"260 668 OFFCURVE",
"281 690 OFFCURVE",
"310 690 CURVE SMOOTH",
"325 690 LINE SMOOTH",
"354 690 OFFCURVE",
"375 668 OFFCURVE",
"375 639 CURVE SMOOTH",
"375 166 LINE SMOOTH",
"375 137 OFFCURVE",
"396 115 OFFCURVE",
"425 115 CURVE SMOOTH",
"440 115 LINE SMOOTH",
"469 115 OFFCURVE",
"490 137 OFFCURVE",
"490 166 CURVE SMOOTH",
"490 639 LINE SMOOTH",
"490 668 OFFCURVE",
"511 690 OFFCURVE",
"540 690 CURVE SMOOTH",
"555 690 LINE SMOOTH",
"584 690 OFFCURVE",
"605 668 OFFCURVE",
"605 639 CURVE SMOOTH"
);
}
);
width = 635;
},
{
hints = (
{
origin = "{0, 56}";
target = "{0, 64}";
type = Stem;
},
{
origin = "{0, 39}";
target = "{0, 47}";
type = Stem;
},
{
origin = "{0, 71}";
target = "{0, 79}";
type = Stem;
},
{
horizontal = 1;
origin = "{0, 12}";
target = "{0, 51}";
type = Stem;
},
{
horizontal = 1;
origin = "{0, 27}";
target = "{0, 68}";
type = Stem;
}
);
layerId = "52F3452F-C0C6-4900-9BFE-1786415B207F";
paths = (
{
closed = 1;
nodes = (
"1499 166 LINE SMOOTH",
"1499 137 OFFCURVE",
"1478 115 OFFCURVE",
"1449 115 CURVE SMOOTH",
"1434 115 LINE SMOOTH",
"1405 115 OFFCURVE",
"1384 93 OFFCURVE",
"1384 64 CURVE SMOOTH",
"1384 51 LINE SMOOTH",
"1384 22 OFFCURVE",
"1363 0 OFFCURVE",
"1334 0 CURVE SMOOTH",
"872 0 LINE SMOOTH",
"843 0 OFFCURVE",
"822 22 OFFCURVE",
"822 51 CURVE SMOOTH",
"822 64 LINE SMOOTH",
"822 93 OFFCURVE",
"801 115 OFFCURVE",
"772 115 CURVE SMOOTH",
"757 115 LINE SMOOTH",
"728 115 OFFCURVE",
"707 93 OFFCURVE",
"707 64 CURVE SMOOTH",
"707 51 LINE SMOOTH",
"707 22 OFFCURVE",
"686 0 OFFCURVE",
"657 0 CURVE SMOOTH",
"195 0 LINE SMOOTH",
"166 0 OFFCURVE",
"145 22 OFFCURVE",
"145 51 CURVE SMOOTH",
"145 64 LINE SMOOTH",
"145 93 OFFCURVE",
"124 115 OFFCURVE",
"95 115 CURVE SMOOTH",
"80 115 LINE SMOOTH",
"51 115 OFFCURVE",
"30 137 OFFCURVE",
"30 166 CURVE SMOOTH",
"30 639 LINE SMOOTH",
"30 668 OFFCURVE",
"51 690 OFFCURVE",
"80 690 CURVE SMOOTH",
"95 690 LINE SMOOTH",
"124 690 OFFCURVE",
"145 668 OFFCURVE",
"145 639 CURVE SMOOTH",
"145 166 LINE SMOOTH",
"145 137 OFFCURVE",
"166 115 OFFCURVE",
"195 115 CURVE SMOOTH",
"657 115 LINE SMOOTH",
"686 115 OFFCURVE",
"707 137 OFFCURVE",
"707 166 CURVE SMOOTH",
"707 639 LINE SMOOTH",
"707 668 OFFCURVE",
"728 690 OFFCURVE",
"757 690 CURVE SMOOTH",
"772 690 LINE SMOOTH",
"801 690 OFFCURVE",
"822 668 OFFCURVE",
"822 639 CURVE SMOOTH",
"822 166 LINE SMOOTH",
"822 137 OFFCURVE",
"843 115 OFFCURVE",
"872 115 CURVE SMOOTH",
"1334 115 LINE SMOOTH",
"1363 115 OFFCURVE",
"1384 137 OFFCURVE",
"1384 166 CURVE SMOOTH",
"1384 639 LINE SMOOTH",
"1384 668 OFFCURVE",
"1405 690 OFFCURVE",
"1434 690 CURVE SMOOTH",
"1449 690 LINE SMOOTH",
"1478 690 OFFCURVE",
"1499 668 OFFCURVE",
"1499 639 CURVE SMOOTH"
);
}
);
width = 1529;
}
);
unicode = 0057;
},
{
glyphname = X;
lastChange = "2024-09-03 14:36:01 +0000";
layers = (
{
hints = (
{
horizontal = 1;
origin = "{0, 75}";
target = "{0, 67}";
type = Stem;
},
{
origin = "{0, 79}";
target = "{0, 71}";
type = Stem;
},
{
origin = "{0, 47}";
target = "{0, 39}";
type = Stem;
}
);
layerId = "B9294602-EB87-4DCD-A39F-D52598F560AD";
paths = (
{
closed = 1;
nodes = (
"30 22 OFFCURVE",
"52 0 OFFCURVE",
"81 0 CURVE SMOOTH",
"94 0 LINE SMOOTH",
"123 0 OFFCURVE",
"145 22 OFFCURVE",
"145 51 CURVE SMOOTH",
"145 294 LINE SMOOTH",
"145 323 OFFCURVE",
"167 345 OFFCURVE",
"196 345 CURVE SMOOTH",
"324 345 LINE SMOOTH",
"349 345 OFFCURVE",
"375 323 OFFCURVE",
"375 294 CURVE SMOOTH",
"375 51 LINE SMOOTH",
"375 22 OFFCURVE",
"397 0 OFFCURVE",
"426 0 CURVE SMOOTH",
"439 0 LINE SMOOTH",
"468 0 OFFCURVE",
"490 22 OFFCURVE",
"490 51 CURVE SMOOTH",
"490 294 LINE SMOOTH",
"490 323 OFFCURVE",
"468 345 OFFCURVE",
"439 345 CURVE SMOOTH",
"426 345 LINE SMOOTH",
"397 345 OFFCURVE",
"375 367 OFFCURVE",
"375 396 CURVE SMOOTH",
"375 409 LINE SMOOTH",
"375 438 OFFCURVE",
"397 460 OFFCURVE",
"426 460 CURVE SMOOTH",
"439 460 LINE SMOOTH",
"468 460 OFFCURVE",
"490 482 OFFCURVE",
"490 511 CURVE SMOOTH",
"490 639 LINE SMOOTH",
"490 668 OFFCURVE",
"468 690 OFFCURVE",
"439 690 CURVE SMOOTH",
"426 690 LINE SMOOTH",
"397 690 OFFCURVE",
"375 668 OFFCURVE",
"375 639 CURVE SMOOTH",
"375 511 LINE SMOOTH",
"375 482 OFFCURVE",
"353 460 OFFCURVE",
"324 460 CURVE SMOOTH",
"196 460 LINE SMOOTH",
"167 460 OFFCURVE",
"145 482 OFFCURVE",
"145 511 CURVE SMOOTH",
"145 639 LINE SMOOTH",
"145 668 OFFCURVE",
"123 690 OFFCURVE",
"94 690 CURVE SMOOTH",
"81 690 LINE SMOOTH",
"53 690 OFFCURVE",
"30 668 OFFCURVE",
"30 639 CURVE SMOOTH",
"30 511 LINE SMOOTH",
"30 482 OFFCURVE",
"52 460 OFFCURVE",
"81 460 CURVE SMOOTH",
"94 460 LINE SMOOTH",
"123 460 OFFCURVE",
"145 438 OFFCURVE",
"145 409 CURVE SMOOTH",
"145 396 LINE SMOOTH",
"145 367 OFFCURVE",
"123 345 OFFCURVE",
"94 345 CURVE SMOOTH",
"81 345 LINE SMOOTH",
"52 345 OFFCURVE",
"30 323 OFFCURVE",
"30 294 CURVE SMOOTH",
"30 51 LINE SMOOTH"
);
}
);
width = 520;
},
{
hints = (
{
horizontal = 1;
origin = "{0, 75}";
target = "{0, 67}";
type = Stem;
},
{
origin = "{0, 79}";
target = "{0, 71}";
type = Stem;
},
{
origin = "{0, 47}";
target = "{0, 39}";
type = Stem;
}
);
layerId = "52F3452F-C0C6-4900-9BFE-1786415B207F";
paths = (
{
closed = 1;
nodes = (
"30 22 OFFCURVE",
"52 0 OFFCURVE",
"81 0 CURVE SMOOTH",
"94 0 LINE SMOOTH",
"123 0 OFFCURVE",
"145 22 OFFCURVE",
"145 51 CURVE SMOOTH",
"145 294 LINE SMOOTH",
"145 323 OFFCURVE",
"167 345 OFFCURVE",
"196 345 CURVE SMOOTH",
"1332 345 LINE SMOOTH",
"1357 345 OFFCURVE",
"1383 323 OFFCURVE",
"1383 294 CURVE SMOOTH",
"1383 51 LINE SMOOTH",
"1383 22 OFFCURVE",
"1405 0 OFFCURVE",
"1434 0 CURVE SMOOTH",
"1447 0 LINE SMOOTH",
"1476 0 OFFCURVE",
"1498 22 OFFCURVE",
"1498 51 CURVE SMOOTH",
"1498 294 LINE SMOOTH",
"1498 323 OFFCURVE",
"1476 345 OFFCURVE",
"1447 345 CURVE SMOOTH",
"1434 345 LINE SMOOTH",
"1405 345 OFFCURVE",
"1383 367 OFFCURVE",
"1383 396 CURVE SMOOTH",
"1383 409 LINE SMOOTH",
"1383 438 OFFCURVE",
"1405 460 OFFCURVE",
"1434 460 CURVE SMOOTH",
"1447 460 LINE SMOOTH",
"1476 460 OFFCURVE",
"1498 482 OFFCURVE",
"1498 511 CURVE SMOOTH",
"1498 639 LINE SMOOTH",
"1498 668 OFFCURVE",
"1476 690 OFFCURVE",
"1447 690 CURVE SMOOTH",
"1434 690 LINE SMOOTH",
"1405 690 OFFCURVE",
"1383 668 OFFCURVE",
"1383 639 CURVE SMOOTH",
"1383 511 LINE SMOOTH",
"1383 482 OFFCURVE",
"1361 460 OFFCURVE",
"1332 460 CURVE SMOOTH",
"196 460 LINE SMOOTH",
"167 460 OFFCURVE",
"145 482 OFFCURVE",
"145 511 CURVE SMOOTH",
"145 639 LINE SMOOTH",
"145 668 OFFCURVE",
"123 690 OFFCURVE",
"94 690 CURVE SMOOTH",
"81 690 LINE SMOOTH",
"53 690 OFFCURVE",
"30 668 OFFCURVE",
"30 639 CURVE SMOOTH",
"30 511 LINE SMOOTH",
"30 482 OFFCURVE",
"52 460 OFFCURVE",
"81 460 CURVE SMOOTH",
"94 460 LINE SMOOTH",
"123 460 OFFCURVE",
"145 438 OFFCURVE",
"145 409 CURVE SMOOTH",
"145 396 LINE SMOOTH",
"145 367 OFFCURVE",
"123 345 OFFCURVE",
"94 345 CURVE SMOOTH",
"81 345 LINE SMOOTH",
"52 345 OFFCURVE",
"30 323 OFFCURVE",
"30 294 CURVE SMOOTH",
"30 51 LINE SMOOTH"
);
}
);
width = 1528;
}
);
unicode = 0058;
},
{
glyphname = Y;
lastChange = "2024-09-04 09:33:46 +0000";
layers = (
{
hints = (
{
horizontal = 1;
origin = "{0, 11}";
target = "{0, 59}";
type = Stem;
},
{
horizontal = 1;
origin = "{0, 67}";
target = "{0, 43}";
type = Stem;
},
{
origin = "{0, 71}";
target = "{0, 63}";
type = Stem;
},
{
origin = "{0, 55}";
target = "{0, 15}";
type = Stem;
}
);
layerId = "B9294602-EB87-4DCD-A39F-D52598F560AD";
paths = (
{
closed = 1;
nodes = (
"30 137 OFFCURVE",
"52 115 OFFCURVE",
"81 115 CURVE SMOOTH",
"94 115 LINE SMOOTH",
"123 115 OFFCURVE",
"145 93 OFFCURVE",
"145 64 CURVE SMOOTH",
"145 51 LINE SMOOTH",
"145 22 OFFCURVE",
"167 0 OFFCURVE",
"196 0 CURVE SMOOTH",
"439 0 LINE SMOOTH",
"468 0 OFFCURVE",
"490 22 OFFCURVE",
"490 51 CURVE SMOOTH",
"490 639 LINE SMOOTH",
"490 668 OFFCURVE",
"468 690 OFFCURVE",
"439 690 CURVE SMOOTH",
"426 690 LINE SMOOTH",
"397 690 OFFCURVE",
"375 668 OFFCURVE",
"375 639 CURVE SMOOTH",
"375 396 LINE SMOOTH",
"375 367 OFFCURVE",
"353 345 OFFCURVE",
"324 345 CURVE SMOOTH",
"196 345 LINE SMOOTH",
"167 345 OFFCURVE",
"145 367 OFFCURVE",
"145 396 CURVE SMOOTH",
"145 639 LINE SMOOTH",
"145 668 OFFCURVE",
"123 690 OFFCURVE",
"94 690 CURVE SMOOTH",
"81 690 LINE SMOOTH",
"52 690 OFFCURVE",
"30 668 OFFCURVE",
"30 639 CURVE SMOOTH",
"30 396 LINE SMOOTH",
"30 367 OFFCURVE",
"52 345 OFFCURVE",
"81 345 CURVE SMOOTH",
"94 345 LINE SMOOTH",
"123 345 OFFCURVE",
"145 323 OFFCURVE",
"145 294 CURVE SMOOTH",
"145 281 LINE SMOOTH",
"145 252 OFFCURVE",
"167 230 OFFCURVE",
"196 230 CURVE SMOOTH",
"324 230 LINE SMOOTH",
"353 230 OFFCURVE",
"375 208 OFFCURVE",
"375 179 CURVE SMOOTH",
"375 166 LINE SMOOTH",
"375 137 OFFCURVE",
"352 115 OFFCURVE",
"323 115 CURVE SMOOTH",
"196 115 LINE SMOOTH",
"167 115 OFFCURVE",
"145 137 OFFCURVE",
"145 166 CURVE SMOOTH",
"145 179 LINE SMOOTH",
"145 208 OFFCURVE",
"123 230 OFFCURVE",
"94 230 CURVE SMOOTH",
"81 230 LINE SMOOTH",
"52 230 OFFCURVE",
"30 208 OFFCURVE",
"30 179 CURVE SMOOTH",
"30 166 LINE SMOOTH"
);
}
);
width = 520;
},
{
hints = (
{
horizontal = 1;
origin = "{0, 11}";
target = "{0, 59}";
type = Stem;
},
{
horizontal = 1;
origin = "{0, 67}";
target = "{0, 43}";
type = Stem;
},
{
origin = "{0, 71}";
target = "{0, 63}";
type = Stem;
},
{
origin = "{0, 55}";
target = "{0, 15}";
type = Stem;
}
);
layerId = "52F3452F-C0C6-4900-9BFE-1786415B207F";
paths = (
{
closed = 1;
nodes = (
"30 137 OFFCURVE",
"52 115 OFFCURVE",
"81 115 CURVE SMOOTH",
"94 115 LINE SMOOTH",
"123 115 OFFCURVE",
"145 93 OFFCURVE",
"145 64 CURVE SMOOTH",
"145 51 LINE SMOOTH",
"145 22 OFFCURVE",
"167 0 OFFCURVE",
"196 0 CURVE SMOOTH",
"1447 0 LINE SMOOTH",
"1476 0 OFFCURVE",
"1498 22 OFFCURVE",
"1498 51 CURVE SMOOTH",
"1498 639 LINE SMOOTH",
"1498 668 OFFCURVE",
"1476 690 OFFCURVE",
"1447 690 CURVE SMOOTH",
"1434 690 LINE SMOOTH",
"1405 690 OFFCURVE",
"1383 668 OFFCURVE",
"1383 639 CURVE SMOOTH",
"1383 396 LINE SMOOTH",
"1383 367 OFFCURVE",
"1361 345 OFFCURVE",
"1332 345 CURVE SMOOTH",
"196 345 LINE SMOOTH",
"167 345 OFFCURVE",
"145 367 OFFCURVE",
"145 396 CURVE SMOOTH",
"145 639 LINE SMOOTH",
"145 668 OFFCURVE",
"123 690 OFFCURVE",
"94 690 CURVE SMOOTH",
"81 690 LINE SMOOTH",
"52 690 OFFCURVE",
"30 668 OFFCURVE",
"30 639 CURVE SMOOTH",
"30 396 LINE SMOOTH",
"30 367 OFFCURVE",
"52 345 OFFCURVE",
"81 345 CURVE SMOOTH",
"94 345 LINE SMOOTH",
"123 345 OFFCURVE",
"145 323 OFFCURVE",
"145 294 CURVE SMOOTH",
"145 281 LINE SMOOTH",
"145 252 OFFCURVE",
"167 230 OFFCURVE",
"196 230 CURVE SMOOTH",
"1332 230 LINE SMOOTH",
"1361 230 OFFCURVE",
"1383 208 OFFCURVE",
"1383 179 CURVE SMOOTH",
"1383 166 LINE SMOOTH",
"1383 137 OFFCURVE",
"1360 115 OFFCURVE",
"1331 115 CURVE SMOOTH",
"196 115 LINE SMOOTH",
"167 115 OFFCURVE",
"145 137 OFFCURVE",
"145 166 CURVE SMOOTH",
"145 179 LINE SMOOTH",
"145 208 OFFCURVE",
"123 230 OFFCURVE",
"94 230 CURVE SMOOTH",
"81 230 LINE SMOOTH",
"52 230 OFFCURVE",
"30 208 OFFCURVE",
"30 179 CURVE SMOOTH",
"30 166 LINE SMOOTH"
);
}
);
width = 1528;
}
);
unicode = 0059;
},
{
glyphname = Z;
lastChange = "2024-09-03 14:37:22 +0000";
layers = (
{
hints = (
{
horizontal = 1;
origin = "{0, 63}";
target = "{0, 8}";
type = Stem;
},
{
horizontal = 1;
origin = "{0, 56}";
target = "{0, 48}";
type = Stem;
},
{
horizontal = 1;
origin = "{0, 32}";
target = "{0, 40}";
type = Stem;
},
{
origin = "{0, 60}";
target = "{0, 52}";
type = Stem;
},
{
origin = "{0, 44}";
target = "{0, 28}";
type = Stem;
}
);
layerId = "B9294602-EB87-4DCD-A39F-D52598F560AD";
paths = (
{
closed = 1;
nodes = (
"439 0 LINE SMOOTH",
"468 0 OFFCURVE",
"490 22 OFFCURVE",
"490 51 CURVE SMOOTH",
"490 64 LINE SMOOTH",
"490 93 OFFCURVE",
"468 115 OFFCURVE",
"439 115 CURVE SMOOTH",
"196 115 LINE SMOOTH",
"167 115 OFFCURVE",
"145 137 OFFCURVE",
"145 166 CURVE SMOOTH",
"145 294 LINE SMOOTH",
"145 323 OFFCURVE",
"167 345 OFFCURVE",
"196 345 CURVE SMOOTH",
"324 345 LINE SMOOTH",
"353 345 OFFCURVE",
"375 367 OFFCURVE",
"375 396 CURVE SMOOTH",
"375 409 LINE SMOOTH",
"375 438 OFFCURVE",
"397 460 OFFCURVE",
"426 460 CURVE SMOOTH",
"439 460 LINE SMOOTH",
"468 460 OFFCURVE",
"490 482 OFFCURVE",
"490 511 CURVE SMOOTH",
"490 639 LINE SMOOTH",
"490 668 OFFCURVE",
"468 690 OFFCURVE",
"439 690 CURVE SMOOTH",
"81 690 LINE SMOOTH",
"52 690 OFFCURVE",
"30 668 OFFCURVE",
"30 639 CURVE SMOOTH",
"30 626 LINE SMOOTH",
"30 597 OFFCURVE",
"52 575 OFFCURVE",
"81 575 CURVE SMOOTH",
"324 575 LINE SMOOTH",
"353 575 OFFCURVE",
"375 553 OFFCURVE",
"375 524 CURVE SMOOTH",
"375 511 LINE SMOOTH",
"375 482 OFFCURVE",
"353 460 OFFCURVE",
"324 460 CURVE SMOOTH",
"196 460 LINE SMOOTH",
"167 460 OFFCURVE",
"145 438 OFFCURVE",
"145 409 CURVE SMOOTH",
"145 396 LINE SMOOTH",
"145 367 OFFCURVE",
"123 345 OFFCURVE",
"94 345 CURVE SMOOTH",
"81 345 LINE SMOOTH",
"52 345 OFFCURVE",
"30 323 OFFCURVE",
"30 294 CURVE SMOOTH",
"30 51 LINE SMOOTH",
"30 22 OFFCURVE",
"52 0 OFFCURVE",
"81 0 CURVE SMOOTH"
);
}
);
width = 520;
},
{
hints = (
{
horizontal = 1;
origin = "{0, 63}";
target = "{0, 8}";
type = Stem;
},
{
horizontal = 1;
origin = "{0, 56}";
target = "{0, 48}";
type = Stem;
},
{
horizontal = 1;
origin = "{0, 40}";
target = "{0, 32}";
type = Stem;
},
{
origin = "{0, 60}";
target = "{0, 52}";
type = Stem;
},
{
origin = "{0, 44}";
target = "{0, 28}";
type = Stem;
}
);
layerId = "52F3452F-C0C6-4900-9BFE-1786415B207F";
paths = (
{
closed = 1;
nodes = (
"1447 0 LINE SMOOTH",
"1476 0 OFFCURVE",
"1498 22 OFFCURVE",
"1498 51 CURVE SMOOTH",
"1498 64 LINE SMOOTH",
"1498 93 OFFCURVE",
"1476 115 OFFCURVE",
"1447 115 CURVE SMOOTH",
"196 115 LINE SMOOTH",
"167 115 OFFCURVE",
"145 137 OFFCURVE",
"145 166 CURVE SMOOTH",
"145 294 LINE SMOOTH",
"145 323 OFFCURVE",
"167 345 OFFCURVE",
"196 345 CURVE SMOOTH",
"1332 345 LINE SMOOTH",
"1361 345 OFFCURVE",
"1383 367 OFFCURVE",
"1383 396 CURVE SMOOTH",
"1383 409 LINE SMOOTH",
"1383 438 OFFCURVE",
"1405 460 OFFCURVE",
"1434 460 CURVE SMOOTH",
"1447 460 LINE SMOOTH",
"1476 460 OFFCURVE",
"1498 482 OFFCURVE",
"1498 511 CURVE SMOOTH",
"1498 639 LINE SMOOTH",
"1498 668 OFFCURVE",
"1476 690 OFFCURVE",
"1447 690 CURVE SMOOTH",
"81 690 LINE SMOOTH",
"52 690 OFFCURVE",
"30 668 OFFCURVE",
"30 639 CURVE SMOOTH",
"30 626 LINE SMOOTH",
"30 597 OFFCURVE",
"52 575 OFFCURVE",
"81 575 CURVE SMOOTH",
"1332 575 LINE SMOOTH",
"1361 575 OFFCURVE",
"1383 553 OFFCURVE",
"1383 524 CURVE SMOOTH",
"1383 511 LINE SMOOTH",
"1383 482 OFFCURVE",
"1361 460 OFFCURVE",
"1332 460 CURVE SMOOTH",
"196 460 LINE SMOOTH",
"167 460 OFFCURVE",
"145 438 OFFCURVE",
"145 409 CURVE SMOOTH",
"145 396 LINE SMOOTH",
"145 367 OFFCURVE",
"123 345 OFFCURVE",
"94 345 CURVE SMOOTH",
"81 345 LINE SMOOTH",
"52 345 OFFCURVE",
"30 323 OFFCURVE",
"30 294 CURVE SMOOTH",
"30 51 LINE SMOOTH",
"30 22 OFFCURVE",
"52 0 OFFCURVE",
"81 0 CURVE SMOOTH"
);
}
);
width = 1528;
}
);
unicode = 005A;
},
{
glyphname = a;
lastChange = "2024-09-03 14:37:52 +0000";
layers = (
{
hints = (
{
horizontal = 1;
origin = "{0, 63}";
target = "{1, 8}";
type = Stem;
},
{
horizontal = 1;
origin = "{1, 15}";
target = "{0, 48}";
type = Stem;
},
{
horizontal = 1;
origin = "{0, 39}";
target = "{0, 31}";
type = Stem;
},
{
origin = "{0, 52}";
target = "{1, 12}";
type = Stem;
},
{
origin = "{1, 4}";
target = "{0, 20}";
type = Stem;
}
);
layerId = "B9294602-EB87-4DCD-A39F-D52598F560AD";
paths = (
{
closed = 1;
nodes = (
"329 0 LINE",
"354 0 OFFCURVE",
"375 21 OFFCURVE",
"375 46 CURVE",
"375 184 LINE",
"375 210 OFFCURVE",
"354 230 OFFCURVE",
"329 230 CURVE",
"306 230 LINE",
"281 230 OFFCURVE",
"260 251 OFFCURVE",
"260 276 CURVE",
"260 299 LINE",
"260 324 OFFCURVE",
"281 344 OFFCURVE",
"306 344 CURVE",
"329 344 LINE",
"354 344 OFFCURVE",
"375 365 OFFCURVE",
"375 390 CURVE",
"375 413 LINE",
"375 440 OFFCURVE",
"354 460 OFFCURVE",
"329 460 CURVE",
"306 460 LINE",
"281 460 OFFCURVE",
"260 481 OFFCURVE",
"260 506 CURVE",
"260 529 LINE",
"260 554 OFFCURVE",
"240 575 OFFCURVE",
"215 575 CURVE",
"76 575 LINE",
"51 575 OFFCURVE",
"30 554 OFFCURVE",
"30 529 CURVE",
"30 506 LINE",
"30 480 OFFCURVE",
"51 460 OFFCURVE",
"76 460 CURVE",
"214 460 LINE",
"240 460 OFFCURVE",
"260 439 OFFCURVE",
"260 413 CURVE",
"260 390 LINE",
"260 365 OFFCURVE",
"240 345 OFFCURVE",
"214 345 CURVE",
"76 345 LINE",
"51 345 OFFCURVE",
"30 324 OFFCURVE",
"30 299 CURVE",
"30 161 LINE",
"30 135 OFFCURVE",
"51 114 OFFCURVE",
"76 114 CURVE",
"99 114 LINE",
"124 114 OFFCURVE",
"145 94 OFFCURVE",
"145 69 CURVE",
"145 46 LINE",
"145 21 OFFCURVE",
"165 0 OFFCURVE",
"192 0 CURVE"
);
},
{
closed = 1;
nodes = (
"214 230 LINE SMOOTH",
"240 230 OFFCURVE",
"260 209 OFFCURVE",
"260 184 CURVE SMOOTH",
"260 161 LINE SMOOTH",
"260 135 OFFCURVE",
"240 115 OFFCURVE",
"214 115 CURVE SMOOTH",
"192 115 LINE SMOOTH",
"165 115 OFFCURVE",
"145 135 OFFCURVE",
"145 161 CURVE SMOOTH",
"145 184 LINE SMOOTH",
"145 209 OFFCURVE",
"165 230 OFFCURVE",
"192 230 CURVE SMOOTH"
);
}
);
width = 405;
},
{
hints = (
{
horizontal = 1;
origin = "{0, 63}";
target = "{1, 8}";
type = Stem;
},
{
horizontal = 1;
origin = "{1, 15}";
target = "{0, 48}";
type = Stem;
},
{
horizontal = 1;
origin = "{0, 40}";
target = "{0, 32}";
type = Stem;
},
{
origin = "{0, 52}";
target = "{1, 12}";
type = Stem;
},
{
origin = "{1, 4}";
target = "{0, 20}";
type = Stem;
}
);
layerId = "52F3452F-C0C6-4900-9BFE-1786415B207F";
paths = (
{
closed = 1;
nodes = (
"1452 0 LINE",
"1477 0 OFFCURVE",
"1498 21 OFFCURVE",
"1498 46 CURVE",
"1498 184 LINE",
"1498 210 OFFCURVE",
"1477 230 OFFCURVE",
"1452 230 CURVE",
"1429 230 LINE",
"1404 230 OFFCURVE",
"1383 251 OFFCURVE",
"1383 276 CURVE",
"1383 299 LINE",
"1383 324 OFFCURVE",
"1404 344 OFFCURVE",
"1429 344 CURVE",
"1452 344 LINE",
"1477 344 OFFCURVE",
"1498 365 OFFCURVE",
"1498 390 CURVE",
"1498 413 LINE",
"1498 440 OFFCURVE",
"1477 460 OFFCURVE",
"1452 460 CURVE",
"1429 460 LINE",
"1404 460 OFFCURVE",
"1383 481 OFFCURVE",
"1383 506 CURVE",
"1383 529 LINE",
"1383 554 OFFCURVE",
"1363 575 OFFCURVE",
"1338 575 CURVE",
"76 575 LINE",
"51 575 OFFCURVE",
"30 554 OFFCURVE",
"30 529 CURVE",
"30 506 LINE",
"30 480 OFFCURVE",
"51 460 OFFCURVE",
"76 460 CURVE",
"1337 460 LINE",
"1363 460 OFFCURVE",
"1383 439 OFFCURVE",
"1383 413 CURVE",
"1383 390 LINE",
"1383 365 OFFCURVE",
"1363 345 OFFCURVE",
"1337 345 CURVE",
"76 345 LINE",
"51 345 OFFCURVE",
"30 324 OFFCURVE",
"30 299 CURVE",
"30 161 LINE",
"30 135 OFFCURVE",
"51 114 OFFCURVE",
"76 114 CURVE",
"99 114 LINE",
"124 114 OFFCURVE",
"145 94 OFFCURVE",
"145 69 CURVE",
"145 46 LINE",
"145 21 OFFCURVE",
"165 0 OFFCURVE",
"192 0 CURVE"
);
},
{
closed = 1;
nodes = (
"1337 230 LINE SMOOTH",
"1363 230 OFFCURVE",
"1383 209 OFFCURVE",
"1383 184 CURVE SMOOTH",
"1383 161 LINE SMOOTH",
"1383 135 OFFCURVE",
"1363 115 OFFCURVE",
"1337 115 CURVE SMOOTH",
"192 115 LINE SMOOTH",
"165 115 OFFCURVE",
"145 135 OFFCURVE",
"145 161 CURVE SMOOTH",
"145 184 LINE SMOOTH",
"145 209 OFFCURVE",
"165 230 OFFCURVE",
"192 230 CURVE SMOOTH"
);
}
);
width = 1528;
}
);
unicode = 0061;
},
{
glyphname = b;
lastChange = "2024-09-03 14:38:15 +0000";
layers = (
{
hints = (
{
horizontal = 1;
origin = "{0, 40}";
target = "{1, 15}";
type = Stem;
},
{
horizontal = 1;
origin = "{0, 31}";
target = "{0, 7}";
type = Stem;
},
{
origin = "{0, 36}";
target = "{1, 4}";
type = Stem;
},
{
origin = "{1, 12}";
target = "{0, 52}";
type = Stem;
}
);
layerId = "B9294602-EB87-4DCD-A39F-D52598F560AD";
paths = (
{
closed = 1;
nodes = (
"311 460 LINE SMOOTH",
"282 460 OFFCURVE",
"260 482 OFFCURVE",
"260 511 CURVE SMOOTH",
"260 524 LINE SMOOTH",
"260 553 OFFCURVE",
"238 575 OFFCURVE",
"209 575 CURVE SMOOTH",
"196 575 LINE SMOOTH",
"167 575 OFFCURVE",
"145 597 OFFCURVE",
"145 626 CURVE SMOOTH",
"145 754 LINE SMOOTH",
"145 783 OFFCURVE",
"123 805 OFFCURVE",
"94 805 CURVE SMOOTH",
"81 805 LINE SMOOTH",
"52 805 OFFCURVE",
"30 783 OFFCURVE",
"30 754 CURVE SMOOTH",
"30 626 LINE SMOOTH",
"30 597 OFFCURVE",
"52 575 OFFCURVE",
"81 575 CURVE SMOOTH",
"94 575 LINE SMOOTH",
"123 575 OFFCURVE",
"145 553 OFFCURVE",
"145 524 CURVE SMOOTH",
"145 511 LINE SMOOTH",
"145 482 OFFCURVE",
"123 460 OFFCURVE",
"94 460 CURVE SMOOTH",
"81 460 LINE SMOOTH",
"52 460 OFFCURVE",
"30 438 OFFCURVE",
"30 409 CURVE SMOOTH",
"30 51 LINE SMOOTH",
"30 22 OFFCURVE",
"52 0 OFFCURVE",
"81 0 CURVE SMOOTH",
"209 0 LINE SMOOTH",
"238 0 OFFCURVE",
"260 22 OFFCURVE",
"260 51 CURVE SMOOTH",
"260 64 LINE SMOOTH",
"260 93 OFFCURVE",
"282 115 OFFCURVE",
"311 115 CURVE SMOOTH",
"324 115 LINE SMOOTH",
"353 115 OFFCURVE",
"375 137 OFFCURVE",
"375 166 CURVE SMOOTH",
"375 409 LINE SMOOTH",
"375 438 OFFCURVE",
"353 460 OFFCURVE",
"324 460 CURVE SMOOTH"
);
},
{
closed = 1;
nodes = (
"196 115 LINE SMOOTH",
"167 115 OFFCURVE",
"145 137 OFFCURVE",
"145 166 CURVE SMOOTH",
"145 409 LINE SMOOTH",
"145 438 OFFCURVE",
"167 460 OFFCURVE",
"196 460 CURVE SMOOTH",
"209 460 LINE SMOOTH",
"238 460 OFFCURVE",
"260 438 OFFCURVE",
"260 409 CURVE SMOOTH",
"260 166 LINE SMOOTH",
"260 137 OFFCURVE",
"238 115 OFFCURVE",
"209 115 CURVE SMOOTH"
);
}
);
width = 405;
},
{
hints = (
{
horizontal = 1;
origin = "{0, 40}";
target = "{1, 15}";
type = Stem;
},
{
horizontal = 1;
origin = "{1, 8}";
target = "{0, 8}";
type = Stem;
},
{
origin = "{0, 36}";
target = "{1, 4}";
type = Stem;
},
{
origin = "{1, 12}";
target = "{0, 52}";
type = Stem;
}
);
layerId = "52F3452F-C0C6-4900-9BFE-1786415B207F";
paths = (
{
closed = 1;
nodes = (
"1434 460 LINE SMOOTH",
"1405 460 OFFCURVE",
"1383 482 OFFCURVE",
"1383 511 CURVE SMOOTH",
"1383 524 LINE SMOOTH",
"1383 553 OFFCURVE",
"1361 575 OFFCURVE",
"1332 575 CURVE SMOOTH",
"196 575 LINE SMOOTH",
"167 575 OFFCURVE",
"145 597 OFFCURVE",
"145 626 CURVE SMOOTH",
"145 754 LINE SMOOTH",
"145 783 OFFCURVE",
"123 805 OFFCURVE",
"94 805 CURVE SMOOTH",
"81 805 LINE SMOOTH",
"52 805 OFFCURVE",
"30 783 OFFCURVE",
"30 754 CURVE SMOOTH",
"30 626 LINE SMOOTH",
"30 597 OFFCURVE",
"52 575 OFFCURVE",
"81 575 CURVE SMOOTH",
"94 575 LINE SMOOTH",
"123 575 OFFCURVE",
"145 553 OFFCURVE",
"145 524 CURVE SMOOTH",
"145 511 LINE SMOOTH",
"145 482 OFFCURVE",
"123 460 OFFCURVE",
"94 460 CURVE SMOOTH",
"81 460 LINE SMOOTH",
"52 460 OFFCURVE",
"30 438 OFFCURVE",
"30 409 CURVE SMOOTH",
"30 51 LINE SMOOTH",
"30 22 OFFCURVE",
"52 0 OFFCURVE",
"81 0 CURVE SMOOTH",
"1332 0 LINE SMOOTH",
"1361 0 OFFCURVE",
"1383 22 OFFCURVE",
"1383 51 CURVE SMOOTH",
"1383 64 LINE SMOOTH",
"1383 93 OFFCURVE",
"1405 115 OFFCURVE",
"1434 115 CURVE SMOOTH",
"1447 115 LINE SMOOTH",
"1476 115 OFFCURVE",
"1498 137 OFFCURVE",
"1498 166 CURVE SMOOTH",
"1498 409 LINE SMOOTH",
"1498 438 OFFCURVE",
"1476 460 OFFCURVE",
"1447 460 CURVE SMOOTH"
);
},
{
closed = 1;
nodes = (
"196 115 LINE SMOOTH",
"167 115 OFFCURVE",
"145 137 OFFCURVE",
"145 166 CURVE SMOOTH",
"145 409 LINE SMOOTH",
"145 438 OFFCURVE",
"167 460 OFFCURVE",
"196 460 CURVE SMOOTH",
"1332 460 LINE SMOOTH",
"1361 460 OFFCURVE",
"1383 438 OFFCURVE",
"1383 409 CURVE SMOOTH",
"1383 166 LINE SMOOTH",
"1383 137 OFFCURVE",
"1361 115 OFFCURVE",
"1332 115 CURVE SMOOTH"
);
}
);
width = 1528;
}
);
unicode = 0062;
},
{
glyphname = c;
lastChange = "2024-09-03 14:38:44 +0000";
layers = (
{
hints = (
{
horizontal = 1;
origin = "{0, 58}";
target = "{0, 67}";
type = Stem;
},
{
horizontal = 1;
origin = "{0, 11}";
target = "{0, 35}";
type = Stem;
},
{
origin = "{0, 71}";
target = "{0, 39}";
type = Stem;
},
{
origin = "{0, 63}";
target = "{0, 55}";
type = Stem;
}
);
layerId = "B9294602-EB87-4DCD-A39F-D52598F560AD";
paths = (
{
closed = 1;
nodes = (
"30 137 OFFCURVE",
"52 115 OFFCURVE",
"81 115 CURVE SMOOTH",
"94 115 LINE SMOOTH",
"123 115 OFFCURVE",
"145 93 OFFCURVE",
"145 64 CURVE SMOOTH",
"145 51 LINE SMOOTH",
"145 22 OFFCURVE",
"167 0 OFFCURVE",
"196 0 CURVE SMOOTH",
"208 0 LINE SMOOTH",
"237 0 OFFCURVE",
"260 22 OFFCURVE",
"260 51 CURVE SMOOTH",
"260 64 LINE SMOOTH",
"260 93 OFFCURVE",
"282 115 OFFCURVE",
"311 115 CURVE SMOOTH",
"324 115 LINE SMOOTH",
"353 115 OFFCURVE",
"375 137 OFFCURVE",
"375 166 CURVE SMOOTH",
"375 181 LINE SMOOTH",
"375 210 OFFCURVE",
"353 230 OFFCURVE",
"324 230 CURVE SMOOTH",
"311 230 LINE SMOOTH",
"282 230 OFFCURVE",
"260 210 OFFCURVE",
"260 181 CURVE SMOOTH",
"260 166 LINE SMOOTH",
"260 137 OFFCURVE",
"238 115 OFFCURVE",
"209 115 CURVE SMOOTH",
"196 115 LINE SMOOTH",
"167 115 OFFCURVE",
"145 137 OFFCURVE",
"145 166 CURVE SMOOTH",
"145 409 LINE SMOOTH",
"145 438 OFFCURVE",
"167 460 OFFCURVE",
"196 460 CURVE SMOOTH",
"209 460 LINE SMOOTH",
"238 460 OFFCURVE",
"260 438 OFFCURVE",
"260 409 CURVE SMOOTH",
"260 394 LINE SMOOTH",
"260 365 OFFCURVE",
"282 345 OFFCURVE",
"311 345 CURVE SMOOTH",
"324 345 LINE SMOOTH",
"353 345 OFFCURVE",
"375 365 OFFCURVE",
"375 394 CURVE SMOOTH",
"375 409 LINE SMOOTH",
"375 438 OFFCURVE",
"353 460 OFFCURVE",
"324 460 CURVE SMOOTH",
"311 460 LINE SMOOTH",
"282 460 OFFCURVE",
"260 482 OFFCURVE",
"260 511 CURVE SMOOTH",
"260 524 LINE SMOOTH",
"260 553 OFFCURVE",
"237 575 OFFCURVE",
"208 575 CURVE SMOOTH",
"81 575 LINE SMOOTH",
"52 575 OFFCURVE",
"30 553 OFFCURVE",
"30 524 CURVE SMOOTH",
"30 166 LINE SMOOTH"
);
}
);
width = 405;
},
{
hints = (
{
horizontal = 1;
origin = "{0, 43}";
target = "{0, 67}";
type = Stem;
},
{
horizontal = 1;
origin = "{0, 11}";
target = "{0, 35}";
type = Stem;
},
{
origin = "{0, 71}";
target = "{0, 39}";
type = Stem;
},
{
origin = "{0, 46}";
target = "{0, 22}";
type = Stem;
}
);
layerId = "52F3452F-C0C6-4900-9BFE-1786415B207F";
paths = (
{
closed = 1;
nodes = (
"30 137 OFFCURVE",
"52 115 OFFCURVE",
"81 115 CURVE SMOOTH",
"94 115 LINE SMOOTH",
"123 115 OFFCURVE",
"145 93 OFFCURVE",
"145 64 CURVE SMOOTH",
"145 51 LINE SMOOTH",
"145 22 OFFCURVE",
"167 0 OFFCURVE",
"196 0 CURVE SMOOTH",
"1331 0 LINE SMOOTH",
"1360 0 OFFCURVE",
"1383 22 OFFCURVE",
"1383 51 CURVE SMOOTH",
"1383 64 LINE SMOOTH",
"1383 93 OFFCURVE",
"1405 115 OFFCURVE",
"1434 115 CURVE SMOOTH",
"1447 115 LINE SMOOTH",
"1476 115 OFFCURVE",
"1498 137 OFFCURVE",
"1498 166 CURVE SMOOTH",
"1498 181 LINE SMOOTH",
"1498 210 OFFCURVE",
"1476 230 OFFCURVE",
"1447 230 CURVE SMOOTH",
"1434 230 LINE SMOOTH",
"1405 230 OFFCURVE",
"1383 210 OFFCURVE",
"1383 181 CURVE SMOOTH",
"1383 166 LINE SMOOTH",
"1383 137 OFFCURVE",
"1361 115 OFFCURVE",
"1332 115 CURVE SMOOTH",
"196 115 LINE SMOOTH",
"167 115 OFFCURVE",
"145 137 OFFCURVE",
"145 166 CURVE SMOOTH",
"145 409 LINE SMOOTH",
"145 438 OFFCURVE",
"167 460 OFFCURVE",
"196 460 CURVE SMOOTH",
"1332 460 LINE SMOOTH",
"1361 460 OFFCURVE",
"1383 438 OFFCURVE",
"1383 409 CURVE SMOOTH",
"1383 394 LINE SMOOTH",
"1383 365 OFFCURVE",
"1405 345 OFFCURVE",
"1434 345 CURVE SMOOTH",
"1447 345 LINE SMOOTH",
"1476 345 OFFCURVE",
"1498 365 OFFCURVE",
"1498 394 CURVE SMOOTH",
"1498 409 LINE SMOOTH",
"1498 438 OFFCURVE",
"1476 460 OFFCURVE",
"1447 460 CURVE SMOOTH",
"1434 460 LINE SMOOTH",
"1405 460 OFFCURVE",
"1383 482 OFFCURVE",
"1383 511 CURVE SMOOTH",
"1383 524 LINE SMOOTH",
"1383 553 OFFCURVE",
"1360 575 OFFCURVE",
"1331 575 CURVE SMOOTH",
"81 575 LINE SMOOTH",
"52 575 OFFCURVE",
"30 553 OFFCURVE",
"30 524 CURVE SMOOTH",
"30 166 LINE SMOOTH"
);
}
);
width = 1528;
}
);
leftKerningGroup = o;
unicode = 0063;
},
{
glyphname = d;
lastChange = "2024-09-03 16:38:24 +0000";
layers = (
{
hints = (
{
horizontal = 1;
origin = "{0, 15}";
target = "{1, 15}";
type = Stem;
},
{
horizontal = 1;
origin = "{1, 7}";
target = "{0, 46}";
type = Stem;
},
{
origin = "{0, 3}";
target = "{1, 3}";
type = Stem;
},
{
origin = "{1, 11}";
target = "{0, 35}";
type = Stem;
}
);
layerId = "B9294602-EB87-4DCD-A39F-D52598F560AD";
paths = (
{
closed = 1;
nodes = (
"52 460 OFFCURVE",
"30 438 OFFCURVE",
"30 409 CURVE SMOOTH",
"30 166 LINE SMOOTH",
"30 137 OFFCURVE",
"52 115 OFFCURVE",
"81 115 CURVE SMOOTH",
"94 115 LINE SMOOTH",
"123 115 OFFCURVE",
"145 93 OFFCURVE",
"145 64 CURVE SMOOTH",
"145 51 LINE SMOOTH",
"145 22 OFFCURVE",
"167 0 OFFCURVE",
"196 0 CURVE SMOOTH",
"324 0 LINE SMOOTH",
"353 0 OFFCURVE",
"375 22 OFFCURVE",
"375 51 CURVE SMOOTH",
"375 409 LINE SMOOTH",
"375 438 OFFCURVE",
"353 460 OFFCURVE",
"324 460 CURVE SMOOTH",
"311 460 LINE SMOOTH",
"282 460 OFFCURVE",
"260 482 OFFCURVE",
"260 511 CURVE SMOOTH",
"260 524 LINE SMOOTH",
"260 553 OFFCURVE",
"282 575 OFFCURVE",
"311 575 CURVE SMOOTH",
"324 575 LINE SMOOTH",
"353 575 OFFCURVE",
"375 597 OFFCURVE",
"375 626 CURVE SMOOTH",
"375 754 LINE SMOOTH",
"375 783 OFFCURVE",
"353 805 OFFCURVE",
"324 805 CURVE SMOOTH",
"311 805 LINE SMOOTH",
"282 805 OFFCURVE",
"260 783 OFFCURVE",
"260 754 CURVE SMOOTH",
"260 626 LINE SMOOTH",
"260 597 OFFCURVE",
"238 575 OFFCURVE",
"209 575 CURVE SMOOTH",
"196 575 LINE SMOOTH",
"167 575 OFFCURVE",
"145 553 OFFCURVE",
"145 524 CURVE SMOOTH",
"145 511 LINE SMOOTH",
"145 482 OFFCURVE",
"123 460 OFFCURVE",
"94 460 CURVE SMOOTH",
"81 460 LINE SMOOTH"
);
},
{
closed = 1;
nodes = (
"167 115 OFFCURVE",
"145 137 OFFCURVE",
"145 166 CURVE SMOOTH",
"145 409 LINE SMOOTH",
"145 438 OFFCURVE",
"167 460 OFFCURVE",
"196 460 CURVE SMOOTH",
"209 460 LINE SMOOTH",
"238 460 OFFCURVE",
"260 438 OFFCURVE",
"260 409 CURVE SMOOTH",
"260 166 LINE SMOOTH",
"260 137 OFFCURVE",
"238 115 OFFCURVE",
"209 115 CURVE SMOOTH",
"196 115 LINE SMOOTH"
);
}
);
width = 405;
},
{
hints = (
{
horizontal = 1;
origin = "{0, 15}";
target = "{1, 15}";
type = Stem;
},
{
horizontal = 1;
origin = "{1, 7}";
target = "{0, 47}";
type = Stem;
},
{
origin = "{0, 3}";
target = "{1, 3}";
type = Stem;
},
{
origin = "{1, 11}";
target = "{0, 35}";
type = Stem;
}
);
layerId = "52F3452F-C0C6-4900-9BFE-1786415B207F";
paths = (
{
closed = 1;
nodes = (
"52 460 OFFCURVE",
"30 438 OFFCURVE",
"30 409 CURVE SMOOTH",
"30 166 LINE SMOOTH",
"30 137 OFFCURVE",
"52 115 OFFCURVE",
"81 115 CURVE SMOOTH",
"94 115 LINE SMOOTH",
"123 115 OFFCURVE",
"145 93 OFFCURVE",
"145 64 CURVE SMOOTH",
"145 51 LINE SMOOTH",
"145 22 OFFCURVE",
"167 0 OFFCURVE",
"196 0 CURVE SMOOTH",
"1447 0 LINE SMOOTH",
"1476 0 OFFCURVE",
"1498 22 OFFCURVE",
"1498 51 CURVE SMOOTH",
"1498 409 LINE SMOOTH",
"1498 438 OFFCURVE",
"1476 460 OFFCURVE",
"1447 460 CURVE SMOOTH",
"1434 460 LINE SMOOTH",
"1405 460 OFFCURVE",
"1383 482 OFFCURVE",
"1383 511 CURVE SMOOTH",
"1383 524 LINE SMOOTH",
"1383 553 OFFCURVE",
"1405 575 OFFCURVE",
"1434 575 CURVE SMOOTH",
"1447 575 LINE SMOOTH",
"1476 575 OFFCURVE",
"1498 597 OFFCURVE",
"1498 626 CURVE SMOOTH",
"1498 754 LINE SMOOTH",
"1498 783 OFFCURVE",
"1476 805 OFFCURVE",
"1447 805 CURVE SMOOTH",
"1434 805 LINE SMOOTH",
"1405 805 OFFCURVE",
"1383 783 OFFCURVE",
"1383 754 CURVE SMOOTH",
"1383 626 LINE SMOOTH",
"1383 597 OFFCURVE",
"1361 575 OFFCURVE",
"1332 575 CURVE SMOOTH",
"196 575 LINE SMOOTH",
"168 575 OFFCURVE",
"145 553 OFFCURVE",
"145 524 CURVE SMOOTH",
"145 511 LINE SMOOTH",
"145 482 OFFCURVE",
"123 460 OFFCURVE",
"94 460 CURVE SMOOTH",
"81 460 LINE SMOOTH"
);
},
{
closed = 1;
nodes = (
"168 115 OFFCURVE",
"145 137 OFFCURVE",
"145 166 CURVE SMOOTH",
"145 409 LINE SMOOTH",
"145 438 OFFCURVE",
"168 460 OFFCURVE",
"196 460 CURVE SMOOTH",
"1332 460 LINE SMOOTH",
"1361 460 OFFCURVE",
"1383 438 OFFCURVE",
"1383 409 CURVE SMOOTH",
"1383 166 LINE SMOOTH",
"1383 137 OFFCURVE",
"1361 115 OFFCURVE",
"1332 115 CURVE SMOOTH",
"196 115 LINE SMOOTH"
);
}
);
width = 1528;
}
);
leftKerningGroup = o;
unicode = 0064;
},
{
glyphname = e;
lastChange = "2024-09-03 16:38:12 +0000";
layers = (
{
hints = (
{
horizontal = 1;
origin = "{0, 32}";
target = "{0, 40}";
type = Stem;
},
{
horizontal = 1;
origin = "{0, 48}";
target = "{1, 15}";
type = Stem;
},
{
horizontal = 1;
origin = "{1, 8}";
target = "{0, 0}";
type = Stem;
},
{
origin = "{0, 20}";
target = "{1, 4}";
type = Stem;
},
{
origin = "{1, 12}";
target = "{0, 52}";
type = Stem;
}
);
layerId = "B9294602-EB87-4DCD-A39F-D52598F560AD";
paths = (
{
closed = 1;
nodes = (
"76 575 LINE",
"51 575 OFFCURVE",
"30 554 OFFCURVE",
"30 529 CURVE",
"30 391 LINE",
"30 365 OFFCURVE",
"51 345 OFFCURVE",
"76 345 CURVE",
"99 345 LINE",
"124 345 OFFCURVE",
"145 324 OFFCURVE",
"145 299 CURVE",
"145 276 LINE",
"145 251 OFFCURVE",
"124 231 OFFCURVE",
"99 231 CURVE",
"76 231 LINE",
"51 231 OFFCURVE",
"30 210 OFFCURVE",
"30 185 CURVE",
"30 162 LINE",
"30 135 OFFCURVE",
"51 115 OFFCURVE",
"76 115 CURVE",
"99 115 LINE",
"124 115 OFFCURVE",
"145 94 OFFCURVE",
"145 69 CURVE",
"145 46 LINE",
"145 21 OFFCURVE",
"165 0 OFFCURVE",
"190 0 CURVE",
"329 0 LINE",
"354 0 OFFCURVE",
"375 21 OFFCURVE",
"375 46 CURVE",
"375 69 LINE",
"375 95 OFFCURVE",
"354 115 OFFCURVE",
"329 115 CURVE",
"191 115 LINE",
"165 115 OFFCURVE",
"145 136 OFFCURVE",
"145 162 CURVE",
"145 185 LINE",
"145 210 OFFCURVE",
"165 230 OFFCURVE",
"191 230 CURVE",
"329 230 LINE",
"354 230 OFFCURVE",
"375 251 OFFCURVE",
"375 276 CURVE",
"375 414 LINE",
"375 440 OFFCURVE",
"354 461 OFFCURVE",
"329 461 CURVE",
"306 461 LINE",
"281 461 OFFCURVE",
"260 481 OFFCURVE",
"260 506 CURVE",
"260 529 LINE",
"260 554 OFFCURVE",
"240 575 OFFCURVE",
"213 575 CURVE"
);
},
{
closed = 1;
nodes = (
"191 345 LINE SMOOTH",
"165 345 OFFCURVE",
"145 366 OFFCURVE",
"145 391 CURVE SMOOTH",
"145 414 LINE SMOOTH",
"145 440 OFFCURVE",
"165 460 OFFCURVE",
"191 460 CURVE SMOOTH",
"213 460 LINE SMOOTH",
"240 460 OFFCURVE",
"260 440 OFFCURVE",
"260 414 CURVE SMOOTH",
"260 391 LINE SMOOTH",
"260 366 OFFCURVE",
"240 345 OFFCURVE",
"213 345 CURVE SMOOTH"
);
}
);
width = 405;
},
{
hints = (
{
horizontal = 1;
origin = "{0, 32}";
target = "{0, 40}";
type = Stem;
},
{
horizontal = 1;
origin = "{0, 48}";
target = "{1, 15}";
type = Stem;
},
{
horizontal = 1;
origin = "{1, 8}";
target = "{0, 0}";
type = Stem;
},
{
origin = "{0, 20}";
target = "{1, 4}";
type = Stem;
},
{
origin = "{1, 12}";
target = "{0, 52}";
type = Stem;
}
);
layerId = "52F3452F-C0C6-4900-9BFE-1786415B207F";
paths = (
{
closed = 1;
nodes = (
"76 575 LINE",
"51 575 OFFCURVE",
"30 554 OFFCURVE",
"30 529 CURVE",
"30 391 LINE",
"30 365 OFFCURVE",
"51 345 OFFCURVE",
"76 345 CURVE",
"99 345 LINE",
"124 345 OFFCURVE",
"145 324 OFFCURVE",
"145 299 CURVE",
"145 276 LINE",
"145 251 OFFCURVE",
"124 231 OFFCURVE",
"99 231 CURVE",
"76 231 LINE",
"51 231 OFFCURVE",
"30 210 OFFCURVE",
"30 185 CURVE",
"30 162 LINE",
"30 135 OFFCURVE",
"51 115 OFFCURVE",
"76 115 CURVE",
"99 115 LINE",
"124 115 OFFCURVE",
"145 94 OFFCURVE",
"145 69 CURVE",
"145 46 LINE",
"145 21 OFFCURVE",
"165 0 OFFCURVE",
"190 0 CURVE",
"1452 0 LINE",
"1477 0 OFFCURVE",
"1498 21 OFFCURVE",
"1498 46 CURVE",
"1498 69 LINE",
"1498 95 OFFCURVE",
"1477 115 OFFCURVE",
"1452 115 CURVE",
"191 115 LINE",
"165 115 OFFCURVE",
"145 136 OFFCURVE",
"145 162 CURVE",
"145 185 LINE",
"145 210 OFFCURVE",
"165 230 OFFCURVE",
"191 230 CURVE",
"1452 230 LINE",
"1477 230 OFFCURVE",
"1498 251 OFFCURVE",
"1498 276 CURVE",
"1498 414 LINE",
"1498 440 OFFCURVE",
"1477 461 OFFCURVE",
"1452 461 CURVE",
"1429 461 LINE",
"1404 461 OFFCURVE",
"1383 481 OFFCURVE",
"1383 506 CURVE",
"1383 529 LINE",
"1383 554 OFFCURVE",
"1363 575 OFFCURVE",
"1336 575 CURVE"
);
},
{
closed = 1;
nodes = (
"191 345 LINE SMOOTH",
"165 345 OFFCURVE",
"145 366 OFFCURVE",
"145 391 CURVE SMOOTH",
"145 414 LINE SMOOTH",
"145 440 OFFCURVE",
"165 460 OFFCURVE",
"191 460 CURVE SMOOTH",
"1336 460 LINE SMOOTH",
"1363 460 OFFCURVE",
"1383 440 OFFCURVE",
"1383 414 CURVE SMOOTH",
"1383 391 LINE SMOOTH",
"1383 366 OFFCURVE",
"1363 345 OFFCURVE",
"1336 345 CURVE SMOOTH"
);
}
);
width = 1528;
}
);
unicode = 0065;
},
{
glyphname = f;
lastChange = "2024-09-03 16:37:50 +0000";
layers = (
{
hints = (
{
horizontal = 1;
origin = "{0, 48}";
target = "{0, 56}";
type = Stem;
},
{
horizontal = 1;
origin = "{0, 63}";
target = "{0, 7}";
type = Stem;
},
{
origin = "{0, 36}";
target = "{0, 60}";
type = Stem;
},
{
origin = "{0, 68}";
target = "{0, 4}";
type = Stem;
}
);
layerId = "B9294602-EB87-4DCD-A39F-D52598F560AD";
paths = (
{
closed = 1;
nodes = (
"330 575 LINE SMOOTH",
"355 575 OFFCURVE",
"375 595 OFFCURVE",
"375 619 CURVE SMOOTH",
"375 754 LINE SMOOTH",
"375 783 OFFCURVE",
"353 805 OFFCURVE",
"324 805 CURVE SMOOTH",
"196 805 LINE SMOOTH",
"167 805 OFFCURVE",
"145 783 OFFCURVE",
"145 754 CURVE SMOOTH",
"145 741 LINE SMOOTH",
"145 712 OFFCURVE",
"123 690 OFFCURVE",
"94 690 CURVE SMOOTH",
"81 690 LINE SMOOTH",
"52 690 OFFCURVE",
"30 668 OFFCURVE",
"30 639 CURVE SMOOTH",
"30 626 LINE SMOOTH",
"30 597 OFFCURVE",
"52 575 OFFCURVE",
"81 575 CURVE SMOOTH",
"94 575 LINE SMOOTH",
"123 575 OFFCURVE",
"145 553 OFFCURVE",
"145 524 CURVE SMOOTH",
"145 511 LINE SMOOTH",
"145 482 OFFCURVE",
"123 460 OFFCURVE",
"94 460 CURVE SMOOTH",
"81 460 LINE SMOOTH",
"52 460 OFFCURVE",
"30 438 OFFCURVE",
"30 409 CURVE SMOOTH",
"30 42 LINE SMOOTH",
"30 19 OFFCURVE",
"49 0 OFFCURVE",
"73 0 CURVE SMOOTH",
"102 0 LINE SMOOTH",
"126 0 OFFCURVE",
"145 19 OFFCURVE",
"145 42 CURVE SMOOTH",
"145 409 LINE SMOOTH",
"145 438 OFFCURVE",
"167 460 OFFCURVE",
"196 460 CURVE SMOOTH",
"216 460 LINE SMOOTH",
"245 460 OFFCURVE",
"260 479 OFFCURVE",
"260 503 CURVE SMOOTH",
"260 530 LINE SMOOTH",
"260 552 OFFCURVE",
"245 575 OFFCURVE",
"217 575 CURVE SMOOTH",
"196 575 LINE SMOOTH",
"167 575 OFFCURVE",
"145 597 OFFCURVE",
"145 626 CURVE SMOOTH",
"145 638 LINE SMOOTH",
"145 668 OFFCURVE",
"167 690 OFFCURVE",
"197 690 CURVE SMOOTH",
"210 690 LINE SMOOTH",
"239 690 OFFCURVE",
"260 668 OFFCURVE",
"260 639 CURVE SMOOTH",
"260 619 LINE SMOOTH",
"260 595 OFFCURVE",
"282 575 OFFCURVE",
"308 575 CURVE SMOOTH"
);
}
);
width = 405;
},
{
hints = (
{
horizontal = 1;
origin = "{0, 48}";
target = "{0, 56}";
type = Stem;
},
{
horizontal = 1;
origin = "{0, 64}";
target = "{0, 8}";
type = Stem;
},
{
origin = "{0, 36}";
target = "{0, 60}";
type = Stem;
},
{
origin = "{0, 68}";
target = "{0, 4}";
type = Stem;
}
);
layerId = "52F3452F-C0C6-4900-9BFE-1786415B207F";
paths = (
{
closed = 1;
nodes = (
"1453 575 LINE SMOOTH",
"1478 575 OFFCURVE",
"1498 595 OFFCURVE",
"1498 619 CURVE SMOOTH",
"1498 754 LINE SMOOTH",
"1498 783 OFFCURVE",
"1476 805 OFFCURVE",
"1447 805 CURVE SMOOTH",
"196 805 LINE SMOOTH",
"167 805 OFFCURVE",
"145 783 OFFCURVE",
"145 754 CURVE SMOOTH",
"145 741 LINE SMOOTH",
"145 712 OFFCURVE",
"123 690 OFFCURVE",
"94 690 CURVE SMOOTH",
"81 690 LINE SMOOTH",
"52 690 OFFCURVE",
"30 668 OFFCURVE",
"30 639 CURVE SMOOTH",
"30 626 LINE SMOOTH",
"30 597 OFFCURVE",
"52 575 OFFCURVE",
"81 575 CURVE SMOOTH",
"94 575 LINE SMOOTH",
"123 575 OFFCURVE",
"145 553 OFFCURVE",
"145 524 CURVE SMOOTH",
"145 511 LINE SMOOTH",
"145 482 OFFCURVE",
"123 460 OFFCURVE",
"94 460 CURVE SMOOTH",
"81 460 LINE SMOOTH",
"52 460 OFFCURVE",
"30 438 OFFCURVE",
"30 409 CURVE SMOOTH",
"30 42 LINE SMOOTH",
"30 19 OFFCURVE",
"49 0 OFFCURVE",
"73 0 CURVE SMOOTH",
"102 0 LINE SMOOTH",
"126 0 OFFCURVE",
"145 19 OFFCURVE",
"145 42 CURVE SMOOTH",
"145 409 LINE SMOOTH",
"145 438 OFFCURVE",
"167 460 OFFCURVE",
"196 460 CURVE SMOOTH",
"1339 460 LINE SMOOTH",
"1368 460 OFFCURVE",
"1383 479 OFFCURVE",
"1383 503 CURVE SMOOTH",
"1383 530 LINE SMOOTH",
"1383 552 OFFCURVE",
"1368 575 OFFCURVE",
"1340 575 CURVE SMOOTH",
"196 575 LINE SMOOTH",
"167 575 OFFCURVE",
"145 597 OFFCURVE",
"145 626 CURVE SMOOTH",
"145 638 LINE SMOOTH",
"145 668 OFFCURVE",
"167 690 OFFCURVE",
"197 690 CURVE SMOOTH",
"1333 690 LINE SMOOTH",
"1362 690 OFFCURVE",
"1383 668 OFFCURVE",
"1383 639 CURVE SMOOTH",
"1383 619 LINE SMOOTH",
"1383 595 OFFCURVE",
"1405 575 OFFCURVE",
"1431 575 CURVE SMOOTH"
);
}
);
width = 1528;
}
);
rightKerningGroup = o;
unicode = 0066;
},
{
glyphname = g;
lastChange = "2024-09-03 16:39:14 +0000";
layers = (
{
hints = (
{
horizontal = 1;
origin = "{0, 3}";
target = "{0, 59}";
type = Stem;
},
{
horizontal = 1;
origin = "{0, 52}";
target = "{1, 12}";
type = Stem;
},
{
horizontal = 1;
origin = "{1, 3}";
target = "{0, 35}";
type = Stem;
},
{
origin = "{0, 63}";
target = "{1, 15}";
type = Stem;
},
{
origin = "{1, 8}";
target = "{0, 32}";
type = Stem;
}
);
layerId = "B9294602-EB87-4DCD-A39F-D52598F560AD";
paths = (
{
closed = 1;
nodes = (
"30 -64 LINE SMOOTH",
"30 -93 OFFCURVE",
"52 -115 OFFCURVE",
"81 -115 CURVE SMOOTH",
"209 -115 LINE SMOOTH",
"238 -115 OFFCURVE",
"260 -94 OFFCURVE",
"260 -65 CURVE SMOOTH",
"260 -52 LINE SMOOTH",
"260 -23 OFFCURVE",
"282 0 OFFCURVE",
"311 0 CURVE SMOOTH",
"324 0 LINE SMOOTH",
"353 0 OFFCURVE",
"375 22 OFFCURVE",
"375 51 CURVE SMOOTH",
"375 64 LINE SMOOTH",
"375 93 OFFCURVE",
"353 115 OFFCURVE",
"324 115 CURVE SMOOTH",
"311 115 LINE SMOOTH",
"282 115 OFFCURVE",
"260 137 OFFCURVE",
"260 166 CURVE SMOOTH",
"260 179 LINE SMOOTH",
"260 208 OFFCURVE",
"282 230 OFFCURVE",
"311 230 CURVE SMOOTH",
"324 230 LINE SMOOTH",
"353 230 OFFCURVE",
"375 252 OFFCURVE",
"375 281 CURVE SMOOTH",
"375 524 LINE SMOOTH",
"375 553 OFFCURVE",
"353 575 OFFCURVE",
"324 575 CURVE SMOOTH",
"197 575 LINE SMOOTH",
"168 575 OFFCURVE",
"145 553 OFFCURVE",
"145 524 CURVE SMOOTH",
"145 511 LINE SMOOTH",
"145 482 OFFCURVE",
"123 460 OFFCURVE",
"94 460 CURVE SMOOTH",
"81 460 LINE SMOOTH",
"52 460 OFFCURVE",
"30 438 OFFCURVE",
"30 409 CURVE SMOOTH",
"30 166 LINE SMOOTH",
"30 137 OFFCURVE",
"52 115 OFFCURVE",
"81 115 CURVE SMOOTH",
"209 115 LINE SMOOTH",
"238 115 OFFCURVE",
"260 93 OFFCURVE",
"260 64 CURVE SMOOTH",
"260 51 LINE SMOOTH",
"260 22 OFFCURVE",
"238 0 OFFCURVE",
"209 0 CURVE SMOOTH",
"81 0 LINE SMOOTH",
"52 0 OFFCURVE",
"30 -23 OFFCURVE",
"30 -52 CURVE SMOOTH"
);
},
{
closed = 1;
nodes = (
"145 409 LINE SMOOTH",
"145 438 OFFCURVE",
"167 460 OFFCURVE",
"196 460 CURVE SMOOTH",
"209 460 LINE SMOOTH",
"238 460 OFFCURVE",
"260 438 OFFCURVE",
"260 409 CURVE SMOOTH",
"260 277 LINE SMOOTH",
"260 248 OFFCURVE",
"238 230 OFFCURVE",
"209 230 CURVE SMOOTH",
"196 230 LINE SMOOTH",
"167 230 OFFCURVE",
"145 248 OFFCURVE",
"145 277 CURVE SMOOTH"
);
}
);
width = 405;
},
{
hints = (
{
horizontal = 1;
origin = "{0, 4}";
target = "{0, 60}";
type = Stem;
},
{
horizontal = 1;
origin = "{0, 52}";
target = "{1, 12}";
type = Stem;
},
{
horizontal = 1;
origin = "{1, 3}";
target = "{0, 35}";
type = Stem;
},
{
origin = "{0, 63}";
target = "{1, 15}";
type = Stem;
},
{
origin = "{1, 8}";
target = "{0, 32}";
type = Stem;
}
);
layerId = "52F3452F-C0C6-4900-9BFE-1786415B207F";
paths = (
{
closed = 1;
nodes = (
"30 -64 LINE SMOOTH",
"30 -93 OFFCURVE",
"52 -115 OFFCURVE",
"81 -115 CURVE SMOOTH",
"1332 -115 LINE SMOOTH",
"1361 -115 OFFCURVE",
"1383 -94 OFFCURVE",
"1383 -65 CURVE SMOOTH",
"1383 -52 LINE SMOOTH",
"1383 -23 OFFCURVE",
"1405 0 OFFCURVE",
"1434 0 CURVE SMOOTH",
"1447 0 LINE SMOOTH",
"1476 0 OFFCURVE",
"1498 22 OFFCURVE",
"1498 51 CURVE SMOOTH",
"1498 64 LINE SMOOTH",
"1498 93 OFFCURVE",
"1476 115 OFFCURVE",
"1447 115 CURVE SMOOTH",
"1434 115 LINE SMOOTH",
"1405 115 OFFCURVE",
"1383 137 OFFCURVE",
"1383 166 CURVE SMOOTH",
"1383 179 LINE SMOOTH",
"1383 208 OFFCURVE",
"1405 230 OFFCURVE",
"1434 230 CURVE SMOOTH",
"1447 230 LINE SMOOTH",
"1476 230 OFFCURVE",
"1498 252 OFFCURVE",
"1498 281 CURVE SMOOTH",
"1498 524 LINE SMOOTH",
"1498 553 OFFCURVE",
"1476 575 OFFCURVE",
"1447 575 CURVE SMOOTH",
"197 575 LINE SMOOTH",
"168 575 OFFCURVE",
"145 553 OFFCURVE",
"145 524 CURVE SMOOTH",
"145 511 LINE SMOOTH",
"145 482 OFFCURVE",
"123 460 OFFCURVE",
"94 460 CURVE SMOOTH",
"81 460 LINE SMOOTH",
"52 460 OFFCURVE",
"30 438 OFFCURVE",
"30 409 CURVE SMOOTH",
"30 166 LINE SMOOTH",
"30 137 OFFCURVE",
"52 115 OFFCURVE",
"81 115 CURVE SMOOTH",
"1332 115 LINE SMOOTH",
"1361 115 OFFCURVE",
"1383 93 OFFCURVE",
"1383 64 CURVE SMOOTH",
"1383 51 LINE SMOOTH",
"1383 22 OFFCURVE",
"1361 0 OFFCURVE",
"1332 0 CURVE SMOOTH",
"81 0 LINE SMOOTH",
"52 0 OFFCURVE",
"30 -23 OFFCURVE",
"30 -52 CURVE SMOOTH"
);
},
{
closed = 1;
nodes = (
"145 409 LINE SMOOTH",
"145 438 OFFCURVE",
"167 460 OFFCURVE",
"196 460 CURVE SMOOTH",
"1332 460 LINE SMOOTH",
"1361 460 OFFCURVE",
"1383 438 OFFCURVE",
"1383 409 CURVE SMOOTH",
"1383 277 LINE SMOOTH",
"1383 248 OFFCURVE",
"1361 230 OFFCURVE",
"1332 230 CURVE SMOOTH",
"196 230 LINE SMOOTH",
"167 230 OFFCURVE",
"145 248 OFFCURVE",
"145 277 CURVE SMOOTH"
);
}
);
width = 1528;
}
);
unicode = 0067;
},
{
glyphname = h;
lastChange = "2024-09-03 16:39:34 +0000";
layers = (
{
hints = (
{
horizontal = 1;
origin = "{0, 12}";
target = "{0, 35}";
type = Stem;
},
{
origin = "{0, 47}";
target = "{0, 40}";
type = Stem;
},
{
origin = "{0, 32}";
target = "{0, 24}";
type = Stem;
}
);
layerId = "B9294602-EB87-4DCD-A39F-D52598F560AD";
paths = (
{
closed = 1;
nodes = (
"30 51 LINE SMOOTH",
"30 22 OFFCURVE",
"52 0 OFFCURVE",
"81 0 CURVE SMOOTH",
"94 0 LINE SMOOTH",
"123 0 OFFCURVE",
"145 22 OFFCURVE",
"145 51 CURVE SMOOTH",
"145 413 LINE SMOOTH",
"145 442 OFFCURVE",
"167 460 OFFCURVE",
"196 460 CURVE SMOOTH",
"209 460 LINE SMOOTH",
"238 460 OFFCURVE",
"260 442 OFFCURVE",
"260 413 CURVE SMOOTH",
"260 51 LINE SMOOTH",
"260 22 OFFCURVE",
"282 0 OFFCURVE",
"311 0 CURVE SMOOTH",
"324 0 LINE SMOOTH",
"353 0 OFFCURVE",
"375 22 OFFCURVE",
"375 51 CURVE SMOOTH",
"375 413 LINE SMOOTH",
"375 442 OFFCURVE",
"353 460 OFFCURVE",
"324 460 CURVE SMOOTH",
"311 460 LINE SMOOTH",
"282 460 OFFCURVE",
"260 486 OFFCURVE",
"260 515 CURVE SMOOTH",
"260 528 LINE SMOOTH",
"260 557 OFFCURVE",
"237 575 OFFCURVE",
"208 575 CURVE SMOOTH",
"196 575 LINE SMOOTH",
"167 575 OFFCURVE",
"145 597 OFFCURVE",
"145 626 CURVE SMOOTH",
"145 754 LINE SMOOTH",
"145 783 OFFCURVE",
"123 805 OFFCURVE",
"94 805 CURVE SMOOTH",
"81 805 LINE SMOOTH",
"52 805 OFFCURVE",
"30 783 OFFCURVE",
"30 754 CURVE SMOOTH"
);
}
);
width = 405;
},
{
hints = (
{
horizontal = 1;
origin = "{0, 12}";
target = "{0, 36}";
type = Stem;
},
{
origin = "{0, 47}";
target = "{0, 40}";
type = Stem;
},
{
origin = "{0, 32}";
target = "{0, 24}";
type = Stem;
}
);
layerId = "52F3452F-C0C6-4900-9BFE-1786415B207F";
paths = (
{
closed = 1;
nodes = (
"30 51 LINE SMOOTH",
"30 22 OFFCURVE",
"52 0 OFFCURVE",
"81 0 CURVE SMOOTH",
"94 0 LINE SMOOTH",
"123 0 OFFCURVE",
"145 22 OFFCURVE",
"145 51 CURVE SMOOTH",
"145 413 LINE SMOOTH",
"145 442 OFFCURVE",
"167 460 OFFCURVE",
"196 460 CURVE SMOOTH",
"1332 460 LINE SMOOTH",
"1361 460 OFFCURVE",
"1383 442 OFFCURVE",
"1383 413 CURVE SMOOTH",
"1383 51 LINE SMOOTH",
"1383 22 OFFCURVE",
"1405 0 OFFCURVE",
"1434 0 CURVE SMOOTH",
"1447 0 LINE SMOOTH",
"1476 0 OFFCURVE",
"1498 22 OFFCURVE",
"1498 51 CURVE SMOOTH",
"1498 413 LINE SMOOTH",
"1498 442 OFFCURVE",
"1476 460 OFFCURVE",
"1447 460 CURVE SMOOTH",
"1434 460 LINE SMOOTH",
"1405 460 OFFCURVE",
"1383 486 OFFCURVE",
"1383 515 CURVE SMOOTH",
"1383 528 LINE SMOOTH",
"1383 557 OFFCURVE",
"1360 575 OFFCURVE",
"1331 575 CURVE SMOOTH",
"196 575 LINE SMOOTH",
"167 575 OFFCURVE",
"145 597 OFFCURVE",
"145 626 CURVE SMOOTH",
"145 754 LINE SMOOTH",
"145 783 OFFCURVE",
"123 805 OFFCURVE",
"94 805 CURVE SMOOTH",
"81 805 LINE SMOOTH",
"52 805 OFFCURVE",
"30 783 OFFCURVE",
"30 754 CURVE SMOOTH"
);
}
);
width = 1528;
}
);
unicode = 0068;
},
{
glyphname = i;
lastChange = "2024-09-03 14:20:35 +0000";
layers = (
{
hints = (
{
horizontal = 1;
origin = "{1, 4}";
target = "{1, 12}";
type = Stem;
},
{
origin = "{1, 15}";
target = "{1, 8}";
type = Stem;
}
);
layerId = "B9294602-EB87-4DCD-A39F-D52598F560AD";
paths = (
{
closed = 1;
nodes = (
"30 51 LINE SMOOTH",
"30 22 OFFCURVE",
"52 0 OFFCURVE",
"81 0 CURVE SMOOTH",
"94 0 LINE SMOOTH",
"123 0 OFFCURVE",
"145 22 OFFCURVE",
"145 51 CURVE SMOOTH",
"145 409 LINE SMOOTH",
"145 438 OFFCURVE",
"123 460 OFFCURVE",
"94 460 CURVE SMOOTH",
"81 460 LINE SMOOTH",
"52 460 OFFCURVE",
"30 438 OFFCURVE",
"30 409 CURVE SMOOTH"
);
},
{
closed = 1;
nodes = (
"30 626 LINE SMOOTH",
"30 597 OFFCURVE",
"52 575 OFFCURVE",
"81 575 CURVE SMOOTH",
"94 575 LINE SMOOTH",
"123 575 OFFCURVE",
"145 597 OFFCURVE",
"145 626 CURVE SMOOTH",
"145 639 LINE SMOOTH",
"145 668 OFFCURVE",
"123 690 OFFCURVE",
"94 690 CURVE SMOOTH",
"81 690 LINE SMOOTH",
"52 690 OFFCURVE",
"30 668 OFFCURVE",
"30 639 CURVE SMOOTH"
);
}
);
width = 175;
},
{
hints = (
{
horizontal = 1;
origin = "{1, 4}";
target = "{1, 12}";
type = Stem;
},
{
origin = "{1, 15}";
target = "{1, 8}";
type = Stem;
}
);
layerId = "52F3452F-C0C6-4900-9BFE-1786415B207F";
paths = (
{
closed = 1;
nodes = (
"30 51 LINE SMOOTH",
"30 22 OFFCURVE",
"52 0 OFFCURVE",
"81 0 CURVE SMOOTH",
"94 0 LINE SMOOTH",
"123 0 OFFCURVE",
"145 22 OFFCURVE",
"145 51 CURVE SMOOTH",
"145 409 LINE SMOOTH",
"145 438 OFFCURVE",
"123 460 OFFCURVE",
"94 460 CURVE SMOOTH",
"81 460 LINE SMOOTH",
"52 460 OFFCURVE",
"30 438 OFFCURVE",
"30 409 CURVE SMOOTH"
);
},
{
closed = 1;
nodes = (
"30 626 LINE SMOOTH",
"30 597 OFFCURVE",
"52 575 OFFCURVE",
"81 575 CURVE SMOOTH",
"94 575 LINE SMOOTH",
"123 575 OFFCURVE",
"145 597 OFFCURVE",
"145 626 CURVE SMOOTH",
"145 639 LINE SMOOTH",
"145 668 OFFCURVE",
"123 690 OFFCURVE",
"94 690 CURVE SMOOTH",
"81 690 LINE SMOOTH",
"52 690 OFFCURVE",
"30 668 OFFCURVE",
"30 639 CURVE SMOOTH"
);
}
);
width = 175;
}
);
unicode = 0069;
},
{
glyphname = j;
lastChange = "2024-09-03 16:40:26 +0000";
layers = (
{
hints = (
{
horizontal = 1;
origin = "{0, 8}";
target = "{0, 0}";
type = Stem;
},
{
horizontal = 1;
origin = "{1, 4}";
target = "{1, 12}";
type = Stem;
},
{
origin = "{0, 28}";
target = "{0, 20}";
type = Stem;
}
);
layerId = "B9294602-EB87-4DCD-A39F-D52598F560AD";
paths = (
{
closed = 1;
nodes = (
"51 0 LINE SMOOTH",
"22 0 OFFCURVE",
"0 -22 OFFCURVE",
"0 -51 CURVE SMOOTH",
"0 -64 LINE SMOOTH",
"0 -93 OFFCURVE",
"22 -115 OFFCURVE",
"51 -115 CURVE SMOOTH",
"179 -115 LINE SMOOTH",
"208 -115 OFFCURVE",
"230 -93 OFFCURVE",
"230 -64 CURVE SMOOTH",
"230 -51 LINE SMOOTH",
"230 -22 OFFCURVE",
"252 0 OFFCURVE",
"281 0 CURVE SMOOTH",
"294 0 LINE SMOOTH",
"323 0 OFFCURVE",
"345 22 OFFCURVE",
"345 51 CURVE SMOOTH",
"345 409 LINE SMOOTH",
"345 438 OFFCURVE",
"323 460 OFFCURVE",
"294 460 CURVE SMOOTH",
"281 460 LINE SMOOTH",
"252 460 OFFCURVE",
"230 438 OFFCURVE",
"230 409 CURVE SMOOTH",
"230 51 LINE SMOOTH",
"230 22 OFFCURVE",
"208 0 OFFCURVE",
"179 0 CURVE SMOOTH"
);
},
{
closed = 1;
nodes = (
"229 626 LINE SMOOTH",
"229 597 OFFCURVE",
"251 575 OFFCURVE",
"280 575 CURVE SMOOTH",
"293 575 LINE SMOOTH",
"322 575 OFFCURVE",
"344 597 OFFCURVE",
"344 626 CURVE SMOOTH",
"344 639 LINE SMOOTH",
"344 668 OFFCURVE",
"322 690 OFFCURVE",
"293 690 CURVE SMOOTH",
"280 690 LINE SMOOTH",
"251 690 OFFCURVE",
"229 668 OFFCURVE",
"229 639 CURVE SMOOTH"
);
}
);
width = 375;
},
{
hints = (
{
horizontal = 1;
origin = "{0, 8}";
target = "{0, 0}";
type = Stem;
},
{
horizontal = 1;
origin = "{1, 4}";
target = "{1, 12}";
type = Stem;
},
{
origin = "{1, 15}";
target = "{0, 19}";
type = Stem;
}
);
layerId = "52F3452F-C0C6-4900-9BFE-1786415B207F";
paths = (
{
closed = 1;
nodes = (
"81 0 LINE SMOOTH",
"52 0 OFFCURVE",
"30 -22 OFFCURVE",
"30 -51 CURVE SMOOTH",
"30 -64 LINE SMOOTH",
"30 -93 OFFCURVE",
"52 -115 OFFCURVE",
"81 -115 CURVE SMOOTH",
"1332 -115 LINE SMOOTH",
"1361 -115 OFFCURVE",
"1383 -93 OFFCURVE",
"1383 -64 CURVE SMOOTH",
"1383 -51 LINE SMOOTH",
"1383 -22 OFFCURVE",
"1405 0 OFFCURVE",
"1434 0 CURVE SMOOTH",
"1447 0 LINE SMOOTH",
"1476 0 OFFCURVE",
"1498 22 OFFCURVE",
"1498 51 CURVE SMOOTH",
"1498 409 LINE SMOOTH",
"1498 438 OFFCURVE",
"1476 460 OFFCURVE",
"1447 460 CURVE SMOOTH",
"1434 460 LINE SMOOTH",
"1405 460 OFFCURVE",
"1383 438 OFFCURVE",
"1383 409 CURVE SMOOTH",
"1383 51 LINE SMOOTH",
"1383 22 OFFCURVE",
"1361 0 OFFCURVE",
"1332 0 CURVE SMOOTH"
);
},
{
closed = 1;
nodes = (
"1382 626 LINE SMOOTH",
"1382 597 OFFCURVE",
"1404 575 OFFCURVE",
"1433 575 CURVE SMOOTH",
"1446 575 LINE SMOOTH",
"1475 575 OFFCURVE",
"1497 597 OFFCURVE",
"1497 626 CURVE SMOOTH",
"1497 639 LINE SMOOTH",
"1497 668 OFFCURVE",
"1475 690 OFFCURVE",
"1446 690 CURVE SMOOTH",
"1433 690 LINE SMOOTH",
"1404 690 OFFCURVE",
"1382 668 OFFCURVE",
"1382 639 CURVE SMOOTH"
);
}
);
width = 1528;
}
);
unicode = 006A;
},
{
glyphname = k;
lastChange = "2024-09-03 16:40:33 +0000";
layers = (
{
hints = (
{
horizontal = 1;
origin = "{0, 10}";
target = "{0, 51}";
type = Stem;
},
{
origin = "{0, 63}";
target = "{0, 55}";
type = Stem;
},
{
origin = "{0, 15}";
target = "{0, 39}";
type = Stem;
}
);
layerId = "B9294602-EB87-4DCD-A39F-D52598F560AD";
paths = (
{
closed = 1;
nodes = (
"30 22 OFFCURVE",
"52 0 OFFCURVE",
"81 0 CURVE SMOOTH",
"94 0 LINE SMOOTH",
"123 0 OFFCURVE",
"145 22 OFFCURVE",
"145 51 CURVE SMOOTH",
"145 298 LINE SMOOTH",
"145 327 OFFCURVE",
"167 345 OFFCURVE",
"196 345 CURVE SMOOTH",
"209 345 LINE SMOOTH",
"238 345 OFFCURVE",
"260 327 OFFCURVE",
"260 298 CURVE SMOOTH",
"260 51 LINE SMOOTH",
"260 22 OFFCURVE",
"282 0 OFFCURVE",
"311 0 CURVE SMOOTH",
"324 0 LINE SMOOTH",
"353 0 OFFCURVE",
"375 22 OFFCURVE",
"375 51 CURVE SMOOTH",
"375 298 LINE SMOOTH",
"375 327 OFFCURVE",
"353 345 OFFCURVE",
"324 345 CURVE SMOOTH",
"311 345 LINE SMOOTH",
"282 345 OFFCURVE",
"260 371 OFFCURVE",
"260 400 CURVE SMOOTH",
"260 409 LINE SMOOTH",
"260 438 OFFCURVE",
"282 460 OFFCURVE",
"311 460 CURVE SMOOTH",
"324 460 LINE SMOOTH",
"353 460 OFFCURVE",
"375 482 OFFCURVE",
"375 511 CURVE SMOOTH",
"375 524 LINE SMOOTH",
"375 553 OFFCURVE",
"353 575 OFFCURVE",
"324 575 CURVE SMOOTH",
"311 575 LINE SMOOTH",
"282 575 OFFCURVE",
"260 553 OFFCURVE",
"260 524 CURVE SMOOTH",
"260 511 LINE SMOOTH",
"260 482 OFFCURVE",
"238 460 OFFCURVE",
"209 460 CURVE SMOOTH",
"196 460 LINE SMOOTH",
"167 460 OFFCURVE",
"145 482 OFFCURVE",
"145 511 CURVE SMOOTH",
"145 754 LINE SMOOTH",
"145 783 OFFCURVE",
"123 805 OFFCURVE",
"94 805 CURVE SMOOTH",
"81 805 LINE SMOOTH",
"52 805 OFFCURVE",
"30 783 OFFCURVE",
"30 754 CURVE SMOOTH",
"30 51 LINE SMOOTH"
);
}
);
width = 405;
},
{
hints = (
{
horizontal = 1;
origin = "{0, 27}";
target = "{0, 51}";
type = Stem;
},
{
origin = "{0, 63}";
target = "{0, 55}";
type = Stem;
},
{
origin = "{0, 47}";
target = "{0, 39}";
type = Stem;
}
);
layerId = "52F3452F-C0C6-4900-9BFE-1786415B207F";
paths = (
{
closed = 1;
nodes = (
"30 22 OFFCURVE",
"52 0 OFFCURVE",
"81 0 CURVE SMOOTH",
"94 0 LINE SMOOTH",
"123 0 OFFCURVE",
"145 22 OFFCURVE",
"145 51 CURVE SMOOTH",
"145 298 LINE SMOOTH",
"145 327 OFFCURVE",
"167 345 OFFCURVE",
"196 345 CURVE SMOOTH",
"1332 345 LINE SMOOTH",
"1361 345 OFFCURVE",
"1383 327 OFFCURVE",
"1383 298 CURVE SMOOTH",
"1383 51 LINE SMOOTH",
"1383 22 OFFCURVE",
"1405 0 OFFCURVE",
"1434 0 CURVE SMOOTH",
"1447 0 LINE SMOOTH",
"1476 0 OFFCURVE",
"1498 22 OFFCURVE",
"1498 51 CURVE SMOOTH",
"1498 298 LINE SMOOTH",
"1498 327 OFFCURVE",
"1476 345 OFFCURVE",
"1447 345 CURVE SMOOTH",
"1434 345 LINE SMOOTH",
"1405 345 OFFCURVE",
"1383 371 OFFCURVE",
"1383 400 CURVE SMOOTH",
"1383 409 LINE SMOOTH",
"1383 438 OFFCURVE",
"1405 460 OFFCURVE",
"1434 460 CURVE SMOOTH",
"1447 460 LINE SMOOTH",
"1476 460 OFFCURVE",
"1498 482 OFFCURVE",
"1498 511 CURVE SMOOTH",
"1498 524 LINE SMOOTH",
"1498 553 OFFCURVE",
"1476 575 OFFCURVE",
"1447 575 CURVE SMOOTH",
"1434 575 LINE SMOOTH",
"1405 575 OFFCURVE",
"1383 553 OFFCURVE",
"1383 524 CURVE SMOOTH",
"1383 511 LINE SMOOTH",
"1383 482 OFFCURVE",
"1361 460 OFFCURVE",
"1332 460 CURVE SMOOTH",
"196 460 LINE SMOOTH",
"167 460 OFFCURVE",
"145 482 OFFCURVE",
"145 511 CURVE SMOOTH",
"145 754 LINE SMOOTH",
"145 783 OFFCURVE",
"123 805 OFFCURVE",
"94 805 CURVE SMOOTH",
"81 805 LINE SMOOTH",
"52 805 OFFCURVE",
"30 783 OFFCURVE",
"30 754 CURVE SMOOTH",
"30 51 LINE SMOOTH"
);
}
);
width = 1528;
}
);
unicode = 006B;
},
{
glyphname = l;
lastChange = "2024-09-03 16:40:54 +0000";
layers = (
{
hints = (
{
horizontal = 1;
origin = "{0, 0}";
target = "{0, 8}";
type = Stem;
},
{
origin = "{0, 20}";
target = "{0, 28}";
type = Stem;
}
);
layerId = "B9294602-EB87-4DCD-A39F-D52598F560AD";
paths = (
{
closed = 1;
nodes = (
"209 690 LINE SMOOTH",
"238 690 OFFCURVE",
"260 712 OFFCURVE",
"260 741 CURVE SMOOTH",
"260 754 LINE SMOOTH",
"260 783 OFFCURVE",
"238 805 OFFCURVE",
"209 805 CURVE SMOOTH",
"196 805 LINE SMOOTH",
"167 805 OFFCURVE",
"145 783 OFFCURVE",
"145 754 CURVE SMOOTH",
"145 741 LINE SMOOTH",
"145 712 OFFCURVE",
"123 690 OFFCURVE",
"94 690 CURVE SMOOTH",
"81 690 LINE SMOOTH",
"52 690 OFFCURVE",
"30 668 OFFCURVE",
"30 639 CURVE SMOOTH",
"30 51 LINE SMOOTH",
"30 22 OFFCURVE",
"52 0 OFFCURVE",
"81 0 CURVE SMOOTH",
"94 0 LINE SMOOTH",
"123 0 OFFCURVE",
"145 22 OFFCURVE",
"145 51 CURVE SMOOTH",
"145 639 LINE SMOOTH",
"145 668 OFFCURVE",
"167 690 OFFCURVE",
"196 690 CURVE SMOOTH"
);
}
);
width = 180;
},
{
hints = (
{
origin = "{0, 20}";
target = "{0, 28}";
type = Stem;
},
{
horizontal = 1;
origin = "{0, 0}";
target = "{0, 7}";
type = Stem;
}
);
layerId = "52F3452F-C0C6-4900-9BFE-1786415B207F";
paths = (
{
closed = 1;
nodes = (
"209 690 LINE SMOOTH",
"238 690 OFFCURVE",
"260 712 OFFCURVE",
"260 741 CURVE SMOOTH",
"260 754 LINE SMOOTH",
"260 783 OFFCURVE",
"238 805 OFFCURVE",
"209 805 CURVE SMOOTH",
"196 805 LINE SMOOTH",
"167 805 OFFCURVE",
"145 783 OFFCURVE",
"145 754 CURVE SMOOTH",
"145 741 LINE SMOOTH",
"145 712 OFFCURVE",
"123 690 OFFCURVE",
"94 690 CURVE SMOOTH",
"81 690 LINE SMOOTH",
"52 690 OFFCURVE",
"30 668 OFFCURVE",
"30 639 CURVE SMOOTH",
"30 51 LINE SMOOTH",
"30 22 OFFCURVE",
"52 0 OFFCURVE",
"81 0 CURVE SMOOTH",
"94 0 LINE SMOOTH",
"123 0 OFFCURVE",
"145 22 OFFCURVE",
"145 51 CURVE SMOOTH",
"145 639 LINE SMOOTH",
"145 668 OFFCURVE",
"167 690 OFFCURVE",
"196 690 CURVE SMOOTH"
);
}
);
width = 180;
}
);
unicode = 006C;
},
{
glyphname = m;
lastChange = "2024-09-03 16:41:42 +0000";
layers = (
{
hints = (
{
horizontal = 1;
origin = "{0, 60}";
target = "{0, 3}";
type = Stem;
},
{
origin = "{0, 71}";
target = "{0, 64}";
type = Stem;
},
{
origin = "{0, 55}";
target = "{0, 48}";
type = Stem;
},
{
origin = "{0, 39}";
target = "{0, 32}";
type = Stem;
}
);
layerId = "B9294602-EB87-4DCD-A39F-D52598F560AD";
paths = (
{
closed = 1;
nodes = (
"30 524 LINE SMOOTH",
"30 554 OFFCURVE",
"52 575 OFFCURVE",
"81 575 CURVE SMOOTH",
"209 575 LINE SMOOTH",
"238 575 OFFCURVE",
"259 553 OFFCURVE",
"259 524 CURVE SMOOTH",
"259 511 LINE SMOOTH",
"259 482 OFFCURVE",
"280 460 OFFCURVE",
"309 460 CURVE SMOOTH",
"324 460 LINE SMOOTH",
"353 460 OFFCURVE",
"374 482 OFFCURVE",
"374 511 CURVE SMOOTH",
"374 524 LINE SMOOTH",
"374 553 OFFCURVE",
"395 575 OFFCURVE",
"424 575 CURVE SMOOTH",
"439 575 LINE SMOOTH",
"468 575 OFFCURVE",
"489 553 OFFCURVE",
"489 524 CURVE SMOOTH",
"489 511 LINE SMOOTH",
"489 482 OFFCURVE",
"510 460 OFFCURVE",
"539 460 CURVE SMOOTH",
"554 460 LINE SMOOTH",
"583 460 OFFCURVE",
"605 438 OFFCURVE",
"605 409 CURVE SMOOTH",
"605 51 LINE SMOOTH",
"605 22 OFFCURVE",
"583 0 OFFCURVE",
"554 0 CURVE SMOOTH",
"539 0 LINE SMOOTH",
"510 0 OFFCURVE",
"489 22 OFFCURVE",
"489 51 CURVE SMOOTH",
"489 409 LINE SMOOTH",
"489 438 OFFCURVE",
"468 460 OFFCURVE",
"439 460 CURVE SMOOTH",
"424 460 LINE SMOOTH",
"395 460 OFFCURVE",
"374 438 OFFCURVE",
"374 409 CURVE SMOOTH",
"374 51 LINE SMOOTH",
"374 22 OFFCURVE",
"353 0 OFFCURVE",
"324 0 CURVE SMOOTH",
"309 0 LINE SMOOTH",
"280 0 OFFCURVE",
"259 22 OFFCURVE",
"259 51 CURVE SMOOTH",
"259 409 LINE SMOOTH",
"259 438 OFFCURVE",
"238 460 OFFCURVE",
"209 460 CURVE SMOOTH",
"194 460 LINE SMOOTH",
"165 460 OFFCURVE",
"144 438 OFFCURVE",
"144 409 CURVE SMOOTH",
"144 51 LINE SMOOTH",
"144 22 OFFCURVE",
"123 0 OFFCURVE",
"94 0 CURVE SMOOTH",
"79 0 LINE SMOOTH",
"50 0 OFFCURVE",
"30 22 OFFCURVE",
"30 51 CURVE SMOOTH"
);
}
);
width = 635;
},
{
hints = (
{
origin = "{0, 56}";
target = "{0, 48}";
type = Stem;
},
{
origin = "{0, 71}";
target = "{0, 63}";
type = Stem;
},
{
origin = "{0, 39}";
target = "{0, 31}";
type = Stem;
},
{
horizontal = 1;
origin = "{0, 44}";
target = "{0, 20}";
type = Stem;
},
{
horizontal = 1;
origin = "{0, 59}";
target = "{0, 3}";
type = Stem;
}
);
layerId = "52F3452F-C0C6-4900-9BFE-1786415B207F";
paths = (
{
closed = 1;
nodes = (
"30 524 LINE SMOOTH",
"30 554 OFFCURVE",
"52 575 OFFCURVE",
"81 575 CURVE SMOOTH",
"655 575 LINE SMOOTH",
"684 575 OFFCURVE",
"705 553 OFFCURVE",
"705 524 CURVE SMOOTH",
"705 511 LINE SMOOTH",
"705 482 OFFCURVE",
"726 460 OFFCURVE",
"755 460 CURVE SMOOTH",
"770 460 LINE SMOOTH",
"799 460 OFFCURVE",
"820 482 OFFCURVE",
"820 511 CURVE SMOOTH",
"820 524 LINE SMOOTH",
"820 553 OFFCURVE",
"841 575 OFFCURVE",
"870 575 CURVE SMOOTH",
"1332 575 LINE SMOOTH",
"1361 575 OFFCURVE",
"1382 553 OFFCURVE",
"1382 524 CURVE SMOOTH",
"1382 511 LINE SMOOTH",
"1382 482 OFFCURVE",
"1403 460 OFFCURVE",
"1432 460 CURVE SMOOTH",
"1447 460 LINE SMOOTH",
"1476 460 OFFCURVE",
"1498 438 OFFCURVE",
"1498 409 CURVE SMOOTH",
"1498 51 LINE SMOOTH",
"1498 22 OFFCURVE",
"1476 0 OFFCURVE",
"1447 0 CURVE SMOOTH",
"1432 0 LINE SMOOTH",
"1403 0 OFFCURVE",
"1382 22 OFFCURVE",
"1382 51 CURVE SMOOTH",
"1382 409 LINE SMOOTH",
"1382 438 OFFCURVE",
"1361 460 OFFCURVE",
"1332 460 CURVE SMOOTH",
"870 460 LINE SMOOTH",
"841 460 OFFCURVE",
"820 438 OFFCURVE",
"820 409 CURVE SMOOTH",
"820 51 LINE SMOOTH",
"820 22 OFFCURVE",
"799 0 OFFCURVE",
"770 0 CURVE SMOOTH",
"755 0 LINE SMOOTH",
"726 0 OFFCURVE",
"705 22 OFFCURVE",
"705 51 CURVE SMOOTH",
"705 409 LINE SMOOTH",
"705 438 OFFCURVE",
"684 460 OFFCURVE",
"655 460 CURVE SMOOTH",
"194 460 LINE SMOOTH",
"165 460 OFFCURVE",
"144 438 OFFCURVE",
"144 409 CURVE SMOOTH",
"144 51 LINE SMOOTH",
"144 22 OFFCURVE",
"123 0 OFFCURVE",
"94 0 CURVE SMOOTH",
"79 0 LINE SMOOTH",
"50 0 OFFCURVE",
"30 22 OFFCURVE",
"30 51 CURVE SMOOTH"
);
}
);
width = 1528;
}
);
unicode = 006D;
},
{
glyphname = n;
lastChange = "2024-09-03 16:42:05 +0000";
layers = (
{
hints = (
{
horizontal = 1;
origin = "{0, 12}";
target = "{0, 35}";
type = Stem;
},
{
origin = "{0, 39}";
target = "{0, 8}";
type = Stem;
},
{
origin = "{0, 32}";
target = "{0, 24}";
type = Stem;
}
);
layerId = "B9294602-EB87-4DCD-A39F-D52598F560AD";
paths = (
{
closed = 1;
nodes = (
"30 51 LINE SMOOTH",
"30 22 OFFCURVE",
"52 0 OFFCURVE",
"81 0 CURVE SMOOTH",
"94 0 LINE SMOOTH",
"123 0 OFFCURVE",
"145 22 OFFCURVE",
"145 51 CURVE SMOOTH",
"145 413 LINE SMOOTH",
"145 442 OFFCURVE",
"167 460 OFFCURVE",
"196 460 CURVE SMOOTH",
"209 460 LINE SMOOTH",
"238 460 OFFCURVE",
"260 442 OFFCURVE",
"260 413 CURVE SMOOTH",
"260 51 LINE SMOOTH",
"260 22 OFFCURVE",
"282 0 OFFCURVE",
"311 0 CURVE SMOOTH",
"324 0 LINE SMOOTH",
"353 0 OFFCURVE",
"375 22 OFFCURVE",
"375 51 CURVE SMOOTH",
"375 413 LINE SMOOTH",
"375 442 OFFCURVE",
"353 460 OFFCURVE",
"324 460 CURVE SMOOTH",
"311 460 LINE SMOOTH",
"282 460 OFFCURVE",
"260 486 OFFCURVE",
"260 515 CURVE SMOOTH",
"260 524 LINE SMOOTH",
"260 553 OFFCURVE",
"238 575 OFFCURVE",
"209 575 CURVE SMOOTH",
"81 575 LINE SMOOTH",
"52 575 OFFCURVE",
"30 553 OFFCURVE",
"30 524 CURVE SMOOTH"
);
}
);
width = 405;
},
{
hints = (
{
horizontal = 1;
origin = "{0, 12}";
target = "{0, 36}";
type = Stem;
},
{
origin = "{0, 39}";
target = "{0, 8}";
type = Stem;
},
{
origin = "{0, 32}";
target = "{0, 24}";
type = Stem;
}
);
layerId = "52F3452F-C0C6-4900-9BFE-1786415B207F";
paths = (
{
closed = 1;
nodes = (
"30 51 LINE SMOOTH",
"30 22 OFFCURVE",
"52 0 OFFCURVE",
"81 0 CURVE SMOOTH",
"94 0 LINE SMOOTH",
"123 0 OFFCURVE",
"145 22 OFFCURVE",
"145 51 CURVE SMOOTH",
"145 413 LINE SMOOTH",
"145 442 OFFCURVE",
"167 460 OFFCURVE",
"196 460 CURVE SMOOTH",
"1332 460 LINE SMOOTH",
"1361 460 OFFCURVE",
"1383 442 OFFCURVE",
"1383 413 CURVE SMOOTH",
"1383 51 LINE SMOOTH",
"1383 22 OFFCURVE",
"1405 0 OFFCURVE",
"1434 0 CURVE SMOOTH",
"1447 0 LINE SMOOTH",
"1476 0 OFFCURVE",
"1498 22 OFFCURVE",
"1498 51 CURVE SMOOTH",
"1498 413 LINE SMOOTH",
"1498 442 OFFCURVE",
"1476 460 OFFCURVE",
"1447 460 CURVE SMOOTH",
"1434 460 LINE SMOOTH",
"1405 460 OFFCURVE",
"1383 486 OFFCURVE",
"1383 515 CURVE SMOOTH",
"1383 524 LINE SMOOTH",
"1383 553 OFFCURVE",
"1361 575 OFFCURVE",
"1332 575 CURVE SMOOTH",
"81 575 LINE SMOOTH",
"52 575 OFFCURVE",
"30 553 OFFCURVE",
"30 524 CURVE SMOOTH"
);
}
);
width = 1528;
}
);
unicode = 006E;
},
{
glyphname = o;
lastChange = "2024-09-03 16:42:19 +0000";
layers = (
{
hints = (
{
horizontal = 1;
origin = "{0, 31}";
target = "{1, 12}";
type = Stem;
},
{
horizontal = 1;
origin = "{1, 3}";
target = "{0, 15}";
type = Stem;
},
{
origin = "{0, 28}";
target = "{1, 15}";
type = Stem;
},
{
origin = "{1, 8}";
target = "{0, 12}";
type = Stem;
}
);
layerId = "B9294602-EB87-4DCD-A39F-D52598F560AD";
paths = (
{
closed = 1;
nodes = (
"208 0 LINE SMOOTH",
"237 0 OFFCURVE",
"260 22 OFFCURVE",
"260 51 CURVE SMOOTH",
"260 64 LINE SMOOTH",
"260 93 OFFCURVE",
"282 115 OFFCURVE",
"311 115 CURVE SMOOTH",
"324 115 LINE SMOOTH",
"353 115 OFFCURVE",
"375 137 OFFCURVE",
"375 166 CURVE SMOOTH",
"375 524 LINE SMOOTH",
"375 553 OFFCURVE",
"353 575 OFFCURVE",
"324 575 CURVE SMOOTH",
"196 575 LINE SMOOTH",
"167 575 OFFCURVE",
"145 553 OFFCURVE",
"145 524 CURVE SMOOTH",
"145 511 LINE SMOOTH",
"145 482 OFFCURVE",
"123 460 OFFCURVE",
"94 460 CURVE SMOOTH",
"81 460 LINE SMOOTH",
"52 460 OFFCURVE",
"30 438 OFFCURVE",
"30 409 CURVE SMOOTH",
"30 51 LINE SMOOTH",
"30 22 OFFCURVE",
"52 0 OFFCURVE",
"81 0 CURVE SMOOTH"
);
},
{
closed = 1;
nodes = (
"145 409 LINE SMOOTH",
"145 438 OFFCURVE",
"167 460 OFFCURVE",
"196 460 CURVE SMOOTH",
"209 460 LINE SMOOTH",
"238 460 OFFCURVE",
"260 438 OFFCURVE",
"260 409 CURVE SMOOTH",
"260 166 LINE SMOOTH",
"260 137 OFFCURVE",
"238 115 OFFCURVE",
"209 115 CURVE SMOOTH",
"196 115 LINE SMOOTH",
"167 115 OFFCURVE",
"145 137 OFFCURVE",
"145 166 CURVE SMOOTH"
);
}
);
width = 405;
},
{
hints = (
{
horizontal = 1;
origin = "{0, 31}";
target = "{1, 12}";
type = Stem;
},
{
horizontal = 1;
origin = "{1, 4}";
target = "{0, 16}";
type = Stem;
},
{
origin = "{0, 28}";
target = "{1, 15}";
type = Stem;
},
{
origin = "{1, 8}";
target = "{0, 12}";
type = Stem;
}
);
layerId = "52F3452F-C0C6-4900-9BFE-1786415B207F";
paths = (
{
closed = 1;
nodes = (
"1331 0 LINE SMOOTH",
"1360 0 OFFCURVE",
"1383 22 OFFCURVE",
"1383 51 CURVE SMOOTH",
"1383 64 LINE SMOOTH",
"1383 93 OFFCURVE",
"1405 115 OFFCURVE",
"1434 115 CURVE SMOOTH",
"1447 115 LINE SMOOTH",
"1476 115 OFFCURVE",
"1498 137 OFFCURVE",
"1498 166 CURVE SMOOTH",
"1498 524 LINE SMOOTH",
"1498 553 OFFCURVE",
"1476 575 OFFCURVE",
"1447 575 CURVE SMOOTH",
"196 575 LINE SMOOTH",
"167 575 OFFCURVE",
"145 553 OFFCURVE",
"145 524 CURVE SMOOTH",
"145 511 LINE SMOOTH",
"145 482 OFFCURVE",
"123 460 OFFCURVE",
"94 460 CURVE SMOOTH",
"81 460 LINE SMOOTH",
"52 460 OFFCURVE",
"30 438 OFFCURVE",
"30 409 CURVE SMOOTH",
"30 51 LINE SMOOTH",
"30 22 OFFCURVE",
"52 0 OFFCURVE",
"81 0 CURVE SMOOTH"
);
},
{
closed = 1;
nodes = (
"145 409 LINE SMOOTH",
"145 438 OFFCURVE",
"167 460 OFFCURVE",
"196 460 CURVE SMOOTH",
"1332 460 LINE SMOOTH",
"1361 460 OFFCURVE",
"1383 438 OFFCURVE",
"1383 409 CURVE SMOOTH",
"1383 166 LINE SMOOTH",
"1383 137 OFFCURVE",
"1361 115 OFFCURVE",
"1332 115 CURVE SMOOTH",
"196 115 LINE SMOOTH",
"167 115 OFFCURVE",
"145 137 OFFCURVE",
"145 166 CURVE SMOOTH"
);
}
);
width = 1528;
}
);
leftKerningGroup = o;
rightKerningGroup = o;
unicode = 006F;
},
{
glyphname = p;
lastChange = "2024-09-03 16:42:35 +0000";
layers = (
{
hints = (
{
horizontal = 1;
origin = "{0, 47}";
target = "{1, 7}";
type = Stem;
},
{
horizontal = 1;
origin = "{1, 15}";
target = "{0, 15}";
type = Stem;
},
{
origin = "{0, 35}";
target = "{1, 11}";
type = Stem;
},
{
origin = "{1, 3}";
target = "{0, 3}";
type = Stem;
}
);
layerId = "B9294602-EB87-4DCD-A39F-D52598F560AD";
paths = (
{
closed = 1;
nodes = (
"353 115 OFFCURVE",
"375 137 OFFCURVE",
"375 166 CURVE SMOOTH",
"375 409 LINE SMOOTH",
"375 438 OFFCURVE",
"353 460 OFFCURVE",
"324 460 CURVE SMOOTH",
"311 460 LINE SMOOTH",
"282 460 OFFCURVE",
"260 482 OFFCURVE",
"260 511 CURVE SMOOTH",
"260 524 LINE SMOOTH",
"260 553 OFFCURVE",
"238 575 OFFCURVE",
"209 575 CURVE SMOOTH",
"81 575 LINE SMOOTH",
"52 575 OFFCURVE",
"30 553 OFFCURVE",
"30 524 CURVE SMOOTH",
"30 166 LINE SMOOTH",
"30 137 OFFCURVE",
"52 115 OFFCURVE",
"81 115 CURVE SMOOTH",
"94 115 LINE SMOOTH",
"123 115 OFFCURVE",
"145 93 OFFCURVE",
"145 64 CURVE SMOOTH",
"145 51 LINE SMOOTH",
"145 22 OFFCURVE",
"123 0 OFFCURVE",
"94 0 CURVE SMOOTH",
"81 0 LINE SMOOTH",
"52 0 OFFCURVE",
"30 -22 OFFCURVE",
"30 -51 CURVE SMOOTH",
"30 -179 LINE SMOOTH",
"30 -208 OFFCURVE",
"52 -230 OFFCURVE",
"81 -230 CURVE SMOOTH",
"94 -230 LINE SMOOTH",
"123 -230 OFFCURVE",
"145 -208 OFFCURVE",
"145 -179 CURVE SMOOTH",
"145 -51 LINE SMOOTH",
"145 -22 OFFCURVE",
"167 0 OFFCURVE",
"196 0 CURVE SMOOTH",
"209 0 LINE SMOOTH",
"238 0 OFFCURVE",
"260 22 OFFCURVE",
"260 51 CURVE SMOOTH",
"260 64 LINE SMOOTH",
"260 93 OFFCURVE",
"282 115 OFFCURVE",
"311 115 CURVE SMOOTH",
"324 115 LINE SMOOTH"
);
},
{
closed = 1;
nodes = (
"238 460 OFFCURVE",
"260 438 OFFCURVE",
"260 409 CURVE SMOOTH",
"260 166 LINE SMOOTH",
"260 137 OFFCURVE",
"238 115 OFFCURVE",
"209 115 CURVE SMOOTH",
"196 115 LINE SMOOTH",
"167 115 OFFCURVE",
"145 137 OFFCURVE",
"145 166 CURVE SMOOTH",
"145 409 LINE SMOOTH",
"145 438 OFFCURVE",
"167 460 OFFCURVE",
"196 460 CURVE SMOOTH",
"209 460 LINE SMOOTH"
);
}
);
width = 405;
},
{
hints = (
{
horizontal = 1;
origin = "{0, 47}";
target = "{1, 7}";
type = Stem;
},
{
horizontal = 1;
origin = "{1, 15}";
target = "{0, 15}";
type = Stem;
},
{
origin = "{0, 35}";
target = "{1, 11}";
type = Stem;
},
{
origin = "{1, 3}";
target = "{0, 3}";
type = Stem;
}
);
layerId = "52F3452F-C0C6-4900-9BFE-1786415B207F";
paths = (
{
closed = 1;
nodes = (
"1476 115 OFFCURVE",
"1498 137 OFFCURVE",
"1498 166 CURVE SMOOTH",
"1498 409 LINE SMOOTH",
"1498 438 OFFCURVE",
"1476 460 OFFCURVE",
"1447 460 CURVE SMOOTH",
"1434 460 LINE SMOOTH",
"1405 460 OFFCURVE",
"1383 482 OFFCURVE",
"1383 511 CURVE SMOOTH",
"1383 524 LINE SMOOTH",
"1383 553 OFFCURVE",
"1361 575 OFFCURVE",
"1332 575 CURVE SMOOTH",
"81 575 LINE SMOOTH",
"52 575 OFFCURVE",
"30 553 OFFCURVE",
"30 524 CURVE SMOOTH",
"30 166 LINE SMOOTH",
"30 137 OFFCURVE",
"52 115 OFFCURVE",
"81 115 CURVE SMOOTH",
"94 115 LINE SMOOTH",
"123 115 OFFCURVE",
"145 93 OFFCURVE",
"145 64 CURVE SMOOTH",
"145 51 LINE SMOOTH",
"145 22 OFFCURVE",
"123 0 OFFCURVE",
"94 0 CURVE SMOOTH",
"81 0 LINE SMOOTH",
"52 0 OFFCURVE",
"30 -22 OFFCURVE",
"30 -51 CURVE SMOOTH",
"30 -179 LINE SMOOTH",
"30 -208 OFFCURVE",
"52 -230 OFFCURVE",
"81 -230 CURVE SMOOTH",
"94 -230 LINE SMOOTH",
"123 -230 OFFCURVE",
"145 -208 OFFCURVE",
"145 -179 CURVE SMOOTH",
"145 -51 LINE SMOOTH",
"145 -22 OFFCURVE",
"167 0 OFFCURVE",
"196 0 CURVE SMOOTH",
"1332 0 LINE SMOOTH",
"1361 0 OFFCURVE",
"1383 22 OFFCURVE",
"1383 51 CURVE SMOOTH",
"1383 64 LINE SMOOTH",
"1383 93 OFFCURVE",
"1405 115 OFFCURVE",
"1434 115 CURVE SMOOTH",
"1447 115 LINE SMOOTH"
);
},
{
closed = 1;
nodes = (
"1361 460 OFFCURVE",
"1383 438 OFFCURVE",
"1383 409 CURVE SMOOTH",
"1383 166 LINE SMOOTH",
"1383 137 OFFCURVE",
"1361 115 OFFCURVE",
"1332 115 CURVE SMOOTH",
"196 115 LINE SMOOTH",
"167 115 OFFCURVE",
"145 137 OFFCURVE",
"145 166 CURVE SMOOTH",
"145 409 LINE SMOOTH",
"145 438 OFFCURVE",
"167 460 OFFCURVE",
"196 460 CURVE SMOOTH",
"1332 460 LINE SMOOTH"
);
}
);
width = 1528;
}
);
unicode = 0070;
},
{
glyphname = q;
lastChange = "2024-09-03 16:42:47 +0000";
layers = (
{
hints = (
{
horizontal = 1;
origin = "{0, 32}";
target = "{1, 4}";
type = Stem;
},
{
horizontal = 1;
origin = "{1, 11}";
target = "{0, 7}";
type = Stem;
},
{
origin = "{0, 20}";
target = "{1, 8}";
type = Stem;
},
{
origin = "{1, 15}";
target = "{0, 60}";
type = Stem;
},
{
origin = "{0, 60}";
target = "{0, 52}";
type = Stem;
}
);
layerId = "B9294602-EB87-4DCD-A39F-D52598F560AD";
paths = (
{
closed = 1;
nodes = (
"311 460 LINE SMOOTH",
"282 460 OFFCURVE",
"260 482 OFFCURVE",
"260 511 CURVE SMOOTH",
"260 524 LINE SMOOTH",
"260 553 OFFCURVE",
"238 575 OFFCURVE",
"209 575 CURVE SMOOTH",
"197 575 LINE SMOOTH",
"168 575 OFFCURVE",
"145 553 OFFCURVE",
"145 524 CURVE SMOOTH",
"145 511 LINE SMOOTH",
"145 482 OFFCURVE",
"123 460 OFFCURVE",
"94 460 CURVE SMOOTH",
"81 460 LINE SMOOTH",
"52 460 OFFCURVE",
"30 438 OFFCURVE",
"30 409 CURVE SMOOTH",
"30 162 LINE SMOOTH",
"30 133 OFFCURVE",
"52 114 OFFCURVE",
"81 114 CURVE SMOOTH",
"94 114 LINE SMOOTH",
"123 114 OFFCURVE",
"145 89 OFFCURVE",
"145 60 CURVE SMOOTH",
"145 47 LINE SMOOTH",
"145 18 OFFCURVE",
"168 0 OFFCURVE",
"197 0 CURVE SMOOTH",
"209 0 LINE SMOOTH",
"238 0 OFFCURVE",
"260 22 OFFCURVE",
"260 51 CURVE SMOOTH",
"260 63 LINE SMOOTH",
"260 92 OFFCURVE",
"282 114 OFFCURVE",
"311 114 CURVE SMOOTH",
"324 114 LINE SMOOTH",
"353 114 OFFCURVE",
"375 92 OFFCURVE",
"375 63 CURVE SMOOTH",
"375 -179 LINE SMOOTH",
"375 -208 OFFCURVE",
"397 -230 OFFCURVE",
"426 -230 CURVE SMOOTH",
"439 -230 LINE SMOOTH",
"468 -230 OFFCURVE",
"490 -208 OFFCURVE",
"490 -179 CURVE SMOOTH",
"490 64 LINE SMOOTH",
"490 93 OFFCURVE",
"468 114 OFFCURVE",
"439 114 CURVE SMOOTH",
"426 114 LINE SMOOTH",
"397 114 OFFCURVE",
"375 137 OFFCURVE",
"375 166 CURVE SMOOTH",
"375 409 LINE SMOOTH",
"375 438 OFFCURVE",
"353 460 OFFCURVE",
"324 460 CURVE SMOOTH"
);
},
{
closed = 1;
nodes = (
"260 162 LINE SMOOTH",
"260 133 OFFCURVE",
"238 114 OFFCURVE",
"209 114 CURVE SMOOTH",
"196 114 LINE SMOOTH",
"167 114 OFFCURVE",
"145 133 OFFCURVE",
"145 162 CURVE SMOOTH",
"145 409 LINE SMOOTH",
"145 438 OFFCURVE",
"167 460 OFFCURVE",
"196 460 CURVE SMOOTH",
"209 460 LINE SMOOTH",
"238 460 OFFCURVE",
"260 438 OFFCURVE",
"260 409 CURVE SMOOTH"
);
}
);
width = 520;
},
{
hints = (
{
horizontal = 1;
origin = "{0, 32}";
target = "{1, 4}";
type = Stem;
},
{
horizontal = 1;
origin = "{1, 12}";
target = "{0, 8}";
type = Stem;
},
{
origin = "{0, 20}";
target = "{1, 8}";
type = Stem;
},
{
origin = "{1, 15}";
target = "{0, 60}";
type = Stem;
},
{
origin = "{0, 60}";
target = "{0, 52}";
type = Stem;
}
);
layerId = "52F3452F-C0C6-4900-9BFE-1786415B207F";
paths = (
{
closed = 1;
nodes = (
"1319 460 LINE SMOOTH",
"1290 460 OFFCURVE",
"1268 482 OFFCURVE",
"1268 511 CURVE SMOOTH",
"1268 524 LINE SMOOTH",
"1268 553 OFFCURVE",
"1246 575 OFFCURVE",
"1217 575 CURVE SMOOTH",
"197 575 LINE SMOOTH",
"168 575 OFFCURVE",
"145 553 OFFCURVE",
"145 524 CURVE SMOOTH",
"145 511 LINE SMOOTH",
"145 482 OFFCURVE",
"123 460 OFFCURVE",
"94 460 CURVE SMOOTH",
"81 460 LINE SMOOTH",
"52 460 OFFCURVE",
"30 438 OFFCURVE",
"30 409 CURVE SMOOTH",
"30 162 LINE SMOOTH",
"30 133 OFFCURVE",
"52 114 OFFCURVE",
"81 114 CURVE SMOOTH",
"94 114 LINE SMOOTH",
"123 114 OFFCURVE",
"145 89 OFFCURVE",
"145 60 CURVE SMOOTH",
"145 47 LINE SMOOTH",
"145 18 OFFCURVE",
"168 0 OFFCURVE",
"197 0 CURVE SMOOTH",
"1217 0 LINE SMOOTH",
"1246 0 OFFCURVE",
"1268 22 OFFCURVE",
"1268 51 CURVE SMOOTH",
"1268 63 LINE SMOOTH",
"1268 92 OFFCURVE",
"1290 114 OFFCURVE",
"1319 114 CURVE SMOOTH",
"1332 114 LINE SMOOTH",
"1361 114 OFFCURVE",
"1383 92 OFFCURVE",
"1383 63 CURVE SMOOTH",
"1383 -179 LINE SMOOTH",
"1383 -208 OFFCURVE",
"1405 -230 OFFCURVE",
"1434 -230 CURVE SMOOTH",
"1447 -230 LINE SMOOTH",
"1476 -230 OFFCURVE",
"1498 -208 OFFCURVE",
"1498 -179 CURVE SMOOTH",
"1498 64 LINE SMOOTH",
"1498 93 OFFCURVE",
"1476 114 OFFCURVE",
"1447 114 CURVE SMOOTH",
"1434 114 LINE SMOOTH",
"1405 114 OFFCURVE",
"1383 137 OFFCURVE",
"1383 166 CURVE SMOOTH",
"1383 409 LINE SMOOTH",
"1383 438 OFFCURVE",
"1361 460 OFFCURVE",
"1332 460 CURVE SMOOTH"
);
},
{
closed = 1;
nodes = (
"1268 162 LINE SMOOTH",
"1268 133 OFFCURVE",
"1246 114 OFFCURVE",
"1217 114 CURVE SMOOTH",
"196 114 LINE SMOOTH",
"167 114 OFFCURVE",
"145 133 OFFCURVE",
"145 162 CURVE SMOOTH",
"145 409 LINE SMOOTH",
"145 438 OFFCURVE",
"167 460 OFFCURVE",
"196 460 CURVE SMOOTH",
"1217 460 LINE SMOOTH",
"1246 460 OFFCURVE",
"1268 438 OFFCURVE",
"1268 409 CURVE SMOOTH"
);
}
);
width = 1528;
}
);
unicode = 0071;
},
{
glyphname = r;
lastChange = "2024-09-03 16:43:13 +0000";
layers = (
{
hints = (
{
origin = "{0, 48}";
target = "{0, 40}";
type = Stem;
},
{
horizontal = 1;
origin = "{0, 35}";
target = "{0, 4}";
type = Stem;
},
{
origin = "{0, 31}";
target = "{0, 24}";
type = Stem;
}
);
layerId = "B9294602-EB87-4DCD-A39F-D52598F560AD";
paths = (
{
closed = 1;
nodes = (
"30 524 LINE SMOOTH",
"30 553 OFFCURVE",
"52 575 OFFCURVE",
"81 575 CURVE SMOOTH",
"94 575 LINE SMOOTH",
"123 575 OFFCURVE",
"145 553 OFFCURVE",
"145 524 CURVE SMOOTH",
"145 511 LINE SMOOTH",
"145 482 OFFCURVE",
"167 460 OFFCURVE",
"196 460 CURVE SMOOTH",
"209 460 LINE SMOOTH",
"238 460 OFFCURVE",
"260 482 OFFCURVE",
"260 511 CURVE SMOOTH",
"260 524 LINE SMOOTH",
"260 553 OFFCURVE",
"282 575 OFFCURVE",
"311 575 CURVE SMOOTH",
"439 575 LINE SMOOTH",
"468 575 OFFCURVE",
"490 553 OFFCURVE",
"490 524 CURVE SMOOTH",
"490 396 LINE SMOOTH",
"490 367 OFFCURVE",
"468 345 OFFCURVE",
"439 345 CURVE SMOOTH",
"426 345 LINE SMOOTH",
"397 345 OFFCURVE",
"375 367 OFFCURVE",
"375 396 CURVE SMOOTH",
"375 409 LINE SMOOTH",
"375 438 OFFCURVE",
"353 460 OFFCURVE",
"324 460 CURVE SMOOTH",
"311 460 LINE SMOOTH",
"282 460 OFFCURVE",
"260 437 OFFCURVE",
"260 409 CURVE SMOOTH",
"260 51 LINE SMOOTH",
"260 22 OFFCURVE",
"238 0 OFFCURVE",
"209 0 CURVE SMOOTH",
"196 0 LINE SMOOTH",
"167 0 OFFCURVE",
"145 22 OFFCURVE",
"145 51 CURVE SMOOTH",
"145 409 LINE SMOOTH",
"145 437 OFFCURVE",
"123 460 OFFCURVE",
"94 460 CURVE SMOOTH",
"81 460 LINE SMOOTH",
"52 460 OFFCURVE",
"30 482 OFFCURVE",
"30 511 CURVE SMOOTH"
);
}
);
width = 520;
},
{
hints = (
{
origin = "{0, 48}";
target = "{0, 40}";
type = Stem;
},
{
horizontal = 1;
origin = "{0, 35}";
target = "{0, 19}";
type = Stem;
},
{
origin = "{0, 32}";
target = "{0, 23}";
type = Stem;
}
);
layerId = "52F3452F-C0C6-4900-9BFE-1786415B207F";
paths = (
{
closed = 1;
nodes = (
"30 524 LINE SMOOTH",
"30 553 OFFCURVE",
"52 575 OFFCURVE",
"81 575 CURVE SMOOTH",
"94 575 LINE SMOOTH",
"123 575 OFFCURVE",
"145 553 OFFCURVE",
"145 524 CURVE SMOOTH",
"145 511 LINE SMOOTH",
"145 482 OFFCURVE",
"167 460 OFFCURVE",
"196 460 CURVE SMOOTH",
"209 460 LINE SMOOTH",
"238 460 OFFCURVE",
"260 482 OFFCURVE",
"260 511 CURVE SMOOTH",
"260 524 LINE SMOOTH",
"260 553 OFFCURVE",
"282 575 OFFCURVE",
"311 575 CURVE SMOOTH",
"1447 575 LINE SMOOTH",
"1476 575 OFFCURVE",
"1498 553 OFFCURVE",
"1498 524 CURVE SMOOTH",
"1498 396 LINE SMOOTH",
"1498 367 OFFCURVE",
"1476 345 OFFCURVE",
"1447 345 CURVE SMOOTH",
"1434 345 LINE SMOOTH",
"1405 345 OFFCURVE",
"1383 367 OFFCURVE",
"1383 396 CURVE SMOOTH",
"1383 409 LINE SMOOTH",
"1383 438 OFFCURVE",
"1361 460 OFFCURVE",
"1332 460 CURVE SMOOTH",
"311 460 LINE SMOOTH",
"282 460 OFFCURVE",
"260 437 OFFCURVE",
"260 409 CURVE SMOOTH",
"260 51 LINE SMOOTH",
"260 22 OFFCURVE",
"238 0 OFFCURVE",
"209 0 CURVE SMOOTH",
"196 0 LINE SMOOTH",
"167 0 OFFCURVE",
"145 22 OFFCURVE",
"145 51 CURVE SMOOTH",
"145 409 LINE SMOOTH",
"145 437 OFFCURVE",
"123 460 OFFCURVE",
"94 460 CURVE SMOOTH",
"81 460 LINE SMOOTH",
"52 460 OFFCURVE",
"30 482 OFFCURVE",
"30 511 CURVE SMOOTH"
);
}
);
width = 1528;
}
);
unicode = 0072;
},
{
glyphname = s;
lastChange = "2024-09-03 16:43:38 +0000";
layers = (
{
hints = (
{
horizontal = 1;
origin = "{0, 7}";
target = "{0, 71}";
type = Stem;
},
{
horizontal = 1;
origin = "{0, 63}";
target = "{0, 55}";
type = Stem;
},
{
horizontal = 1;
origin = "{0, 30}";
target = "{0, 38}";
type = Stem;
},
{
origin = "{0, 51}";
target = "{0, 59}";
type = Stem;
},
{
origin = "{0, 67}";
target = "{0, 35}";
type = Stem;
}
);
layerId = "B9294602-EB87-4DCD-A39F-D52598F560AD";
paths = (
{
closed = 1;
nodes = (
"51 115 OFFCURVE",
"30 94 OFFCURVE",
"30 64 CURVE SMOOTH",
"30 51 LINE SMOOTH",
"30 22 OFFCURVE",
"51 0 OFFCURVE",
"80 0 CURVE SMOOTH",
"209 0 LINE SMOOTH",
"238 0 OFFCURVE",
"260 22 OFFCURVE",
"260 51 CURVE SMOOTH",
"260 64 LINE SMOOTH",
"260 95 OFFCURVE",
"281 115 OFFCURVE",
"311 115 CURVE SMOOTH",
"323 115 LINE SMOOTH",
"353 115 OFFCURVE",
"375 137 OFFCURVE",
"375 166 CURVE SMOOTH",
"375 293 LINE SMOOTH",
"375 322 OFFCURVE",
"353 345 OFFCURVE",
"324 345 CURVE SMOOTH",
"196 345 LINE SMOOTH",
"167 345 OFFCURVE",
"145 367 OFFCURVE",
"145 396 CURVE SMOOTH",
"145 409 LINE SMOOTH",
"145 438 OFFCURVE",
"167 460 OFFCURVE",
"196 460 CURVE SMOOTH",
"324 460 LINE SMOOTH",
"353 460 OFFCURVE",
"375 482 OFFCURVE",
"375 511 CURVE SMOOTH",
"375 525 LINE SMOOTH",
"375 554 OFFCURVE",
"353 575 OFFCURVE",
"324 575 CURVE SMOOTH",
"196 575 LINE SMOOTH",
"167 575 OFFCURVE",
"145 553 OFFCURVE",
"145 524 CURVE SMOOTH",
"145 511 LINE SMOOTH",
"145 482 OFFCURVE",
"123 460 OFFCURVE",
"94 460 CURVE SMOOTH",
"81 460 LINE SMOOTH",
"52 460 OFFCURVE",
"30 438 OFFCURVE",
"30 409 CURVE SMOOTH",
"30 396 LINE SMOOTH",
"30 367 OFFCURVE",
"52 345 OFFCURVE",
"81 345 CURVE SMOOTH",
"94 345 LINE SMOOTH",
"123 345 OFFCURVE",
"145 324 OFFCURVE",
"145 295 CURVE SMOOTH",
"145 281 LINE SMOOTH",
"145 252 OFFCURVE",
"167 230 OFFCURVE",
"196 230 CURVE SMOOTH",
"209 230 LINE SMOOTH",
"238 230 OFFCURVE",
"260 208 OFFCURVE",
"260 179 CURVE SMOOTH",
"260 166 LINE SMOOTH",
"260 138 OFFCURVE",
"239 115 OFFCURVE",
"210 115 CURVE SMOOTH",
"80 115 LINE SMOOTH"
);
}
);
width = 405;
},
{
hints = (
{
horizontal = 1;
origin = "{0, 7}";
target = "{0, 71}";
type = Stem;
},
{
horizontal = 1;
origin = "{0, 63}";
target = "{0, 55}";
type = Stem;
},
{
horizontal = 1;
origin = "{0, 31}";
target = "{0, 39}";
type = Stem;
},
{
origin = "{0, 51}";
target = "{0, 59}";
type = Stem;
},
{
origin = "{0, 67}";
target = "{0, 35}";
type = Stem;
}
);
layerId = "52F3452F-C0C6-4900-9BFE-1786415B207F";
paths = (
{
closed = 1;
nodes = (
"51 115 OFFCURVE",
"30 94 OFFCURVE",
"30 64 CURVE SMOOTH",
"30 51 LINE SMOOTH",
"30 22 OFFCURVE",
"51 0 OFFCURVE",
"80 0 CURVE SMOOTH",
"1332 0 LINE SMOOTH",
"1361 0 OFFCURVE",
"1383 22 OFFCURVE",
"1383 51 CURVE SMOOTH",
"1383 64 LINE SMOOTH",
"1383 95 OFFCURVE",
"1404 115 OFFCURVE",
"1434 115 CURVE SMOOTH",
"1446 115 LINE SMOOTH",
"1476 115 OFFCURVE",
"1498 137 OFFCURVE",
"1498 166 CURVE SMOOTH",
"1498 293 LINE SMOOTH",
"1498 322 OFFCURVE",
"1476 345 OFFCURVE",
"1447 345 CURVE SMOOTH",
"196 345 LINE SMOOTH",
"167 345 OFFCURVE",
"145 367 OFFCURVE",
"145 396 CURVE SMOOTH",
"145 409 LINE SMOOTH",
"145 438 OFFCURVE",
"167 460 OFFCURVE",
"196 460 CURVE SMOOTH",
"1447 460 LINE SMOOTH",
"1476 460 OFFCURVE",
"1498 482 OFFCURVE",
"1498 511 CURVE SMOOTH",
"1498 525 LINE SMOOTH",
"1498 554 OFFCURVE",
"1476 575 OFFCURVE",
"1447 575 CURVE SMOOTH",
"196 575 LINE SMOOTH",
"167 575 OFFCURVE",
"145 553 OFFCURVE",
"145 524 CURVE SMOOTH",
"145 511 LINE SMOOTH",
"145 482 OFFCURVE",
"123 460 OFFCURVE",
"94 460 CURVE SMOOTH",
"81 460 LINE SMOOTH",
"52 460 OFFCURVE",
"30 438 OFFCURVE",
"30 409 CURVE SMOOTH",
"30 396 LINE SMOOTH",
"30 367 OFFCURVE",
"52 345 OFFCURVE",
"81 345 CURVE SMOOTH",
"94 345 LINE SMOOTH",
"123 345 OFFCURVE",
"145 324 OFFCURVE",
"145 295 CURVE SMOOTH",
"145 281 LINE SMOOTH",
"145 252 OFFCURVE",
"167 230 OFFCURVE",
"196 230 CURVE SMOOTH",
"1332 230 LINE SMOOTH",
"1361 230 OFFCURVE",
"1383 208 OFFCURVE",
"1383 179 CURVE SMOOTH",
"1383 166 LINE SMOOTH",
"1383 138 OFFCURVE",
"1362 115 OFFCURVE",
"1333 115 CURVE SMOOTH",
"80 115 LINE SMOOTH"
);
}
);
width = 1528;
}
);
unicode = 0073;
},
{
glyphname = t;
lastChange = "2024-09-03 16:43:58 +0000";
layers = (
{
hints = (
{
horizontal = 1;
origin = "{0, 11}";
target = "{0, 19}";
type = Stem;
},
{
horizontal = 1;
origin = "{0, 27}";
target = "{0, 34}";
type = Stem;
},
{
origin = "{0, 63}";
target = "{0, 55}";
type = Stem;
}
);
layerId = "B9294602-EB87-4DCD-A39F-D52598F560AD";
paths = (
{
closed = 1;
nodes = (
"30 137 OFFCURVE",
"52 115 OFFCURVE",
"81 115 CURVE SMOOTH",
"94 115 LINE SMOOTH",
"123 115 OFFCURVE",
"145 93 OFFCURVE",
"145 64 CURVE SMOOTH",
"145 51 LINE SMOOTH",
"145 22 OFFCURVE",
"167 0 OFFCURVE",
"196 0 CURVE SMOOTH",
"324 0 LINE SMOOTH",
"353 0 OFFCURVE",
"375 22 OFFCURVE",
"375 51 CURVE SMOOTH",
"375 64 LINE SMOOTH",
"375 93 OFFCURVE",
"353 115 OFFCURVE",
"324 115 CURVE SMOOTH",
"196 115 LINE SMOOTH",
"167 115 OFFCURVE",
"145 137 OFFCURVE",
"145 166 CURVE SMOOTH",
"145 409 LINE SMOOTH",
"145 438 OFFCURVE",
"167 460 OFFCURVE",
"196 460 CURVE SMOOTH",
"209 460 LINE SMOOTH",
"238 460 OFFCURVE",
"260 482 OFFCURVE",
"260 511 CURVE SMOOTH",
"260 524 LINE SMOOTH",
"260 553 OFFCURVE",
"238 575 OFFCURVE",
"209 575 CURVE SMOOTH",
"196 575 LINE SMOOTH",
"167 575 OFFCURVE",
"145 597 OFFCURVE",
"145 626 CURVE SMOOTH",
"145 639 LINE SMOOTH",
"145 668 OFFCURVE",
"123 690 OFFCURVE",
"94 690 CURVE SMOOTH",
"81 690 LINE SMOOTH",
"52 690 OFFCURVE",
"30 668 OFFCURVE",
"30 639 CURVE SMOOTH",
"30 626 LINE SMOOTH",
"30 597 OFFCURVE",
"52 575 OFFCURVE",
"81 575 CURVE SMOOTH",
"94 575 LINE SMOOTH",
"123 575 OFFCURVE",
"145 553 OFFCURVE",
"145 524 CURVE SMOOTH",
"145 511 LINE SMOOTH",
"145 482 OFFCURVE",
"123 460 OFFCURVE",
"94 460 CURVE SMOOTH",
"81 460 LINE SMOOTH",
"52 460 OFFCURVE",
"30 438 OFFCURVE",
"30 409 CURVE SMOOTH",
"30 166 LINE SMOOTH"
);
}
);
width = 405;
},
{
hints = (
{
horizontal = 1;
origin = "{0, 11}";
target = "{0, 19}";
type = Stem;
},
{
horizontal = 1;
origin = "{0, 51}";
target = "{0, 43}";
type = Stem;
},
{
horizontal = 1;
origin = "{0, 27}";
target = "{0, 34}";
type = Stem;
},
{
origin = "{0, 63}";
target = "{0, 55}";
type = Stem;
}
);
layerId = "52F3452F-C0C6-4900-9BFE-1786415B207F";
paths = (
{
closed = 1;
nodes = (
"30 137 OFFCURVE",
"52 115 OFFCURVE",
"81 115 CURVE SMOOTH",
"94 115 LINE SMOOTH",
"123 115 OFFCURVE",
"145 93 OFFCURVE",
"145 64 CURVE SMOOTH",
"145 51 LINE SMOOTH",
"145 22 OFFCURVE",
"167 0 OFFCURVE",
"196 0 CURVE SMOOTH",
"1447 0 LINE SMOOTH",
"1476 0 OFFCURVE",
"1498 22 OFFCURVE",
"1498 51 CURVE SMOOTH",
"1498 64 LINE SMOOTH",
"1498 93 OFFCURVE",
"1476 115 OFFCURVE",
"1447 115 CURVE SMOOTH",
"196 115 LINE SMOOTH",
"167 115 OFFCURVE",
"145 137 OFFCURVE",
"145 166 CURVE SMOOTH",
"145 409 LINE SMOOTH",
"145 438 OFFCURVE",
"167 460 OFFCURVE",
"196 460 CURVE SMOOTH",
"209 460 LINE SMOOTH",
"238 460 OFFCURVE",
"260 482 OFFCURVE",
"260 511 CURVE SMOOTH",
"260 524 LINE SMOOTH",
"260 553 OFFCURVE",
"238 575 OFFCURVE",
"209 575 CURVE SMOOTH",
"196 575 LINE SMOOTH",
"167 575 OFFCURVE",
"145 597 OFFCURVE",
"145 626 CURVE SMOOTH",
"145 639 LINE SMOOTH",
"145 668 OFFCURVE",
"123 690 OFFCURVE",
"94 690 CURVE SMOOTH",
"81 690 LINE SMOOTH",
"52 690 OFFCURVE",
"30 668 OFFCURVE",
"30 639 CURVE SMOOTH",
"30 626 LINE SMOOTH",
"30 597 OFFCURVE",
"52 575 OFFCURVE",
"81 575 CURVE SMOOTH",
"94 575 LINE SMOOTH",
"123 575 OFFCURVE",
"145 553 OFFCURVE",
"145 524 CURVE SMOOTH",
"145 511 LINE SMOOTH",
"145 482 OFFCURVE",
"123 460 OFFCURVE",
"94 460 CURVE SMOOTH",
"81 460 LINE SMOOTH",
"52 460 OFFCURVE",
"30 438 OFFCURVE",
"30 409 CURVE SMOOTH",
"30 166 LINE SMOOTH"
);
}
);
width = 1528;
}
);
unicode = 0074;
},
{
glyphname = u;
lastChange = "2024-09-03 14:20:36 +0000";
layers = (
{
hints = (
{
horizontal = 1;
origin = "{0, 11}";
target = "{0, 27}";
type = Stem;
},
{
origin = "{0, 39}";
target = "{0, 31}";
type = Stem;
},
{
origin = "{0, 23}";
target = "{0, 15}";
type = Stem;
}
);
layerId = "B9294602-EB87-4DCD-A39F-D52598F560AD";
paths = (
{
closed = 1;
nodes = (
"30 133 OFFCURVE",
"52 115 OFFCURVE",
"81 115 CURVE SMOOTH",
"94 115 LINE SMOOTH",
"123 115 OFFCURVE",
"145 89 OFFCURVE",
"145 60 CURVE SMOOTH",
"145 47 LINE SMOOTH",
"145 18 OFFCURVE",
"168 0 OFFCURVE",
"197 0 CURVE SMOOTH",
"324 0 LINE SMOOTH",
"353 0 OFFCURVE",
"375 22 OFFCURVE",
"375 51 CURVE SMOOTH",
"375 524 LINE SMOOTH",
"375 553 OFFCURVE",
"353 575 OFFCURVE",
"324 575 CURVE SMOOTH",
"311 575 LINE SMOOTH",
"282 575 OFFCURVE",
"260 553 OFFCURVE",
"260 524 CURVE SMOOTH",
"260 162 LINE SMOOTH",
"260 133 OFFCURVE",
"238 115 OFFCURVE",
"209 115 CURVE SMOOTH",
"196 115 LINE SMOOTH",
"167 115 OFFCURVE",
"145 133 OFFCURVE",
"145 162 CURVE SMOOTH",
"145 524 LINE SMOOTH",
"145 553 OFFCURVE",
"123 575 OFFCURVE",
"94 575 CURVE SMOOTH",
"81 575 LINE SMOOTH",
"52 575 OFFCURVE",
"30 553 OFFCURVE",
"30 524 CURVE SMOOTH",
"30 162 LINE SMOOTH"
);
}
);
width = 405;
},
{
hints = (
{
horizontal = 1;
origin = "{0, 11}";
target = "{0, 27}";
type = Stem;
},
{
origin = "{0, 39}";
target = "{0, 31}";
type = Stem;
},
{
origin = "{0, 23}";
target = "{0, 15}";
type = Stem;
}
);
layerId = "52F3452F-C0C6-4900-9BFE-1786415B207F";
paths = (
{
closed = 1;
nodes = (
"30 133 OFFCURVE",
"52 115 OFFCURVE",
"81 115 CURVE SMOOTH",
"94 115 LINE SMOOTH",
"123 115 OFFCURVE",
"145 89 OFFCURVE",
"145 60 CURVE SMOOTH",
"145 47 LINE SMOOTH",
"145 18 OFFCURVE",
"168 0 OFFCURVE",
"197 0 CURVE SMOOTH",
"1447 0 LINE SMOOTH",
"1476 0 OFFCURVE",
"1498 22 OFFCURVE",
"1498 51 CURVE SMOOTH",
"1498 524 LINE SMOOTH",
"1498 553 OFFCURVE",
"1476 575 OFFCURVE",
"1447 575 CURVE SMOOTH",
"1434 575 LINE SMOOTH",
"1405 575 OFFCURVE",
"1383 553 OFFCURVE",
"1383 524 CURVE SMOOTH",
"1383 162 LINE SMOOTH",
"1383 133 OFFCURVE",
"1361 115 OFFCURVE",
"1332 115 CURVE SMOOTH",
"196 115 LINE SMOOTH",
"167 115 OFFCURVE",
"145 133 OFFCURVE",
"145 162 CURVE SMOOTH",
"145 524 LINE SMOOTH",
"145 553 OFFCURVE",
"123 575 OFFCURVE",
"94 575 CURVE SMOOTH",
"81 575 LINE SMOOTH",
"52 575 OFFCURVE",
"30 553 OFFCURVE",
"30 524 CURVE SMOOTH",
"30 162 LINE SMOOTH"
);
}
);
width = 1528;
}
);
unicode = 0075;
},
{
glyphname = v;
lastChange = "2024-09-03 14:20:36 +0000";
layers = (
{
hints = (
{
horizontal = 1;
origin = "{0, 11}";
target = "{0, 35}";
type = Stem;
},
{
origin = "{0, 47}";
target = "{0, 39}";
type = Stem;
},
{
origin = "{0, 31}";
target = "{0, 23}";
type = Stem;
}
);
layerId = "B9294602-EB87-4DCD-A39F-D52598F560AD";
paths = (
{
closed = 1;
nodes = (
"35 133 OFFCURVE",
"57 115 OFFCURVE",
"86 115 CURVE SMOOTH",
"99 115 LINE SMOOTH",
"128 115 OFFCURVE",
"150 89 OFFCURVE",
"150 60 CURVE SMOOTH",
"150 47 LINE SMOOTH",
"150 18 OFFCURVE",
"173 0 OFFCURVE",
"202 0 CURVE SMOOTH",
"214 0 LINE SMOOTH",
"243 0 OFFCURVE",
"265 22 OFFCURVE",
"265 51 CURVE SMOOTH",
"265 64 LINE SMOOTH",
"265 93 OFFCURVE",
"287 115 OFFCURVE",
"316 115 CURVE SMOOTH",
"329 115 LINE SMOOTH",
"358 115 OFFCURVE",
"380 137 OFFCURVE",
"380 166 CURVE SMOOTH",
"380 524 LINE SMOOTH",
"380 553 OFFCURVE",
"358 575 OFFCURVE",
"329 575 CURVE SMOOTH",
"316 575 LINE SMOOTH",
"287 575 OFFCURVE",
"265 553 OFFCURVE",
"265 524 CURVE SMOOTH",
"265 162 LINE SMOOTH",
"265 133 OFFCURVE",
"243 115 OFFCURVE",
"214 115 CURVE SMOOTH",
"201 115 LINE SMOOTH",
"172 115 OFFCURVE",
"150 133 OFFCURVE",
"150 162 CURVE SMOOTH",
"150 524 LINE SMOOTH",
"150 553 OFFCURVE",
"128 575 OFFCURVE",
"99 575 CURVE SMOOTH",
"86 575 LINE SMOOTH",
"57 575 OFFCURVE",
"35 553 OFFCURVE",
"35 524 CURVE SMOOTH",
"35 162 LINE SMOOTH"
);
}
);
width = 415;
},
{
hints = (
{
horizontal = 1;
origin = "{0, 11}";
target = "{0, 35}";
type = Stem;
},
{
origin = "{0, 47}";
target = "{0, 39}";
type = Stem;
},
{
origin = "{0, 31}";
target = "{0, 23}";
type = Stem;
}
);
layerId = "52F3452F-C0C6-4900-9BFE-1786415B207F";
paths = (
{
closed = 1;
nodes = (
"30 133 OFFCURVE",
"52 115 OFFCURVE",
"81 115 CURVE SMOOTH",
"94 115 LINE SMOOTH",
"123 115 OFFCURVE",
"145 89 OFFCURVE",
"145 60 CURVE SMOOTH",
"145 47 LINE SMOOTH",
"145 18 OFFCURVE",
"169 0 OFFCURVE",
"197 0 CURVE SMOOTH",
"1332 0 LINE SMOOTH",
"1361 0 OFFCURVE",
"1383 22 OFFCURVE",
"1383 51 CURVE SMOOTH",
"1383 64 LINE SMOOTH",
"1383 93 OFFCURVE",
"1405 115 OFFCURVE",
"1434 115 CURVE SMOOTH",
"1447 115 LINE SMOOTH",
"1476 115 OFFCURVE",
"1498 137 OFFCURVE",
"1498 166 CURVE SMOOTH",
"1498 524 LINE SMOOTH",
"1498 553 OFFCURVE",
"1476 575 OFFCURVE",
"1447 575 CURVE SMOOTH",
"1434 575 LINE SMOOTH",
"1405 575 OFFCURVE",
"1383 553 OFFCURVE",
"1383 524 CURVE SMOOTH",
"1383 162 LINE SMOOTH",
"1383 133 OFFCURVE",
"1361 115 OFFCURVE",
"1332 115 CURVE SMOOTH",
"196 115 LINE SMOOTH",
"168 115 OFFCURVE",
"145 133 OFFCURVE",
"145 162 CURVE SMOOTH",
"145 524 LINE SMOOTH",
"145 553 OFFCURVE",
"123 575 OFFCURVE",
"94 575 CURVE SMOOTH",
"81 575 LINE SMOOTH",
"52 575 OFFCURVE",
"30 553 OFFCURVE",
"30 524 CURVE SMOOTH",
"30 162 LINE SMOOTH"
);
}
);
width = 1528;
}
);
unicode = 0076;
},
{
glyphname = w;
lastChange = "2024-09-03 16:44:56 +0000";
layers = (
{
hints = (
{
origin = "{0, 70}";
target = "{0, 7}";
type = Stem;
},
{
origin = "{0, 30}";
target = "{0, 38}";
type = Stem;
},
{
origin = "{0, 63}";
target = "{0, 55}";
type = Stem;
},
{
horizontal = 1;
origin = "{0, 67}";
target = "{0, 10}";
type = Stem;
}
);
layerId = "B9294602-EB87-4DCD-A39F-D52598F560AD";
paths = (
{
closed = 1;
nodes = (
"30 553 OFFCURVE",
"50 575 OFFCURVE",
"79 575 CURVE SMOOTH",
"94 575 LINE SMOOTH",
"123 575 OFFCURVE",
"144 553 OFFCURVE",
"144 524 CURVE SMOOTH",
"144 166 LINE SMOOTH",
"144 137 OFFCURVE",
"165 115 OFFCURVE",
"194 115 CURVE SMOOTH",
"209 115 LINE SMOOTH",
"238 115 OFFCURVE",
"259 137 OFFCURVE",
"259 166 CURVE SMOOTH",
"259 524 LINE SMOOTH",
"259 553 OFFCURVE",
"280 575 OFFCURVE",
"309 575 CURVE SMOOTH",
"324 575 LINE SMOOTH",
"353 575 OFFCURVE",
"374 553 OFFCURVE",
"374 524 CURVE SMOOTH",
"374 166 LINE SMOOTH",
"374 137 OFFCURVE",
"395 115 OFFCURVE",
"424 115 CURVE SMOOTH",
"439 115 LINE SMOOTH",
"468 115 OFFCURVE",
"489 137 OFFCURVE",
"489 166 CURVE SMOOTH",
"489 524 LINE SMOOTH",
"489 553 OFFCURVE",
"510 575 OFFCURVE",
"539 575 CURVE SMOOTH",
"554 575 LINE SMOOTH",
"583 575 OFFCURVE",
"604 553 OFFCURVE",
"604 524 CURVE SMOOTH",
"604 166 LINE SMOOTH",
"604 137 OFFCURVE",
"583 115 OFFCURVE",
"554 115 CURVE SMOOTH",
"539 115 LINE SMOOTH",
"510 115 OFFCURVE",
"489 93 OFFCURVE",
"489 64 CURVE SMOOTH",
"489 51 LINE SMOOTH",
"489 22 OFFCURVE",
"468 0 OFFCURVE",
"439 0 CURVE SMOOTH",
"424 0 LINE SMOOTH",
"395 0 OFFCURVE",
"374 22 OFFCURVE",
"374 51 CURVE SMOOTH",
"374 64 LINE SMOOTH",
"374 93 OFFCURVE",
"353 115 OFFCURVE",
"324 115 CURVE SMOOTH",
"309 115 LINE SMOOTH",
"280 115 OFFCURVE",
"259 93 OFFCURVE",
"259 64 CURVE SMOOTH",
"259 51 LINE SMOOTH",
"259 22 OFFCURVE",
"238 0 OFFCURVE",
"209 0 CURVE SMOOTH",
"81 0 LINE SMOOTH",
"52 0 OFFCURVE",
"30 21 OFFCURVE",
"30 51 CURVE SMOOTH",
"30 524 LINE SMOOTH"
);
}
);
width = 634;
},
{
hints = (
{
origin = "{0, 63}";
target = "{0, 55}";
type = Stem;
},
{
origin = "{0, 70}";
target = "{0, 6}";
type = Stem;
},
{
origin = "{0, 30}";
target = "{0, 38}";
type = Stem;
},
{
horizontal = 1;
origin = "{0, 66}";
target = "{0, 10}";
type = Stem;
},
{
horizontal = 1;
origin = "{0, 51}";
target = "{0, 27}";
type = Stem;
}
);
layerId = "52F3452F-C0C6-4900-9BFE-1786415B207F";
paths = (
{
closed = 1;
nodes = (
"30 553 OFFCURVE",
"50 575 OFFCURVE",
"79 575 CURVE SMOOTH",
"94 575 LINE SMOOTH",
"123 575 OFFCURVE",
"144 553 OFFCURVE",
"144 524 CURVE SMOOTH",
"144 166 LINE SMOOTH",
"144 137 OFFCURVE",
"165 115 OFFCURVE",
"194 115 CURVE SMOOTH",
"655 115 LINE SMOOTH",
"684 115 OFFCURVE",
"705 137 OFFCURVE",
"705 166 CURVE SMOOTH",
"705 524 LINE SMOOTH",
"705 553 OFFCURVE",
"726 575 OFFCURVE",
"755 575 CURVE SMOOTH",
"770 575 LINE SMOOTH",
"799 575 OFFCURVE",
"820 553 OFFCURVE",
"820 524 CURVE SMOOTH",
"820 166 LINE SMOOTH",
"820 137 OFFCURVE",
"841 115 OFFCURVE",
"870 115 CURVE SMOOTH",
"1332 115 LINE SMOOTH",
"1361 115 OFFCURVE",
"1382 137 OFFCURVE",
"1382 166 CURVE SMOOTH",
"1382 524 LINE SMOOTH",
"1382 553 OFFCURVE",
"1403 575 OFFCURVE",
"1432 575 CURVE SMOOTH",
"1447 575 LINE SMOOTH",
"1476 575 OFFCURVE",
"1498 553 OFFCURVE",
"1498 524 CURVE SMOOTH",
"1498 166 LINE SMOOTH",
"1498 137 OFFCURVE",
"1476 115 OFFCURVE",
"1447 115 CURVE SMOOTH",
"1432 115 LINE SMOOTH",
"1403 115 OFFCURVE",
"1382 93 OFFCURVE",
"1382 64 CURVE SMOOTH",
"1382 51 LINE SMOOTH",
"1382 22 OFFCURVE",
"1361 0 OFFCURVE",
"1332 0 CURVE SMOOTH",
"870 0 LINE SMOOTH",
"841 0 OFFCURVE",
"820 22 OFFCURVE",
"820 51 CURVE SMOOTH",
"820 64 LINE SMOOTH",
"820 93 OFFCURVE",
"799 115 OFFCURVE",
"770 115 CURVE SMOOTH",
"755 115 LINE SMOOTH",
"726 115 OFFCURVE",
"705 93 OFFCURVE",
"705 64 CURVE SMOOTH",
"705 51 LINE SMOOTH",
"705 22 OFFCURVE",
"684 0 OFFCURVE",
"655 0 CURVE SMOOTH",
"81 0 LINE SMOOTH",
"52 0 OFFCURVE",
"30 21 OFFCURVE",
"30 51 CURVE SMOOTH",
"30 524 LINE SMOOTH"
);
}
);
width = 1528;
}
);
unicode = 0077;
},
{
glyphname = x;
lastChange = "2024-09-03 16:45:07 +0000";
layers = (
{
hints = (
{
horizontal = 1;
origin = "{0, 75}";
target = "{0, 67}";
type = Stem;
},
{
origin = "{0, 79}";
target = "{0, 71}";
type = Stem;
},
{
origin = "{0, 47}";
target = "{0, 39}";
type = Stem;
}
);
layerId = "B9294602-EB87-4DCD-A39F-D52598F560AD";
paths = (
{
closed = 1;
nodes = (
"30 23 OFFCURVE",
"52 1 OFFCURVE",
"81 1 CURVE SMOOTH",
"94 1 LINE SMOOTH",
"123 1 OFFCURVE",
"145 23 OFFCURVE",
"145 52 CURVE SMOOTH",
"145 180 LINE SMOOTH",
"145 209 OFFCURVE",
"167 231 OFFCURVE",
"196 231 CURVE SMOOTH",
"209 231 LINE SMOOTH",
"238 231 OFFCURVE",
"260 209 OFFCURVE",
"260 180 CURVE SMOOTH",
"260 52 LINE SMOOTH",
"260 23 OFFCURVE",
"282 1 OFFCURVE",
"311 1 CURVE SMOOTH",
"324 1 LINE SMOOTH",
"353 1 OFFCURVE",
"375 23 OFFCURVE",
"375 52 CURVE SMOOTH",
"375 180 LINE SMOOTH",
"375 209 OFFCURVE",
"353 231 OFFCURVE",
"324 231 CURVE SMOOTH",
"311 231 LINE SMOOTH",
"282 231 OFFCURVE",
"260 253 OFFCURVE",
"260 282 CURVE SMOOTH",
"260 295 LINE SMOOTH",
"260 324 OFFCURVE",
"282 346 OFFCURVE",
"311 346 CURVE SMOOTH",
"324 346 LINE SMOOTH",
"353 346 OFFCURVE",
"375 368 OFFCURVE",
"375 397 CURVE SMOOTH",
"375 525 LINE SMOOTH",
"375 554 OFFCURVE",
"353 576 OFFCURVE",
"324 576 CURVE SMOOTH",
"311 576 LINE SMOOTH",
"282 576 OFFCURVE",
"260 554 OFFCURVE",
"260 525 CURVE SMOOTH",
"260 397 LINE SMOOTH",
"260 368 OFFCURVE",
"238 346 OFFCURVE",
"209 346 CURVE SMOOTH",
"196 346 LINE SMOOTH",
"167 346 OFFCURVE",
"145 368 OFFCURVE",
"145 397 CURVE SMOOTH",
"145 525 LINE SMOOTH",
"145 554 OFFCURVE",
"123 576 OFFCURVE",
"94 576 CURVE SMOOTH",
"81 576 LINE SMOOTH",
"52 576 OFFCURVE",
"30 554 OFFCURVE",
"30 525 CURVE SMOOTH",
"30 397 LINE SMOOTH",
"30 368 OFFCURVE",
"52 346 OFFCURVE",
"81 346 CURVE SMOOTH",
"94 346 LINE SMOOTH",
"123 346 OFFCURVE",
"145 324 OFFCURVE",
"145 295 CURVE SMOOTH",
"145 282 LINE SMOOTH",
"145 253 OFFCURVE",
"123 231 OFFCURVE",
"94 231 CURVE SMOOTH",
"81 231 LINE SMOOTH",
"52 231 OFFCURVE",
"30 209 OFFCURVE",
"30 180 CURVE SMOOTH",
"30 52 LINE SMOOTH"
);
}
);
width = 405;
},
{
hints = (
{
horizontal = 1;
origin = "{0, 75}";
target = "{0, 67}";
type = Stem;
},
{
origin = "{0, 79}";
target = "{0, 71}";
type = Stem;
},
{
origin = "{0, 47}";
target = "{0, 39}";
type = Stem;
}
);
layerId = "52F3452F-C0C6-4900-9BFE-1786415B207F";
paths = (
{
closed = 1;
nodes = (
"30 22 OFFCURVE",
"52 0 OFFCURVE",
"81 0 CURVE SMOOTH",
"94 0 LINE SMOOTH",
"123 0 OFFCURVE",
"145 22 OFFCURVE",
"145 51 CURVE SMOOTH",
"145 179 LINE SMOOTH",
"145 208 OFFCURVE",
"167 230 OFFCURVE",
"196 230 CURVE SMOOTH",
"1332 230 LINE SMOOTH",
"1361 230 OFFCURVE",
"1383 208 OFFCURVE",
"1383 179 CURVE SMOOTH",
"1383 51 LINE SMOOTH",
"1383 22 OFFCURVE",
"1405 0 OFFCURVE",
"1434 0 CURVE SMOOTH",
"1447 0 LINE SMOOTH",
"1476 0 OFFCURVE",
"1498 22 OFFCURVE",
"1498 51 CURVE SMOOTH",
"1498 179 LINE SMOOTH",
"1498 208 OFFCURVE",
"1476 230 OFFCURVE",
"1447 230 CURVE SMOOTH",
"1434 230 LINE SMOOTH",
"1405 230 OFFCURVE",
"1383 252 OFFCURVE",
"1383 281 CURVE SMOOTH",
"1383 294 LINE SMOOTH",
"1383 323 OFFCURVE",
"1405 345 OFFCURVE",
"1434 345 CURVE SMOOTH",
"1447 345 LINE SMOOTH",
"1476 345 OFFCURVE",
"1498 367 OFFCURVE",
"1498 396 CURVE SMOOTH",
"1498 524 LINE SMOOTH",
"1498 553 OFFCURVE",
"1476 575 OFFCURVE",
"1447 575 CURVE SMOOTH",
"1434 575 LINE SMOOTH",
"1405 575 OFFCURVE",
"1383 553 OFFCURVE",
"1383 524 CURVE SMOOTH",
"1383 396 LINE SMOOTH",
"1383 367 OFFCURVE",
"1361 345 OFFCURVE",
"1332 345 CURVE SMOOTH",
"196 345 LINE SMOOTH",
"167 345 OFFCURVE",
"145 367 OFFCURVE",
"145 396 CURVE SMOOTH",
"145 524 LINE SMOOTH",
"145 553 OFFCURVE",
"123 575 OFFCURVE",
"94 575 CURVE SMOOTH",
"81 575 LINE SMOOTH",
"52 575 OFFCURVE",
"30 553 OFFCURVE",
"30 524 CURVE SMOOTH",
"30 396 LINE SMOOTH",
"30 367 OFFCURVE",
"52 345 OFFCURVE",
"81 345 CURVE SMOOTH",
"94 345 LINE SMOOTH",
"123 345 OFFCURVE",
"145 323 OFFCURVE",
"145 294 CURVE SMOOTH",
"145 281 LINE SMOOTH",
"145 252 OFFCURVE",
"123 230 OFFCURVE",
"94 230 CURVE SMOOTH",
"81 230 LINE SMOOTH",
"52 230 OFFCURVE",
"30 208 OFFCURVE",
"30 179 CURVE SMOOTH",
"30 51 LINE SMOOTH"
);
}
);
width = 1528;
}
);
unicode = 0078;
},
{
glyphname = y;
lastChange = "2024-09-03 16:45:13 +0000";
layers = (
{
hints = (
{
horizontal = 1;
origin = "{0, 71}";
target = "{0, 7}";
type = Stem;
},
{
horizontal = 1;
origin = "{0, 63}";
target = "{0, 47}";
type = Stem;
},
{
origin = "{0, 59}";
target = "{0, 51}";
type = Stem;
},
{
origin = "{0, 67}";
target = "{0, 35}";
type = Stem;
}
);
layerId = "B9294602-EB87-4DCD-A39F-D52598F560AD";
paths = (
{
closed = 1;
nodes = (
"52 0 OFFCURVE",
"30 -22 OFFCURVE",
"30 -51 CURVE SMOOTH",
"30 -64 LINE SMOOTH",
"30 -93 OFFCURVE",
"52 -115 OFFCURVE",
"81 -115 CURVE SMOOTH",
"209 -115 LINE SMOOTH",
"238 -115 OFFCURVE",
"260 -94 OFFCURVE",
"260 -65 CURVE SMOOTH",
"260 -52 LINE SMOOTH",
"260 -23 OFFCURVE",
"282 0 OFFCURVE",
"311 0 CURVE SMOOTH",
"324 0 LINE SMOOTH",
"353 0 OFFCURVE",
"375 22 OFFCURVE",
"375 51 CURVE SMOOTH",
"375 64 LINE SMOOTH",
"375 93 OFFCURVE",
"353 115 OFFCURVE",
"324 115 CURVE SMOOTH",
"311 115 LINE SMOOTH",
"282 115 OFFCURVE",
"260 137 OFFCURVE",
"260 166 CURVE SMOOTH",
"260 179 LINE SMOOTH",
"260 208 OFFCURVE",
"282 230 OFFCURVE",
"311 230 CURVE SMOOTH",
"324 230 LINE SMOOTH",
"353 230 OFFCURVE",
"375 252 OFFCURVE",
"375 281 CURVE SMOOTH",
"375 524 LINE SMOOTH",
"375 553 OFFCURVE",
"353 575 OFFCURVE",
"324 575 CURVE SMOOTH",
"311 575 LINE SMOOTH",
"282 575 OFFCURVE",
"260 553 OFFCURVE",
"260 524 CURVE SMOOTH",
"260 277 LINE SMOOTH",
"260 248 OFFCURVE",
"238 230 OFFCURVE",
"209 230 CURVE SMOOTH",
"196 230 LINE SMOOTH",
"167 230 OFFCURVE",
"145 248 OFFCURVE",
"145 277 CURVE SMOOTH",
"145 524 LINE SMOOTH",
"145 553 OFFCURVE",
"123 575 OFFCURVE",
"94 575 CURVE SMOOTH",
"81 575 LINE SMOOTH",
"52 575 OFFCURVE",
"30 553 OFFCURVE",
"30 524 CURVE SMOOTH",
"30 166 LINE SMOOTH",
"30 137 OFFCURVE",
"52 115 OFFCURVE",
"81 115 CURVE SMOOTH",
"209 115 LINE SMOOTH",
"238 115 OFFCURVE",
"260 93 OFFCURVE",
"260 64 CURVE SMOOTH",
"260 51 LINE SMOOTH",
"260 22 OFFCURVE",
"238 0 OFFCURVE",
"209 0 CURVE SMOOTH",
"81 0 LINE SMOOTH"
);
}
);
width = 405;
},
{
hints = (
{
horizontal = 1;
origin = "{0, 71}";
target = "{0, 7}";
type = Stem;
},
{
horizontal = 1;
origin = "{0, 63}";
target = "{0, 47}";
type = Stem;
},
{
origin = "{0, 59}";
target = "{0, 51}";
type = Stem;
},
{
origin = "{0, 67}";
target = "{0, 35}";
type = Stem;
}
);
layerId = "52F3452F-C0C6-4900-9BFE-1786415B207F";
paths = (
{
closed = 1;
nodes = (
"52 0 OFFCURVE",
"30 -22 OFFCURVE",
"30 -51 CURVE SMOOTH",
"30 -64 LINE SMOOTH",
"30 -93 OFFCURVE",
"52 -115 OFFCURVE",
"81 -115 CURVE SMOOTH",
"1332 -115 LINE SMOOTH",
"1361 -115 OFFCURVE",
"1383 -94 OFFCURVE",
"1383 -65 CURVE SMOOTH",
"1383 -52 LINE SMOOTH",
"1383 -23 OFFCURVE",
"1405 0 OFFCURVE",
"1434 0 CURVE SMOOTH",
"1447 0 LINE SMOOTH",
"1476 0 OFFCURVE",
"1498 22 OFFCURVE",
"1498 51 CURVE SMOOTH",
"1498 64 LINE SMOOTH",
"1498 93 OFFCURVE",
"1476 115 OFFCURVE",
"1447 115 CURVE SMOOTH",
"1434 115 LINE SMOOTH",
"1405 115 OFFCURVE",
"1383 137 OFFCURVE",
"1383 166 CURVE SMOOTH",
"1383 179 LINE SMOOTH",
"1383 208 OFFCURVE",
"1405 230 OFFCURVE",
"1434 230 CURVE SMOOTH",
"1447 230 LINE SMOOTH",
"1476 230 OFFCURVE",
"1498 252 OFFCURVE",
"1498 281 CURVE SMOOTH",
"1498 524 LINE SMOOTH",
"1498 553 OFFCURVE",
"1476 575 OFFCURVE",
"1447 575 CURVE SMOOTH",
"1434 575 LINE SMOOTH",
"1405 575 OFFCURVE",
"1383 553 OFFCURVE",
"1383 524 CURVE SMOOTH",
"1383 277 LINE SMOOTH",
"1383 248 OFFCURVE",
"1361 230 OFFCURVE",
"1332 230 CURVE SMOOTH",
"196 230 LINE SMOOTH",
"167 230 OFFCURVE",
"145 248 OFFCURVE",
"145 277 CURVE SMOOTH",
"145 524 LINE SMOOTH",
"145 553 OFFCURVE",
"123 575 OFFCURVE",
"94 575 CURVE SMOOTH",
"81 575 LINE SMOOTH",
"52 575 OFFCURVE",
"30 553 OFFCURVE",
"30 524 CURVE SMOOTH",
"30 166 LINE SMOOTH",
"30 137 OFFCURVE",
"52 115 OFFCURVE",
"81 115 CURVE SMOOTH",
"1332 115 LINE SMOOTH",
"1361 115 OFFCURVE",
"1383 93 OFFCURVE",
"1383 64 CURVE SMOOTH",
"1383 51 LINE SMOOTH",
"1383 22 OFFCURVE",
"1361 0 OFFCURVE",
"1332 0 CURVE SMOOTH",
"81 0 LINE SMOOTH"
);
}
);
width = 1528;
}
);
unicode = 0079;
},
{
glyphname = z;
lastChange = "2024-09-03 14:20:36 +0000";
layers = (
{
hints = (
{
horizontal = 1;
origin = "{0, 59}";
target = "{0, 3}";
type = Stem;
},
{
horizontal = 1;
origin = "{0, 51}";
target = "{0, 43}";
type = Stem;
},
{
horizontal = 1;
origin = "{0, 34}";
target = "{0, 26}";
type = Stem;
},
{
origin = "{0, 55}";
target = "{0, 47}";
type = Stem;
},
{
origin = "{0, 39}";
target = "{0, 63}";
type = Stem;
}
);
layerId = "B9294602-EB87-4DCD-A39F-D52598F560AD";
paths = (
{
closed = 1;
nodes = (
"375 93 OFFCURVE",
"353 115 OFFCURVE",
"324 115 CURVE SMOOTH",
"196 115 LINE SMOOTH",
"167 115 OFFCURVE",
"145 137 OFFCURVE",
"145 166 CURVE SMOOTH",
"145 180 LINE SMOOTH",
"145 209 OFFCURVE",
"167 230 OFFCURVE",
"196 230 CURVE SMOOTH",
"209 230 LINE SMOOTH",
"238 230 OFFCURVE",
"260 253 OFFCURVE",
"260 282 CURVE SMOOTH",
"260 295 LINE SMOOTH",
"260 324 OFFCURVE",
"282 345 OFFCURVE",
"311 345 CURVE SMOOTH",
"324 345 LINE SMOOTH",
"353 345 OFFCURVE",
"375 368 OFFCURVE",
"375 397 CURVE SMOOTH",
"375 524 LINE SMOOTH",
"375 553 OFFCURVE",
"353 575 OFFCURVE",
"324 575 CURVE SMOOTH",
"81 575 LINE SMOOTH",
"52 575 OFFCURVE",
"30 554 OFFCURVE",
"30 525 CURVE SMOOTH",
"30 512 LINE SMOOTH",
"30 483 OFFCURVE",
"52 460 OFFCURVE",
"81 460 CURVE SMOOTH",
"209 460 LINE SMOOTH",
"238 460 OFFCURVE",
"260 438 OFFCURVE",
"260 410 CURVE SMOOTH",
"260 397 LINE SMOOTH",
"260 368 OFFCURVE",
"238 345 OFFCURVE",
"209 345 CURVE SMOOTH",
"196 345 LINE SMOOTH",
"167 345 OFFCURVE",
"145 324 OFFCURVE",
"145 295 CURVE SMOOTH",
"145 282 LINE SMOOTH",
"145 253 OFFCURVE",
"123 230 OFFCURVE",
"94 230 CURVE SMOOTH",
"81 230 LINE",
"52 230 OFFCURVE",
"30 209 OFFCURVE",
"30 180 CURVE SMOOTH",
"30 51 LINE SMOOTH",
"30 22 OFFCURVE",
"52 0 OFFCURVE",
"81 0 CURVE SMOOTH",
"324 0 LINE SMOOTH",
"353 0 OFFCURVE",
"375 22 OFFCURVE",
"375 51 CURVE SMOOTH",
"375 64 LINE SMOOTH"
);
}
);
width = 405;
},
{
hints = (
{
horizontal = 1;
origin = "{0, 59}";
target = "{0, 3}";
type = Stem;
},
{
horizontal = 1;
origin = "{0, 51}";
target = "{0, 43}";
type = Stem;
},
{
horizontal = 1;
origin = "{0, 27}";
target = "{0, 35}";
type = Stem;
},
{
origin = "{0, 55}";
target = "{0, 47}";
type = Stem;
},
{
origin = "{0, 39}";
target = "{0, 63}";
type = Stem;
}
);
layerId = "52F3452F-C0C6-4900-9BFE-1786415B207F";
paths = (
{
closed = 1;
nodes = (
"1498 93 OFFCURVE",
"1476 115 OFFCURVE",
"1447 115 CURVE SMOOTH",
"196 115 LINE SMOOTH",
"167 115 OFFCURVE",
"145 137 OFFCURVE",
"145 166 CURVE SMOOTH",
"145 180 LINE SMOOTH",
"145 209 OFFCURVE",
"167 230 OFFCURVE",
"196 230 CURVE SMOOTH",
"1332 230 LINE SMOOTH",
"1361 230 OFFCURVE",
"1383 253 OFFCURVE",
"1383 282 CURVE SMOOTH",
"1383 295 LINE SMOOTH",
"1383 324 OFFCURVE",
"1405 345 OFFCURVE",
"1434 345 CURVE SMOOTH",
"1447 345 LINE SMOOTH",
"1476 345 OFFCURVE",
"1498 368 OFFCURVE",
"1498 397 CURVE SMOOTH",
"1498 524 LINE SMOOTH",
"1498 553 OFFCURVE",
"1476 575 OFFCURVE",
"1447 575 CURVE SMOOTH",
"81 575 LINE SMOOTH",
"52 575 OFFCURVE",
"30 554 OFFCURVE",
"30 525 CURVE SMOOTH",
"30 512 LINE SMOOTH",
"30 483 OFFCURVE",
"52 460 OFFCURVE",
"81 460 CURVE SMOOTH",
"1332 460 LINE SMOOTH",
"1361 460 OFFCURVE",
"1383 438 OFFCURVE",
"1383 410 CURVE SMOOTH",
"1383 397 LINE SMOOTH",
"1383 368 OFFCURVE",
"1361 345 OFFCURVE",
"1332 345 CURVE SMOOTH",
"196 345 LINE SMOOTH",
"167 345 OFFCURVE",
"145 324 OFFCURVE",
"145 295 CURVE SMOOTH",
"145 282 LINE SMOOTH",
"145 253 OFFCURVE",
"123 230 OFFCURVE",
"94 230 CURVE SMOOTH",
"81 230 LINE",
"52 230 OFFCURVE",
"30 209 OFFCURVE",
"30 180 CURVE SMOOTH",
"30 51 LINE SMOOTH",
"30 22 OFFCURVE",
"52 0 OFFCURVE",
"81 0 CURVE SMOOTH",
"1447 0 LINE SMOOTH",
"1476 0 OFFCURVE",
"1498 22 OFFCURVE",
"1498 51 CURVE SMOOTH",
"1498 64 LINE SMOOTH"
);
}
);
width = 1528;
}
);
unicode = 007A;
},
{
glyphname = f_f;
lastChange = "2024-09-03 16:45:41 +0000";
layers = (
{
hints = (
{
horizontal = 1;
origin = "{0, 59}";
target = "{0, 66}";
type = Stem;
},
{
horizontal = 1;
origin = "{0, 74}";
target = "{0, 107}";
type = Stem;
},
{
origin = "{0, 127}";
target = "{0, 119}";
type = Stem;
},
{
origin = "{0, 103}";
target = "{0, 95}";
type = Stem;
},
{
origin = "{0, 79}";
target = "{0, 87}";
type = Stem;
},
{
horizontal = 1;
origin = "{0, 10}";
target = "{0, 19}";
type = Stem;
}
);
layerId = "B9294602-EB87-4DCD-A39F-D52598F560AD";
paths = (
{
closed = 1;
nodes = (
"30 19 OFFCURVE",
"49 0 OFFCURVE",
"73 0 CURVE SMOOTH",
"102 0 LINE SMOOTH",
"126 0 OFFCURVE",
"145 19 OFFCURVE",
"145 42 CURVE SMOOTH",
"145 409 LINE SMOOTH",
"145 438 OFFCURVE",
"167 460 OFFCURVE",
"196 460 CURVE SMOOTH",
"216 460 LINE SMOOTH",
"245 460 OFFCURVE",
"260 479 OFFCURVE",
"260 503 CURVE SMOOTH",
"260 530 LINE SMOOTH",
"260 552 OFFCURVE",
"245 575 OFFCURVE",
"217 575 CURVE SMOOTH",
"196 575 LINE SMOOTH",
"167 575 OFFCURVE",
"145 597 OFFCURVE",
"145 626 CURVE SMOOTH",
"145 638 LINE SMOOTH",
"145 668 OFFCURVE",
"167 690 OFFCURVE",
"197 690 CURVE SMOOTH",
"210 690 LINE SMOOTH",
"239 690 OFFCURVE",
"261 668 OFFCURVE",
"261 639 CURVE SMOOTH",
"261 626 LINE SMOOTH",
"261 597 OFFCURVE",
"283 575 OFFCURVE",
"312 575 CURVE SMOOTH",
"325 575 LINE SMOOTH",
"354 575 OFFCURVE",
"376 553 OFFCURVE",
"376 524 CURVE SMOOTH",
"376 511 LINE SMOOTH",
"376 482 OFFCURVE",
"354 460 OFFCURVE",
"325 460 CURVE SMOOTH",
"312 460 LINE SMOOTH",
"283 460 OFFCURVE",
"261 438 OFFCURVE",
"261 409 CURVE SMOOTH",
"261 42 LINE SMOOTH",
"261 19 OFFCURVE",
"280 0 OFFCURVE",
"304 0 CURVE SMOOTH",
"333 0 LINE SMOOTH",
"357 0 OFFCURVE",
"376 19 OFFCURVE",
"376 42 CURVE SMOOTH",
"376 409 LINE SMOOTH",
"376 438 OFFCURVE",
"398 460 OFFCURVE",
"427 460 CURVE SMOOTH",
"447 460 LINE SMOOTH",
"476 460 OFFCURVE",
"491 479 OFFCURVE",
"491 503 CURVE SMOOTH",
"491 530 LINE SMOOTH",
"491 552 OFFCURVE",
"476 575 OFFCURVE",
"448 575 CURVE SMOOTH",
"427 575 LINE SMOOTH",
"398 575 OFFCURVE",
"376 597 OFFCURVE",
"376 626 CURVE SMOOTH",
"376 638 LINE SMOOTH",
"376 668 OFFCURVE",
"398 690 OFFCURVE",
"428 690 CURVE SMOOTH",
"440 690 LINE SMOOTH",
"469 690 OFFCURVE",
"491 668 OFFCURVE",
"491 639 CURVE SMOOTH",
"491 626 LINE SMOOTH",
"491 597 OFFCURVE",
"513 575 OFFCURVE",
"542 575 CURVE SMOOTH",
"555 575 LINE SMOOTH",
"584 575 OFFCURVE",
"606 597 OFFCURVE",
"606 626 CURVE SMOOTH",
"606 754 LINE SMOOTH",
"606 783 OFFCURVE",
"584 805 OFFCURVE",
"555 805 CURVE SMOOTH",
"427 805 LINE SMOOTH",
"398 805 OFFCURVE",
"376 783 OFFCURVE",
"376 754 CURVE SMOOTH",
"376 741 LINE SMOOTH",
"376 712 OFFCURVE",
"354 690 OFFCURVE",
"325 690 CURVE SMOOTH",
"312 690 LINE SMOOTH",
"283 690 OFFCURVE",
"261 712 OFFCURVE",
"261 741 CURVE SMOOTH",
"261 754 LINE SMOOTH",
"261 783 OFFCURVE",
"238 805 OFFCURVE",
"209 805 CURVE SMOOTH",
"81 805 LINE SMOOTH",
"52 805 OFFCURVE",
"30 783 OFFCURVE",
"30 754 CURVE SMOOTH",
"30 626 LINE SMOOTH",
"30 597 OFFCURVE",
"52 575 OFFCURVE",
"81 575 CURVE SMOOTH",
"94 575 LINE SMOOTH",
"123 575 OFFCURVE",
"145 553 OFFCURVE",
"145 524 CURVE SMOOTH",
"145 511 LINE SMOOTH",
"145 482 OFFCURVE",
"123 460 OFFCURVE",
"94 460 CURVE SMOOTH",
"81 460 LINE SMOOTH",
"52 460 OFFCURVE",
"30 438 OFFCURVE",
"30 409 CURVE SMOOTH",
"30 42 LINE SMOOTH"
);
}
);
width = 636;
},
{
hints = (
{
horizontal = 1;
origin = "{0, 59}";
target = "{0, 19}";
type = Stem;
},
{
horizontal = 1;
origin = "{0, 75}";
target = "{0, 107}";
type = Stem;
},
{
origin = "{0, 127}";
target = "{0, 119}";
type = Stem;
},
{
origin = "{0, 103}";
target = "{0, 95}";
type = Stem;
},
{
origin = "{0, 79}";
target = "{0, 87}";
type = Stem;
}
);
layerId = "52F3452F-C0C6-4900-9BFE-1786415B207F";
paths = (
{
closed = 1;
nodes = (
"30 19 OFFCURVE",
"49 0 OFFCURVE",
"73 0 CURVE SMOOTH",
"102 0 LINE SMOOTH",
"126 0 OFFCURVE",
"145 19 OFFCURVE",
"145 42 CURVE SMOOTH",
"145 409 LINE SMOOTH",
"145 438 OFFCURVE",
"167 460 OFFCURVE",
"196 460 CURVE SMOOTH",
"646 460 LINE SMOOTH",
"675 460 OFFCURVE",
"690 479 OFFCURVE",
"690 503 CURVE SMOOTH",
"690 530 LINE SMOOTH",
"690 552 OFFCURVE",
"675 575 OFFCURVE",
"647 575 CURVE SMOOTH",
"196 575 LINE SMOOTH",
"167 575 OFFCURVE",
"145 597 OFFCURVE",
"145 626 CURVE SMOOTH",
"145 638 LINE SMOOTH",
"145 668 OFFCURVE",
"167 690 OFFCURVE",
"197 690 CURVE SMOOTH",
"640 690 LINE SMOOTH",
"669 690 OFFCURVE",
"691 668 OFFCURVE",
"691 639 CURVE SMOOTH",
"691 626 LINE SMOOTH",
"691 597 OFFCURVE",
"713 575 OFFCURVE",
"742 575 CURVE SMOOTH",
"755 575 LINE SMOOTH",
"784 575 OFFCURVE",
"806 553 OFFCURVE",
"806 524 CURVE SMOOTH",
"806 511 LINE SMOOTH",
"806 482 OFFCURVE",
"784 460 OFFCURVE",
"755 460 CURVE SMOOTH",
"742 460 LINE SMOOTH",
"713 460 OFFCURVE",
"691 438 OFFCURVE",
"691 409 CURVE SMOOTH",
"691 42 LINE SMOOTH",
"691 19 OFFCURVE",
"710 0 OFFCURVE",
"734 0 CURVE SMOOTH",
"763 0 LINE SMOOTH",
"787 0 OFFCURVE",
"806 19 OFFCURVE",
"806 42 CURVE SMOOTH",
"806 409 LINE SMOOTH",
"806 438 OFFCURVE",
"828 460 OFFCURVE",
"857 460 CURVE SMOOTH",
"1339 460 LINE SMOOTH",
"1368 460 OFFCURVE",
"1383 479 OFFCURVE",
"1383 503 CURVE SMOOTH",
"1383 530 LINE SMOOTH",
"1383 552 OFFCURVE",
"1368 575 OFFCURVE",
"1340 575 CURVE SMOOTH",
"857 575 LINE SMOOTH",
"828 575 OFFCURVE",
"806 597 OFFCURVE",
"806 626 CURVE SMOOTH",
"806 638 LINE SMOOTH",
"806 668 OFFCURVE",
"828 690 OFFCURVE",
"858 690 CURVE SMOOTH",
"1332 690 LINE SMOOTH",
"1361 690 OFFCURVE",
"1383 668 OFFCURVE",
"1383 639 CURVE SMOOTH",
"1383 626 LINE SMOOTH",
"1383 597 OFFCURVE",
"1405 575 OFFCURVE",
"1434 575 CURVE SMOOTH",
"1447 575 LINE SMOOTH",
"1476 575 OFFCURVE",
"1498 597 OFFCURVE",
"1498 626 CURVE SMOOTH",
"1498 754 LINE SMOOTH",
"1498 783 OFFCURVE",
"1476 805 OFFCURVE",
"1447 805 CURVE SMOOTH",
"857 805 LINE SMOOTH",
"828 805 OFFCURVE",
"806 783 OFFCURVE",
"806 754 CURVE SMOOTH",
"806 741 LINE SMOOTH",
"806 712 OFFCURVE",
"784 690 OFFCURVE",
"755 690 CURVE SMOOTH",
"742 690 LINE SMOOTH",
"713 690 OFFCURVE",
"691 712 OFFCURVE",
"691 741 CURVE SMOOTH",
"691 754 LINE SMOOTH",
"691 783 OFFCURVE",
"668 805 OFFCURVE",
"639 805 CURVE SMOOTH",
"81 805 LINE SMOOTH",
"52 805 OFFCURVE",
"30 783 OFFCURVE",
"30 754 CURVE SMOOTH",
"30 626 LINE SMOOTH",
"30 597 OFFCURVE",
"52 575 OFFCURVE",
"81 575 CURVE SMOOTH",
"94 575 LINE SMOOTH",
"123 575 OFFCURVE",
"145 553 OFFCURVE",
"145 524 CURVE SMOOTH",
"145 511 LINE SMOOTH",
"145 482 OFFCURVE",
"123 460 OFFCURVE",
"94 460 CURVE SMOOTH",
"81 460 LINE SMOOTH",
"52 460 OFFCURVE",
"30 438 OFFCURVE",
"30 409 CURVE SMOOTH",
"30 42 LINE SMOOTH"
);
}
);
width = 1528;
}
);
},
